<svg width="283" height="244" viewBox="0 0 283 244" fill="none" xmlns="http://www.w3.org/2000/svg">
<path d="M159.535 243.269C162.943 243.269 165.705 240.507 165.705 237.099C165.705 233.692 162.943 230.929 159.535 230.929C156.128 230.929 153.365 233.692 153.365 237.099C153.365 240.507 156.128 243.269 159.535 243.269Z" fill="#008080"/>
<path d="M214.182 219.471C216.616 219.471 218.589 217.498 218.589 215.064C218.589 212.63 216.616 210.657 214.182 210.657C211.748 210.657 209.775 212.63 209.775 215.064C209.775 217.498 211.748 219.471 214.182 219.471Z" fill="#008080"/>
<path d="M77.564 224.759C81.4583 224.759 84.6152 221.602 84.6152 217.708C84.6152 213.814 81.4583 210.657 77.564 210.657C73.6697 210.657 70.5127 213.814 70.5127 217.708C70.5127 221.602 73.6697 224.759 77.564 224.759Z" fill="#008080"/>
<path d="M20.7131 178.045C24.364 178.045 27.3237 175.085 27.3237 171.434C27.3237 167.783 24.364 164.824 20.7131 164.824C17.0622 164.824 14.1025 167.783 14.1025 171.434C14.1025 175.085 17.0622 178.045 20.7131 178.045Z" fill="#008080"/>
<path d="M236.218 189.503C239.138 189.503 241.506 187.135 241.506 184.215C241.506 181.294 239.138 178.926 236.218 178.926C233.297 178.926 230.929 181.294 230.929 184.215C230.929 187.135 233.297 189.503 236.218 189.503Z" fill="#008080"/>
<path d="M275.881 178.926C279.776 178.926 282.933 175.769 282.933 171.875C282.933 167.981 279.776 164.824 275.881 164.824C271.987 164.824 268.83 167.981 268.83 171.875C268.83 175.769 271.987 178.926 275.881 178.926Z" fill="#008080"/>
<path d="M239.743 142.788C242.177 142.788 244.151 140.815 244.151 138.381C244.151 135.947 242.177 133.974 239.743 133.974C237.31 133.974 235.336 135.947 235.336 138.381C235.336 140.815 237.31 142.788 239.743 142.788Z" fill="#008080"/>
<path d="M235.336 123.397C239.231 123.397 242.388 120.241 242.388 116.346C242.388 112.452 239.231 109.295 235.336 109.295C231.442 109.295 228.285 112.452 228.285 116.346C228.285 120.241 231.442 123.397 235.336 123.397Z" fill="#008080"/>
<path d="M259.135 91.6666C261.569 91.6666 263.542 89.6935 263.542 87.2596C263.542 84.8256 261.569 82.8525 259.135 82.8525C256.701 82.8525 254.728 84.8256 254.728 87.2596C254.728 89.6935 256.701 91.6666 259.135 91.6666Z" fill="#008080"/>
<path d="M249.439 72.2754C253.333 72.2754 256.49 69.1184 256.49 65.2241C256.49 61.3298 253.333 58.1729 249.439 58.1729C245.545 58.1729 242.388 61.3298 242.388 65.2241C242.388 69.1184 245.545 72.2754 249.439 72.2754Z" fill="#008080"/>
<path d="M15.8656 217.708C18.7863 217.708 21.1541 215.341 21.1541 212.42C21.1541 209.499 18.7863 207.131 15.8656 207.131C12.9449 207.131 10.5771 209.499 10.5771 212.42C10.5771 215.341 12.9449 217.708 15.8656 217.708Z" fill="#008080"/>
<path d="M215.945 49.3588C219.353 49.3588 222.115 46.5964 222.115 43.1889C222.115 39.7814 219.353 37.019 215.945 37.019C212.538 37.019 209.775 39.7814 209.775 43.1889C209.775 46.5964 212.538 49.3588 215.945 49.3588Z" fill="#008080"/>
<path d="M223.437 33.4936C227.088 33.4936 230.048 30.534 230.048 26.883C230.048 23.2321 227.088 20.2725 223.437 20.2725C219.786 20.2725 216.827 23.2321 216.827 26.883C216.827 30.534 219.786 33.4936 223.437 33.4936Z" fill="#008080"/>
<path d="M159.535 8.8141C161.969 8.8141 163.942 6.84099 163.942 4.40705C163.942 1.9731 161.969 0 159.535 0C157.101 0 155.128 1.9731 155.128 4.40705C155.128 6.84099 157.101 8.8141 159.535 8.8141Z" fill="#008080"/>
<path d="M76.6824 36.1378C79.1164 36.1378 81.0895 34.1647 81.0895 31.7308C81.0895 29.2968 79.1164 27.3237 76.6824 27.3237C74.2485 27.3237 72.2754 29.2968 72.2754 31.7308C72.2754 34.1647 74.2485 36.1378 76.6824 36.1378Z" fill="#008080"/>
<path d="M104.888 49.3588C108.295 49.3588 111.058 46.5964 111.058 43.1889C111.058 39.7814 108.295 37.019 104.888 37.019C101.48 37.019 98.7178 39.7814 98.7178 43.1889C98.7178 46.5964 101.48 49.3588 104.888 49.3588Z" fill="#008080"/>
<path d="M52.0033 47.596C54.924 47.596 57.2918 45.2282 57.2918 42.3075C57.2918 39.3868 54.924 37.019 52.0033 37.019C49.0826 37.019 46.7148 39.3868 46.7148 42.3075C46.7148 45.2282 49.0826 47.596 52.0033 47.596Z" fill="#008080"/>
<path d="M31.731 14.1026C35.6253 14.1026 38.7822 10.9456 38.7822 7.05128C38.7822 3.15696 35.6253 0 31.731 0C27.8367 0 24.6797 3.15696 24.6797 7.05128C24.6797 10.9456 27.8367 14.1026 31.731 14.1026Z" fill="#008080"/>
<path d="M6.61057 89.0224C10.2615 89.0224 13.2211 86.0628 13.2211 82.4118C13.2211 78.7609 10.2615 75.8013 6.61057 75.8013C2.95965 75.8013 0 78.7609 0 82.4118C0 86.0628 2.95965 89.0224 6.61057 89.0224Z" fill="#008080"/>
<path d="M37.0194 111.058C39.4533 111.058 41.4264 109.085 41.4264 106.651C41.4264 104.217 39.4533 102.244 37.0194 102.244C34.5854 102.244 32.6123 104.217 32.6123 106.651C32.6123 109.085 34.5854 111.058 37.0194 111.058Z" fill="#008080"/>
<path d="M45.8335 155.128C49.7278 155.128 52.8848 151.971 52.8848 148.077C52.8848 144.182 49.7278 141.025 45.8335 141.025C41.9392 141.025 38.7822 144.182 38.7822 148.077C38.7822 151.971 41.9392 155.128 45.8335 155.128Z" fill="#008080"/>
<path d="M145.432 29.0866C147.866 29.0866 149.839 27.1135 149.839 24.6795C149.839 22.2456 147.866 20.2725 145.432 20.2725C142.998 20.2725 141.025 22.2456 141.025 24.6795C141.025 27.1135 142.998 29.0866 145.432 29.0866Z" fill="#008080"/>
<path d="M160.416 47.596C163.337 47.596 165.705 45.2282 165.705 42.3075C165.705 39.3868 163.337 37.019 160.416 37.019C157.496 37.019 155.128 39.3868 155.128 42.3075C155.128 45.2282 157.496 47.596 160.416 47.596Z" fill="#008080"/>
</svg>
