<svg width="27" height="24" viewBox="0 0 27 24" fill="none" xmlns="http://www.w3.org/2000/svg">
<path fill-rule="evenodd" clip-rule="evenodd" d="M26.2531 12.2728C26.2531 11.4219 26.1709 10.6037 26.018 9.81824H13.8391V14.4601H20.7985C20.4987 15.9601 19.5876 17.231 18.2181 18.0819V21.0928H22.3972C24.8424 19.0037 26.2531 15.9273 26.2531 12.2728Z" fill="#4285F4"/>
<path fill-rule="evenodd" clip-rule="evenodd" d="M13.8391 24C17.3305 24 20.2577 22.9255 22.3973 21.0928L18.2181 18.0818C17.0601 18.8018 15.5789 19.2273 13.8391 19.2273C10.471 19.2273 7.62026 17.1164 6.60339 14.28H2.28314V17.3891C4.41094 21.3109 8.78408 24 13.8391 24Z" fill="#34A853"/>
<path fill-rule="evenodd" clip-rule="evenodd" d="M6.60338 14.2799C6.34476 13.5599 6.19781 12.7908 6.19781 11.9999C6.19781 11.209 6.34476 10.4399 6.60338 9.71993V6.61084H2.28314C1.40733 8.23084 0.907715 10.0636 0.907715 11.9999C0.907715 13.9363 1.40733 15.769 2.28314 17.389L6.60338 14.2799Z" fill="#FBBC05"/>
<path fill-rule="evenodd" clip-rule="evenodd" d="M13.8391 4.77273C15.7376 4.77273 17.4422 5.37818 18.7824 6.56727L22.4913 3.12545C20.2518 1.18909 17.3246 0 13.8391 0C8.78408 0 4.41094 2.68909 2.28314 6.61091L6.60339 9.72C7.62026 6.88364 10.471 4.77273 13.8391 4.77273Z" fill="#EA4335"/>
</svg>
