<svg width="332" height="315" viewBox="0 0 332 315" fill="none" xmlns="http://www.w3.org/2000/svg">
<g clip-path="url(#clip0_596_8316)">
<path d="M324.328 177.04C314.944 205.456 294.724 236.596 264.96 246.739C219.998 262.059 215.984 298.93 134.379 298.638C122.465 298.658 110.584 297.384 98.9462 294.838C93.256 293.574 87.6522 291.95 82.1688 289.975C33.8261 272.557 7.35929 231.135 3.56838 186.871C-1.41196 128.657 38.2569 99.2822 64.0838 81.9617C89.9106 64.6412 119.403 0.361456 199.631 -0.0206654C211.878 -0.124151 224.097 1.18134 236.045 3.87002C263.284 10.1229 291.316 25.1785 308.156 48.1266C309.412 49.8496 310.625 51.6143 311.793 53.4207C334.532 88.7357 337.126 138.3 324.328 177.04Z" fill="#008080" fill-opacity="0.2"/>
<path d="M88.3246 125.544H19.3718V226.195H88.3246V125.544Z" stroke="black" stroke-width="0.516112" stroke-linecap="round" stroke-linejoin="round"/>
<path d="M84.5199 131.103H23.1768V220.644H84.5199V131.103Z" stroke="black" stroke-width="0.516112" stroke-linecap="round" stroke-linejoin="round"/>
<path d="M69.5719 152.918H38.1178V198.828H69.5719V152.918Z" stroke="black" stroke-width="0.516112" stroke-linecap="round" stroke-linejoin="round"/>
<path d="M317.281 125.544H248.329V226.195H317.281V125.544Z" stroke="black" stroke-width="0.516112" stroke-linecap="round" stroke-linejoin="round"/>
<path d="M313.477 131.103H252.134V220.644H313.477V131.103Z" stroke="black" stroke-width="0.516112" stroke-linecap="round" stroke-linejoin="round"/>
<path d="M298.529 152.918H267.082V198.828H298.529V152.918Z" stroke="black" stroke-width="0.516112" stroke-linecap="round" stroke-linejoin="round"/>
<path d="M286.189 22.5869H50.9095C50.1644 22.5869 49.4267 22.7336 48.7384 23.0186C48.0502 23.3036 47.4249 23.7213 46.8984 24.2478C46.3719 24.7744 45.9545 25.3994 45.67 26.0872C45.3855 26.775 45.2396 27.512 45.2405 28.2562V211.195C45.2405 211.939 45.3871 212.675 45.672 213.362C45.9569 214.049 46.3745 214.673 46.9009 215.199C47.4273 215.725 48.0522 216.142 48.74 216.426C49.4278 216.711 50.165 216.857 50.9095 216.857H193.621L210.315 229.822L207.79 216.857H286.189C287.693 216.857 289.135 216.261 290.198 215.199C291.261 214.137 291.858 212.697 291.858 211.195V28.2562C291.859 27.512 291.713 26.775 291.429 26.0872C291.144 25.3994 290.727 24.7744 290.2 24.2478C289.674 23.7213 289.048 23.3036 288.36 23.0186C287.672 22.7336 286.934 22.5869 286.189 22.5869Z" fill="black" stroke="black" stroke-width="0.516112" stroke-linecap="round" stroke-linejoin="round"/>
<path d="M290.321 16.9175H55.0412C53.5377 16.9175 52.0957 17.514 51.0326 18.5759C49.9695 19.6378 49.3722 21.0781 49.3722 22.5798V205.519C49.3722 207.02 49.9695 208.461 51.0326 209.523C52.0957 210.584 53.5377 211.181 55.0412 211.181H197.746L214.44 224.145L211.922 211.181H290.321C291.824 211.181 293.266 210.584 294.329 209.523C295.393 208.461 295.99 207.02 295.99 205.519V22.5798C295.99 21.0781 295.393 19.6378 294.329 18.5759C293.266 17.514 291.824 16.9175 290.321 16.9175Z" fill="#008080"/>
<path d="M113.943 106.174C113.943 106.174 107.613 95.6414 97.9445 95.0578C88.2759 94.4742 86.4952 102.881 83.1843 104.993C79.8733 107.105 77.1606 103.187 72.9384 104.687C68.7162 106.188 69.3214 108.599 65.9826 110.106C62.6438 111.614 60.258 107.696 56.9401 109.203C53.6221 110.711 52.7249 112.51 52.7249 112.51H127.152C127.152 112.51 125.065 106.792 121.726 105.896C118.388 105 117.56 108.884 113.943 106.174Z" fill="white"/>
<path d="M282.064 67.1558C282.064 67.1558 277.439 59.4509 270.379 59.0062C263.319 58.5616 261.997 64.7381 259.576 66.2804C257.156 67.8228 255.166 64.9534 252.078 66.0581C248.99 67.1628 249.428 68.9206 247.007 70.0252C244.587 71.1299 242.834 68.2605 240.392 69.3305C237.951 70.4004 237.304 71.7552 237.304 71.7552H291.802C291.802 71.7552 290.258 67.5866 287.838 66.8918C285.417 66.1971 284.742 69.1429 282.064 67.1558Z" fill="white"/>
<path d="M260.821 37.9201C260.821 37.9201 252.273 23.6844 239.258 22.8715C226.244 22.0586 223.775 33.4458 219.295 36.3083C214.816 39.1707 211.15 33.8696 205.453 35.9053C199.756 37.941 200.584 41.1925 196.091 43.2212C191.597 45.2499 188.356 39.9697 183.876 42.0054C179.397 44.041 178.18 46.4797 178.18 46.4797H278.732C278.732 46.4797 275.881 38.7539 271.408 37.5311C266.935 36.3083 265.704 41.5746 260.821 37.9201Z" fill="white"/>
<g opacity="0.15">
<path d="M75.1921 183.974C75.0346 183.675 74.8153 183.412 74.5488 183.204C74.2822 182.995 73.9744 182.846 73.6457 182.765C73.3169 182.684 72.9748 182.674 72.6419 182.735C72.3089 182.796 71.9928 182.927 71.7142 183.119C70.5039 183.877 69.9892 185.558 69.8709 186.906C69.7318 188.483 70.9491 191.818 70.9491 191.818C70.9491 191.818 72.9106 190.352 73.0358 190.248C74.3296 188.983 76.0964 185.787 75.1921 183.974Z" fill="black"/>
<path d="M56.0011 201.586C56.3071 201.177 56.5784 200.808 56.6132 200.753C57.5314 199.196 58.38 195.653 57.0306 194.139C56.7999 193.894 56.5203 193.702 56.21 193.573C55.8997 193.444 55.5657 193.381 55.2297 193.39C54.8937 193.398 54.5633 193.477 54.2599 193.622C53.9566 193.767 53.6872 193.973 53.4692 194.229C52.5023 195.278 52.4467 197.008 52.6901 198.363C52.9336 199.718 54.4986 202.052 54.9229 202.663L54.0187 203.567C52.6275 204.956 51.2364 206.401 49.8452 207.735C49.9625 208.002 50.0997 208.26 50.2556 208.506L50.3182 208.451C51.7094 207.019 53.1423 205.526 54.5473 204.039L55.8481 202.691C55.9941 202.927 57.7192 205.72 58.9851 206.561C60.105 207.311 61.7674 207.95 63.096 207.492C63.417 207.392 63.7135 207.225 63.9662 207.004C64.2189 206.782 64.4222 206.51 64.5631 206.205C64.704 205.9 64.7794 205.568 64.7843 205.232C64.7891 204.897 64.7235 204.563 64.5915 204.254C63.7359 202.42 60.1398 201.795 58.3313 202.017C58.1991 202.017 56.3697 202.469 55.9107 202.608C56.8636 201.614 57.8235 200.635 58.8043 199.711C60.1207 198.455 61.5146 197.283 62.9777 196.202C63.0473 196.313 64.8419 199.238 66.1357 200.1C67.2556 200.85 68.918 201.489 70.2466 201.031C70.5682 200.931 70.8654 200.765 71.1187 200.544C71.372 200.322 71.5758 200.05 71.7168 199.745C71.8579 199.439 71.933 199.108 71.9373 198.772C71.9417 198.435 71.8751 198.102 71.742 197.793C70.8865 195.959 67.2903 195.334 65.4818 195.556C65.3427 195.556 63.3951 196.049 63.0264 196.16C63.1099 196.098 63.1934 196.021 63.2838 195.966C64.7902 194.924 66.3871 194.02 68.0555 193.263C68.9736 192.839 69.8709 192.478 70.7543 192.151C71.0326 192.728 72.3402 195.354 73.4114 196.265C74.4826 197.175 76.006 197.953 77.3971 197.654C77.7282 197.591 78.0422 197.459 78.3186 197.266C78.5951 197.073 78.8279 196.825 79.0018 196.536C79.1757 196.248 79.2868 195.926 79.3279 195.592C79.369 195.258 79.3392 194.919 79.2404 194.597C78.5935 192.68 75.0669 191.665 73.2793 191.693C73.1819 191.693 72.1803 191.811 71.4569 191.915C71.8603 191.769 72.2707 191.617 72.6533 191.491C74.107 190.998 75.4356 190.644 76.6737 190.338C77.3693 190.164 77.9883 190.026 78.5726 189.9C79.143 190.331 81.4593 191.985 82.8087 192.318C84.1581 192.652 85.8901 192.624 86.9822 191.7C87.2457 191.492 87.4625 191.231 87.6183 190.933C87.774 190.636 87.8654 190.309 87.8864 189.974C87.9074 189.639 87.8576 189.304 87.7401 188.99C87.6227 188.675 87.4403 188.389 87.2048 188.15C85.7441 186.76 82.1618 187.455 80.569 188.309C80.4298 188.379 78.4127 189.782 78.4405 189.803H78.4753C77.9049 189.907 77.2997 190.032 76.6459 190.178C75.4286 190.463 74.0583 190.79 72.5907 191.248C71.0022 191.722 69.4437 192.291 67.9233 192.95C66.2268 193.682 64.5975 194.561 63.0543 195.577L62.9986 195.618C63.3742 195.153 64.3898 193.826 64.4315 193.722C65.3497 192.158 66.2052 188.615 64.8558 187.101C64.6245 186.856 64.3443 186.663 64.0335 186.534C63.7226 186.405 63.388 186.343 63.0515 186.351C62.715 186.36 62.384 186.439 62.0801 186.584C61.7762 186.728 61.5061 186.935 61.2875 187.191C60.3276 188.24 60.265 189.97 60.5084 191.325C60.7867 192.825 62.6717 195.528 62.8247 195.743C61.2718 196.819 59.7938 197.998 58.4008 199.273C57.594 200.044 56.7941 200.808 56.0011 201.586Z" fill="black"/>
<path d="M49.3722 202.302V205.519C49.3715 205.887 49.4064 206.255 49.4765 206.616C49.8869 205.136 50.0121 203.393 49.3722 202.302Z" fill="black"/>
<path d="M79.3169 139.134C81.1393 136.535 83.1287 130.449 80.9794 127.614C80.6092 127.153 80.1459 126.776 79.6197 126.506C79.0934 126.236 78.5161 126.079 77.9254 126.047C77.3347 126.015 76.7438 126.108 76.1913 126.319C75.6389 126.53 75.1372 126.856 74.7191 127.274C72.8828 128.976 72.535 132.047 72.7785 134.402C73.0637 137.181 76.2564 142.531 76.2564 142.531C76.2564 142.531 79.1569 139.384 79.3169 139.134Z" fill="black"/>
<path d="M103.134 130.908C100.163 128.962 94.2162 131.366 91.7469 133.353C91.5382 133.527 88.5055 136.605 88.5681 136.632H88.6307C87.6917 137.001 86.69 137.411 85.598 137.883C83.5947 138.765 81.341 139.78 78.9552 141.051C76.375 142.393 73.8759 143.884 71.4707 145.519C68.7648 147.33 66.2273 149.381 63.8889 151.646L63.8055 151.73C64.2993 150.813 65.5792 148.2 65.6557 147.992C66.7269 145.004 67.0469 138.606 64.2158 136.445C63.7397 136.093 63.194 135.847 62.6152 135.722C62.0363 135.597 61.4375 135.597 60.8585 135.721C60.2796 135.846 59.7337 136.091 59.2572 136.443C58.7806 136.794 58.3844 137.242 58.0947 137.758C56.7731 139.891 57.2531 142.941 58.0947 145.15C59.0546 147.638 63.2003 151.688 63.5342 152.015C61.21 154.376 59.0465 156.889 57.0583 159.539C55.8898 161.074 54.7629 162.665 53.65 164.263C54.0465 163.457 54.4012 162.735 54.436 162.624C55.5072 159.643 55.8272 153.244 52.9962 151.084C52.4877 150.689 51.8899 150.426 51.2554 150.317C50.621 150.208 49.9695 150.256 49.3583 150.458V163.464C50.4921 164.805 51.6676 165.993 52.1406 166.473C51.7232 167.091 51.2989 167.702 50.8816 168.328L49.3513 170.6V173.017C50.2069 171.683 51.0694 170.349 51.925 169.009C52.5162 168.085 53.1144 167.174 53.7126 166.229C54.0395 166.591 57.9417 170.843 60.3971 171.885C62.5812 172.809 65.6209 173.386 67.7981 172.135C68.323 171.862 68.7839 171.481 69.1502 171.017C69.5164 170.553 69.7796 170.016 69.9224 169.442C70.0651 168.869 70.0841 168.271 69.9781 167.69C69.8721 167.109 69.6435 166.556 69.3075 166.07C67.2207 163.186 60.8284 163.291 57.8026 164.256C57.58 164.326 54.5682 165.681 53.8239 166.063C55.1385 164.041 56.474 162.04 57.8652 160.123C59.734 157.519 61.7718 155.04 63.9654 152.702C64.1185 152.869 68.1389 157.323 70.6847 158.393C72.8619 159.317 75.9016 159.893 78.0787 158.643C78.6043 158.371 79.0658 157.99 79.4328 157.526C79.7997 157.062 80.0637 156.525 80.2071 155.952C80.3505 155.378 80.3701 154.781 80.2646 154.199C80.1591 153.617 79.9309 153.064 79.5951 152.577C77.5084 149.694 71.109 149.798 68.0902 150.764C67.8537 150.833 64.6123 152.299 64.0489 152.605C64.1811 152.466 64.2993 152.313 64.4245 152.181C66.6876 149.899 69.1479 147.82 71.7768 145.97C73.2166 144.928 74.6565 144.018 76.0685 143.191C76.7641 144.101 79.8455 148.214 82.0018 149.444C84.1581 150.674 87.0239 151.528 89.3263 150.507C89.8784 150.294 90.3788 149.966 90.7943 149.545C91.2098 149.123 91.5308 148.619 91.736 148.064C91.9413 147.51 92.0261 146.918 91.9848 146.328C91.9435 145.738 91.777 145.164 91.4965 144.643C89.7575 141.544 83.3721 140.94 80.2629 141.572C80.089 141.607 78.4126 142.149 77.1954 142.559C77.8353 142.184 78.4961 141.781 79.1221 141.433C81.4662 140.113 83.6921 139.05 85.6675 138.126C86.8013 137.612 87.8308 137.167 88.8046 136.737C89.9245 137.279 94.4735 139.432 96.9011 139.516C99.3287 139.599 102.313 139.036 103.857 137.084C104.242 136.642 104.53 136.125 104.703 135.566C104.876 135.007 104.93 134.418 104.862 133.836C104.794 133.255 104.605 132.694 104.308 132.189C104.01 131.685 103.61 131.249 103.134 130.908Z" fill="black"/>
<path d="M49.3722 179.041V186.795C49.5681 186.91 49.7701 187.014 49.9773 187.108C52.1615 188.032 55.2011 188.608 57.3783 187.358C57.9033 187.085 58.3642 186.704 58.7304 186.24C59.0966 185.775 59.3599 185.239 59.5026 184.665C59.6453 184.092 59.6643 183.494 59.5583 182.913C59.4523 182.331 59.2237 181.779 58.8877 181.292C57.2044 178.944 52.6414 178.569 49.3722 179.041Z" fill="black"/>
<path d="M50.9303 209.409C51.4579 209.97 52.0949 210.416 52.802 210.721C53.509 211.025 54.2711 211.182 55.0412 211.181H56.8149C55.6324 209.729 52.5719 209.222 50.9303 209.409Z" fill="black"/>
<path d="M251.744 122.362C251.821 122.362 248.607 118.193 248.37 117.943C245.679 115.164 238.841 111.419 234.96 113.344C232.177 114.733 231.537 118.207 233.13 120.729C234.723 123.251 238.347 124.425 241.227 124.669C244.6 124.96 251.744 122.362 251.744 122.362Z" fill="black"/>
<path d="M295.976 205.352V202.518C294.689 201.885 293.354 201.253 291.983 200.614C292.585 198.518 293.061 196.388 293.409 194.236C294.28 194.142 295.14 193.962 295.976 193.701V184.669C294.127 183.769 292.144 183.176 290.105 182.911C289.812 182.672 289.498 182.461 289.166 182.279C286.544 180.841 283.108 181.688 281.897 184.558C280.214 188.539 284.388 195.125 287.316 197.647C287.483 197.793 289.542 199.197 290.849 200.065C290.001 199.669 289.187 199.28 288.304 198.891C286.579 198.106 284.826 197.369 282.948 196.57L280.165 195.5C279.24 195.125 278.218 194.847 277.23 194.507C274.942 193.777 272.577 193.117 270.191 192.562C270.886 191.047 273.23 185.614 273.251 182.738C273.272 179.861 272.479 176.179 270.059 174.324C267.638 172.469 264.16 172.83 262.526 175.477C260.251 179.16 263.381 186.302 265.892 189.241C266.045 189.421 268.083 191.325 269.224 192.346C267.784 192.006 266.351 191.651 264.884 191.367C260.64 190.512 256.328 189.782 252.022 189.032C250.708 188.803 249.393 188.56 248.085 188.337C248.336 187.802 251.278 181.424 251.292 178.187C251.292 175.304 250.527 171.621 248.099 169.773C247.544 169.316 246.898 168.982 246.205 168.791C245.511 168.601 244.785 168.559 244.074 168.667C243.363 168.776 242.683 169.034 242.079 169.423C241.474 169.812 240.959 170.325 240.566 170.927C238.298 174.609 241.422 181.751 243.933 184.683C244.127 184.905 247.063 187.636 247.842 188.296C244.948 187.768 242.075 187.212 239.258 186.552C235.455 185.68 231.712 184.563 228.053 183.21C228.171 182.96 231.273 176.318 231.294 172.997C231.294 170.114 230.522 166.438 228.094 164.583C227.539 164.128 226.894 163.794 226.201 163.604C225.509 163.414 224.784 163.373 224.073 163.481C223.363 163.59 222.684 163.847 222.08 164.236C221.476 164.624 220.961 165.136 220.568 165.737C218.294 169.419 221.424 176.561 223.935 179.493C224.13 179.722 227.294 182.661 227.907 183.154C227.691 183.078 227.461 183.015 227.253 182.932C223.624 181.47 220.132 179.689 216.819 177.61C214.976 176.485 213.272 175.304 211.644 174.136C212.339 172.955 215.504 167.536 215.852 164.549C216.186 161.686 215.817 157.948 213.605 155.836C211.393 153.724 207.909 153.703 205.996 156.163C203.332 159.567 205.655 167.015 207.825 170.204C207.943 170.378 209.342 172.01 210.378 173.185C209.648 172.636 208.889 172.087 208.201 171.552C205.62 169.544 203.38 167.543 201.412 165.757C200.299 164.736 199.325 163.784 198.4 162.888C198.49 161.374 198.769 155.246 197.704 152.467C196.64 149.688 194.623 146.624 191.688 145.769C188.752 144.914 185.643 146.464 185.08 149.556C184.294 153.808 189.782 159.345 193.183 161.172C193.482 161.332 198.358 163.256 198.365 163.201C198.372 163.145 198.365 163.131 198.365 163.11C199.228 163.993 200.16 164.924 201.196 165.924C203.13 167.758 205.37 169.815 207.881 171.885C210.604 174.146 213.456 176.248 216.423 178.18C219.725 180.361 223.217 182.242 226.856 183.801L226.988 183.849C225.729 183.731 222.189 183.523 221.911 183.537C218.057 183.738 210.719 186.406 209.613 190.581C209.448 191.281 209.433 192.007 209.567 192.712C209.702 193.418 209.984 194.088 210.395 194.677C210.805 195.267 211.336 195.764 211.951 196.135C212.567 196.507 213.253 196.745 213.967 196.834C216.986 197.314 220.193 195.348 222.272 193.361C224.616 191.103 227.218 184.551 227.427 184.03C231.187 185.533 235.045 186.781 238.973 187.768C241.255 188.351 243.564 188.872 245.887 189.366C244.795 189.296 243.801 189.248 243.675 189.254C239.815 189.463 232.483 192.124 231.377 196.299C230.578 199.315 232.769 202.08 235.732 202.552C238.695 203.025 241.957 201.065 244.037 199.078C246.117 197.091 248.475 191.506 249.073 190.047L251.751 190.588C256.043 191.436 260.327 192.263 264.508 193.194C265.983 193.527 267.422 193.889 268.862 194.278C267.888 194.222 267.068 194.18 266.942 194.187C263.089 194.389 255.751 197.057 254.645 201.232C253.845 204.241 256.036 207.013 258.999 207.485C261.962 207.958 265.259 205.998 267.304 204.011C269.349 202.024 271.512 196.98 272.236 195.229C273.697 195.653 275.164 196.084 276.562 196.563C277.508 196.911 278.447 197.182 279.379 197.585L282.162 198.71C283.894 199.495 285.688 200.294 287.358 201.1C288.526 201.649 289.625 202.198 290.738 202.747C289.277 202.399 286.398 201.781 286.147 201.76C282.308 201.378 274.649 202.9 272.931 206.867C272.625 207.566 272.491 208.328 272.541 209.09C272.59 209.852 272.822 210.59 273.217 211.244H285.334C287.886 209.16 291.072 203.817 291.482 203.115C293.041 203.831 294.585 204.595 295.976 205.352Z" fill="black"/>
<path d="M289.382 165.243C289.382 165.479 290.077 168.189 290.446 169.669C289.431 168.592 288.429 167.515 287.365 166.459C284.304 163.409 281.104 160.421 277.933 157.427C276.959 156.51 275.999 155.586 275.039 154.648C275.54 154.335 281.515 150.639 283.323 147.943C284.93 145.553 286.307 142.052 285.306 139.169C284.304 136.285 281.216 134.666 278.35 135.98C274.427 137.8 273.091 145.477 273.564 149.312C273.599 149.597 274.538 153.481 274.83 154.474C272.744 152.446 270.615 150.396 268.633 148.298C265.964 145.476 263.48 142.484 261.197 139.342C261.433 139.203 267.687 135.368 269.544 132.61C271.144 130.213 272.528 126.718 271.526 123.835C270.525 120.952 267.429 119.333 264.605 120.646C260.675 122.466 259.34 130.144 259.813 133.979C259.854 134.277 260.863 138.474 261.107 139.217C260.974 139.037 260.814 138.856 260.682 138.675C258.465 135.453 256.535 132.043 254.916 128.483C253.998 126.524 253.233 124.606 252.523 122.716C253.761 122.126 259.388 119.347 261.329 117.047C263.27 114.748 264.946 111.489 264.271 108.543C263.597 105.597 260.696 103.617 257.74 104.611C253.636 106 251.48 113.476 251.48 117.339C251.48 117.547 251.744 119.68 251.96 121.223C251.654 120.368 251.327 119.493 251.048 118.666C250.005 115.567 249.24 112.67 248.586 110.093C248.224 108.627 247.925 107.314 247.661 106.042C248.572 104.826 252.175 99.8795 252.822 97.0101C253.469 94.1408 253.518 90.4446 251.508 88.1102C249.497 85.7758 246.068 85.3867 243.905 87.6308C240.9 90.7434 242.423 98.3858 244.246 101.79C244.406 102.082 247.397 106.396 247.445 106.334L247.501 106.264C247.737 107.473 247.995 108.766 248.308 110.169C248.913 112.767 249.616 115.727 250.596 118.826C251.616 122.208 252.833 125.528 254.241 128.768C255.799 132.401 257.677 135.889 259.854 139.189C259.885 139.225 259.912 139.262 259.938 139.301C258.95 138.509 256.119 136.383 255.883 136.244C252.551 134.291 244.962 132.464 241.728 135.34C241.2 135.834 240.783 136.433 240.504 137.099C240.224 137.765 240.089 138.482 240.107 139.204C240.125 139.925 240.295 140.635 240.607 141.286C240.918 141.938 241.364 142.516 241.915 142.983C244.169 145.067 247.925 145.164 250.763 144.643C253.97 144.06 259.757 140.023 260.216 139.704C262.518 143.016 265.037 146.172 267.756 149.152C269.335 150.896 270.977 152.626 272.625 154.294C271.756 153.634 270.963 153.05 270.845 152.98C267.513 151.028 259.924 149.208 256.697 152.084C254.366 154.169 254.672 157.642 256.877 159.727C259.082 161.811 262.894 161.908 265.732 161.387C268.57 160.866 273.613 157.524 274.928 156.621L276.861 158.553C279.978 161.623 283.122 164.673 286.064 167.751C287.107 168.842 288.102 169.947 289.097 171.051C288.318 170.468 287.657 169.981 287.546 169.919C284.214 167.967 276.625 166.146 273.397 169.023C271.067 171.107 271.373 174.581 273.578 176.63C275.783 178.68 279.595 178.819 282.433 178.298C285.271 177.777 289.827 174.754 291.392 173.691C292.38 174.852 293.368 176.012 294.272 177.165C294.842 177.943 295.44 178.659 295.976 179.458V175.984C295.955 175.96 295.937 175.935 295.92 175.908C294.411 174.032 292.79 172.205 291.114 170.405C292.795 169.349 294.42 168.205 295.983 166.98V151.487C295.354 151.515 294.738 151.666 294.167 151.931C290.244 153.724 288.909 161.408 289.382 165.243Z" fill="black"/>
<path d="M133.781 210.201C132.752 209.569 131.799 208.909 130.887 208.249C131.284 207.554 133.051 204.56 133.245 202.885C133.44 201.211 133.245 199.189 131.986 198.022C131.705 197.735 131.366 197.511 130.992 197.363C130.617 197.215 130.216 197.148 129.814 197.165C129.412 197.182 129.018 197.283 128.658 197.462C128.298 197.641 127.979 197.893 127.723 198.203C126.234 200.113 127.535 204.275 128.752 206.06C128.815 206.158 129.601 207.075 130.143 207.728C129.733 207.422 129.308 207.117 128.926 206.818C127.479 205.692 126.227 204.574 125.128 203.573C124.502 203.003 123.953 202.469 123.445 201.968C123.493 201.121 123.646 197.702 123.062 196.153C122.478 194.604 121.337 192.888 119.696 192.408C119.316 192.282 118.914 192.237 118.516 192.275C118.117 192.313 117.731 192.434 117.383 192.631C117.034 192.827 116.73 193.094 116.491 193.415C116.252 193.736 116.083 194.103 115.995 194.493C115.557 196.869 118.631 199.967 120.53 200.996C120.697 201.086 123.424 202.17 123.431 202.128V202.079C123.918 202.573 124.439 203.094 125.017 203.657C126.102 204.678 127.333 205.824 128.759 206.984C130.28 208.255 131.876 209.434 133.538 210.514L134.581 211.16H135.437C134.894 210.861 134.324 210.535 133.781 210.201Z" fill="black"/>
<path d="M130.428 208.312C130.428 208.277 127.646 207.325 127.486 207.29C125.399 206.832 121.024 207.186 119.835 209.277C119.503 209.853 119.398 210.532 119.542 211.181H128.015C128.876 210.274 129.682 209.316 130.428 208.312Z" fill="black"/>
<path d="M167.989 198.884C167.44 198.369 166.904 197.848 166.369 197.334C166.647 197.16 169.993 195.09 171.001 193.582C171.898 192.242 172.671 190.289 172.114 188.67C171.995 188.287 171.796 187.932 171.531 187.631C171.265 187.329 170.939 187.086 170.574 186.918C170.208 186.751 169.812 186.661 169.41 186.657C169.007 186.652 168.609 186.732 168.24 186.892C166.042 187.906 165.297 192.207 165.562 194.347C165.562 194.506 166.104 196.688 166.257 197.237C165.068 196.104 163.899 194.958 162.779 193.763C161.284 192.178 159.89 190.5 158.606 188.74C158.738 188.663 162.237 186.517 163.273 184.974C164.171 183.633 164.943 181.674 164.379 180.062C164.261 179.679 164.063 179.325 163.798 179.023C163.533 178.721 163.208 178.478 162.844 178.309C162.479 178.141 162.083 178.051 161.681 178.045C161.279 178.04 160.881 178.119 160.512 178.277C158.314 179.298 157.563 183.599 157.827 185.739C157.827 185.905 158.418 188.254 158.522 188.67L158.286 188.365C157.044 186.562 155.964 184.653 155.058 182.661C154.544 181.57 154.119 180.493 153.723 179.437C154.419 179.104 157.563 177.554 158.648 176.269C159.733 174.984 160.672 173.17 160.296 171.51C160.22 171.115 160.062 170.74 159.831 170.41C159.6 170.08 159.303 169.802 158.958 169.594C158.613 169.387 158.228 169.254 157.828 169.204C157.428 169.155 157.023 169.19 156.637 169.307C154.342 170.079 153.16 174.268 153.16 176.429C153.16 176.547 153.306 177.735 153.424 178.603C153.257 178.124 153.069 177.638 152.916 177.172C152.332 175.442 151.901 173.816 151.525 172.378C151.323 171.551 151.156 170.808 151.003 170.106C151.511 169.412 153.535 166.632 153.897 165.048C154.259 163.464 154.265 161.373 153.16 160.067C152.91 159.751 152.597 159.492 152.241 159.305C151.885 159.118 151.493 159.008 151.092 158.983C150.69 158.957 150.288 159.016 149.91 159.157C149.533 159.297 149.19 159.515 148.903 159.796C147.219 161.54 148.075 165.82 149.097 167.723C149.181 167.883 150.857 170.301 150.885 170.266V170.224C151.01 170.919 151.156 171.614 151.337 172.413C151.671 173.865 152.067 175.498 152.617 177.276C153.188 179.166 153.866 181.022 154.648 182.834C155.524 184.87 156.576 186.825 157.792 188.677L157.841 188.74C157.291 188.295 155.705 187.107 155.573 187.031C153.709 185.933 149.459 184.946 147.651 186.524C147.359 186.8 147.128 187.134 146.974 187.505C146.82 187.876 146.745 188.275 146.755 188.676C146.765 189.078 146.859 189.473 147.031 189.835C147.203 190.198 147.45 190.521 147.755 190.783C149.014 191.936 151.121 192.005 152.707 191.714C154.502 191.387 157.736 189.129 157.994 188.934C159.281 190.789 160.692 192.555 162.216 194.222C163.099 195.201 164.018 196.153 164.95 197.098C164.463 196.73 164.018 196.403 163.955 196.368C162.084 195.271 157.841 194.284 156.032 195.861C155.741 196.138 155.51 196.472 155.356 196.843C155.202 197.213 155.127 197.612 155.137 198.014C155.147 198.415 155.241 198.81 155.413 199.173C155.585 199.536 155.832 199.859 156.137 200.12C157.396 201.273 159.503 201.343 161.089 201.051C162.675 200.759 165.499 198.89 166.236 198.383L167.322 199.467C169.06 201.183 170.799 202.885 172.469 204.615C173.053 205.22 173.61 205.838 174.166 206.463C173.728 206.13 173.359 205.859 173.297 205.824C171.432 204.733 167.189 203.74 165.381 205.324C165.088 205.6 164.857 205.934 164.702 206.305C164.547 206.676 164.472 207.075 164.482 207.477C164.492 207.878 164.586 208.274 164.759 208.636C164.932 208.999 165.179 209.322 165.485 209.583C166.744 210.736 168.845 210.806 170.438 210.514C172.031 210.222 174.576 208.527 175.453 207.936C176.002 208.582 176.552 209.236 177.06 209.889C177.366 210.312 177.693 210.701 177.985 211.132H179.459L179.042 210.549C178.729 210.09 178.346 209.645 177.978 209.159C177.136 208.11 176.232 207.075 175.293 206.074C176.086 205.581 178.854 203.782 179.758 202.434C180.663 201.086 181.428 199.134 180.871 197.522C180.752 197.138 180.553 196.784 180.288 196.482C180.023 196.18 179.697 195.937 179.332 195.768C178.967 195.6 178.57 195.51 178.168 195.505C177.766 195.499 177.367 195.578 176.997 195.736C174.799 196.758 174.048 201.058 174.319 203.198C174.319 203.33 174.695 204.852 174.91 205.678C174.347 205.074 173.783 204.469 173.185 203.879C171.544 202.253 169.756 200.579 167.989 198.884Z" fill="black"/>
<path d="M153.076 210.521C153.076 208.909 152.645 206.853 151.288 205.811C150.977 205.557 150.616 205.371 150.228 205.266C149.84 205.16 149.434 205.137 149.037 205.198C148.64 205.259 148.26 205.403 147.921 205.619C147.583 205.836 147.294 206.122 147.073 206.457C146.336 207.659 146.621 209.514 147.268 211.181H153.013C153.05 210.963 153.071 210.742 153.076 210.521Z" fill="black"/>
<path d="M194.422 183.14C197.204 184.398 200.821 183.342 203.353 181.959C206.33 180.34 210.851 174.247 210.851 174.24C210.851 174.233 205.899 172.482 205.551 172.413C201.774 171.593 193.997 172.225 191.82 175.963C191.48 176.598 191.277 177.297 191.224 178.015C191.172 178.733 191.272 179.454 191.518 180.132C191.763 180.809 192.148 181.426 192.649 181.945C193.149 182.463 193.753 182.87 194.422 183.14Z" fill="black"/>
<path d="M187.403 207.221C187.228 206.859 186.979 206.538 186.671 206.28C186.364 206.021 186.005 205.829 185.618 205.718C185.232 205.606 184.826 205.577 184.428 205.633C184.03 205.688 183.647 205.827 183.306 206.04C181.957 206.936 181.477 209.187 181.477 211.195H187.466C187.968 209.913 187.946 208.486 187.403 207.221Z" fill="black"/>
<path d="M147.442 180.577C149.327 180.736 153.327 179.284 153.327 179.284C153.327 179.284 151.567 176.943 151.442 176.811C149.932 175.262 146.107 173.156 143.936 174.233C143.576 174.421 143.26 174.684 143.009 175.003C142.757 175.322 142.577 175.691 142.48 176.086C142.382 176.48 142.37 176.89 142.444 177.29C142.517 177.689 142.675 178.068 142.907 178.402C143.818 179.812 145.828 180.438 147.442 180.577Z" fill="black"/>
<path d="M163.572 208.374C163.261 208.119 162.9 207.933 162.512 207.827C162.124 207.721 161.718 207.697 161.32 207.758C160.923 207.819 160.543 207.963 160.204 208.18C159.866 208.398 159.577 208.684 159.357 209.02C158.999 209.681 158.853 210.435 158.94 211.181H165.165C164.978 210.089 164.414 209.096 163.572 208.374Z" fill="black"/>
<path d="M141.884 207.617C141.884 206.005 141.453 203.948 140.097 202.913C139.786 202.657 139.425 202.47 139.037 202.363C138.649 202.256 138.242 202.233 137.844 202.294C137.446 202.355 137.066 202.499 136.728 202.717C136.389 202.935 136.101 203.222 135.881 203.559C134.629 205.588 136.313 209.5 137.711 211.202H140.973C141.458 210.06 141.765 208.851 141.884 207.617Z" fill="black"/>
<path d="M50.1791 61.4034C50.7007 60.5558 51.2433 59.7777 51.7858 59.0273C52.3284 59.3538 54.8186 60.8059 56.1958 60.9657C57.5731 61.1255 59.2355 60.9657 60.2024 59.9305C60.4356 59.7004 60.618 59.4242 60.738 59.1195C60.858 58.8148 60.9129 58.4884 60.8991 58.1613C60.8854 57.8342 60.8033 57.5135 60.6581 57.22C60.513 56.9264 60.308 56.6664 60.0563 56.4567C58.4912 55.2339 55.062 56.3038 53.5944 57.2973C53.5178 57.3529 52.7666 57.9921 52.2032 58.4715C52.4536 58.138 52.704 57.7767 52.9544 57.471C53.8795 56.283 54.7977 55.2547 55.6185 54.3515C56.0915 53.8444 56.5297 53.3928 56.9401 52.962C57.6357 53.0037 60.4528 53.1287 61.7257 52.6494C62.9986 52.17 64.4106 51.2598 64.8071 49.8703C64.91 49.557 64.9457 49.2256 64.9119 48.8976C64.878 48.5696 64.7754 48.2524 64.6107 47.9667C64.446 47.6809 64.2229 47.433 63.9559 47.2391C63.689 47.0451 63.3841 46.9096 63.0612 46.8411C61.1066 46.4798 58.5538 49.0018 57.7122 50.5581C57.6426 50.6971 56.7453 52.9342 56.7801 52.9412H56.8218C56.4184 53.3372 55.9871 53.7679 55.5281 54.2404C54.6795 55.1297 53.7404 56.144 52.7875 57.3112C51.7426 58.5604 50.774 59.8712 49.8869 61.2367C49.7061 61.5146 49.5252 61.7994 49.3513 62.0912V62.786C49.6365 62.3205 49.9078 61.855 50.1791 61.4034Z" fill="black"/>
<path d="M51.7302 58.652C51.7302 58.652 52.544 56.394 52.5719 56.2411C52.9544 54.5042 52.6623 50.9331 50.9372 49.9396C50.4649 49.6645 49.9059 49.5776 49.3722 49.6964V56.6441C50.1178 57.3593 50.9052 58.0297 51.7302 58.652Z" fill="black"/>
<path d="M59.479 89.4651L60.7519 88.1381C60.8979 88.3744 62.5952 91.1117 63.8333 91.9454C64.9393 92.6819 66.546 93.335 67.8746 92.8556C68.1904 92.7586 68.4821 92.5963 68.7308 92.3791C68.9796 92.162 69.1797 91.8949 69.3182 91.5954C69.4567 91.2958 69.5304 90.9704 69.5345 90.6405C69.5387 90.3106 69.4732 89.9835 69.3423 89.6805C68.5076 87.8741 64.974 87.2627 63.2073 87.4781C63.0751 87.4781 61.2805 87.9297 60.8284 88.0617C61.7674 87.0821 62.7064 86.1233 63.6733 85.2132C64.9738 83.9698 66.3515 82.8096 67.7981 81.7393C67.8676 81.8505 69.6275 84.7199 70.9004 85.5744C72.0063 86.3109 73.6131 86.964 74.9417 86.4846C75.2571 86.3859 75.5482 86.2222 75.7964 86.0042C76.0445 85.7862 76.2442 85.5187 76.3825 85.2189C76.5208 84.9191 76.5946 84.5936 76.5992 84.2636C76.6039 83.9335 76.5392 83.6061 76.4094 83.3026C75.5677 81.5031 72.0342 80.8848 70.2743 81.1071C70.1352 81.1071 68.1876 81.5865 67.8607 81.6976L68.1111 81.5031C69.5913 80.4823 71.1603 79.5963 72.7993 78.8561C73.7036 78.4322 74.5869 78.0849 75.4564 77.7583C75.7277 78.328 77.0076 80.9126 78.0648 81.8019C79.1221 82.6912 80.6107 83.4623 81.981 83.1497C82.3049 83.087 82.6121 82.9571 82.8827 82.7684C83.1533 82.5796 83.3811 82.3363 83.5516 82.054C83.7221 81.7718 83.8313 81.4569 83.8723 81.1299C83.9133 80.8028 83.885 80.4708 83.7895 80.1553C83.1495 78.2724 79.7064 77.272 77.9327 77.2928C77.8353 77.2928 76.8545 77.4179 76.1381 77.5151C76.5346 77.3762 76.938 77.2234 77.3206 77.0983C78.7117 76.6189 80.1029 76.2646 81.2645 75.9658C81.9601 75.7991 82.5513 75.6601 83.1287 75.542C83.6851 75.9589 85.9666 77.6263 87.3021 77.9112C88.6376 78.196 90.3279 78.2169 91.3991 77.3067C91.6551 77.1019 91.8655 76.846 92.0168 76.5554C92.1682 76.2648 92.2572 75.9458 92.2782 75.6189C92.2991 75.292 92.2515 74.9643 92.1385 74.6567C92.0255 74.3492 91.8494 74.0686 91.6217 73.8329C90.1888 72.4434 86.6692 73.1381 85.1041 73.9927C84.9719 74.0691 82.9826 75.4447 83.0174 75.4656C82.4609 75.5768 81.8697 75.6949 81.2228 75.8408C80.0264 76.1187 78.6769 76.4383 77.2371 76.8899C75.6775 77.3576 74.1469 77.9167 72.6532 78.5643C70.976 79.2758 69.3672 80.1385 67.8468 81.1418L67.7911 81.1766C68.1598 80.725 69.1406 79.4258 69.1823 79.3146C70.0796 77.7861 70.9212 74.2984 69.5927 72.8185C69.3666 72.5818 69.0935 72.3949 68.7908 72.2698C68.4882 72.1447 68.1627 72.0841 67.8353 72.092C67.5078 72.0998 67.1857 72.1759 66.8894 72.3154C66.5931 72.4549 66.3293 72.6546 66.1148 72.9019C65.1618 73.9371 65.1062 75.681 65.3497 76.9663C65.6209 78.4392 67.4364 81.0932 67.6242 81.3086C66.098 82.3669 64.6455 83.5275 63.2768 84.7824C62.47 85.4772 61.6839 86.2623 60.9049 87.0265C61.211 86.6235 61.4822 86.2623 61.5101 86.2067C62.4143 84.6782 63.249 81.1905 61.9274 79.7106C61.7007 79.4749 61.4275 79.2888 61.1249 79.1643C60.8224 79.0398 60.4972 78.9796 60.1701 78.9874C59.8429 78.9953 59.521 79.071 59.2248 79.2099C58.9286 79.3487 58.6646 79.5477 58.4495 79.794C57.5035 80.8292 57.4479 82.5731 57.6844 83.8584C57.9209 85.1437 59.465 87.4781 59.8754 88.0825L58.9921 88.9718C57.6009 90.3961 56.2097 91.8343 54.756 93.196C54.2552 93.6754 53.7474 94.127 53.2396 94.5856L53.7613 93.8908C54.6586 92.3623 55.4933 88.8746 54.1717 87.3947C53.9456 87.158 53.6725 86.9711 53.3698 86.846C53.0672 86.7209 52.7417 86.6603 52.4143 86.6682C52.0868 86.676 51.7647 86.7521 51.4684 86.8916C51.1721 87.0311 50.9083 87.2308 50.6938 87.4781C49.7409 88.5133 49.6852 90.2572 49.9217 91.5425C50.1582 92.8278 51.5563 94.9399 52.0084 95.6555C51.4728 96.1071 50.9372 96.5656 50.4016 96.9756C50.0539 97.2326 49.7061 97.4966 49.3792 97.7329V98.9487L49.8591 98.6013C50.2347 98.3442 50.6034 98.0247 50.979 97.7329C51.8485 97.0381 52.6832 96.2947 53.5178 95.5304C53.9213 96.1766 55.4029 98.4485 56.5088 99.1919C57.6148 99.9353 59.2216 100.581 60.5502 100.102C60.8659 100.005 61.1577 99.8427 61.4064 99.6255C61.6551 99.4084 61.8553 99.1413 61.9937 98.8418C62.1322 98.5422 62.2059 98.2168 62.2101 97.8869C62.2142 97.557 62.1487 97.2299 62.0178 96.9269C61.1831 95.1205 57.6426 94.5091 55.8828 94.7245C55.7715 94.7245 54.5264 95.0371 53.8448 95.2178C54.3386 94.7523 54.8325 94.2868 55.3194 93.8283C56.6966 92.3901 58.0878 90.9241 59.479 89.4651Z" fill="black"/>
<path d="M49.9147 77.2371C51.2433 77.2371 52.9336 76.8898 53.7891 75.7712C54.0015 75.5156 54.1572 75.2179 54.2459 74.8977C54.3347 74.5775 54.3543 74.2422 54.3037 73.9139C54.2531 73.5856 54.1333 73.2717 53.9523 72.9931C53.7713 72.7144 53.5331 72.4773 53.2535 72.2974C52.2658 71.6929 50.7425 71.9291 49.3722 72.4572V77.1746C49.5514 77.208 49.7327 77.2289 49.9147 77.2371Z" fill="black"/>
<path d="M52.6414 105.41C52.9389 105.266 53.2027 105.061 53.4156 104.809C53.6285 104.556 53.7857 104.262 53.877 103.944C53.9682 103.627 53.9914 103.294 53.9451 102.967C53.8988 102.64 53.784 102.327 53.6083 102.047C52.9127 100.942 51.0277 100.54 49.3722 100.546V105.452C50.4253 105.866 51.5992 105.851 52.6414 105.41Z" fill="black"/>
<path d="M74.5455 72.617C74.4133 74.1663 75.6097 77.4803 75.6097 77.4803C75.6097 77.4803 77.5365 76.0352 77.6478 75.931C78.9137 74.6943 80.6457 71.554 79.7345 69.7754C79.5794 69.4838 79.3647 69.228 79.1043 69.0246C78.8439 68.8213 78.5435 68.6749 78.2228 68.5949C77.9021 68.515 77.5681 68.5033 77.2425 68.5607C76.917 68.618 76.6071 68.7431 76.3331 68.9278C75.1715 69.6573 74.6637 71.29 74.5455 72.617Z" fill="black"/>
<path d="M51.6815 85.8523C51.8943 85.5971 52.0504 85.2998 52.1396 84.9799C52.2289 84.6601 52.2492 84.3249 52.1992 83.9967C52.1493 83.6684 52.0302 83.3544 51.8498 83.0755C51.6695 82.7965 51.4319 82.559 51.1529 82.3785C50.6108 82.0782 49.9876 81.9566 49.3722 82.0311V87.1376C50.2679 86.9895 51.0842 86.5352 51.6815 85.8523Z" fill="black"/>
<path d="M52.3006 68.0524C53.6291 68.0524 55.3194 67.705 56.175 66.5865C56.3877 66.3313 56.5439 66.034 56.6331 65.7141C56.7223 65.3942 56.7427 65.0591 56.6927 64.7308C56.6427 64.4025 56.5236 64.0886 56.3433 63.8096C56.1629 63.5307 55.9254 63.2931 55.6463 63.1126C53.97 62.0844 50.7773 63.467 49.3861 64.6064V67.2882C50.3129 67.69 51.2957 67.9477 52.3006 68.0524Z" fill="black"/>
</g>
<path d="M290.321 16.9175H55.0412C53.5377 16.9175 52.0957 17.514 51.0326 18.5759C49.9695 19.6378 49.3722 21.0781 49.3722 22.5798V205.519C49.3722 207.02 49.9695 208.461 51.0326 209.523C52.0957 210.584 53.5377 211.181 55.0412 211.181H197.746L214.44 224.145L211.922 211.181H290.321C291.824 211.181 293.266 210.584 294.329 209.523C295.393 208.461 295.99 207.02 295.99 205.519V22.5798C295.99 21.0781 295.393 19.6378 294.329 18.5759C293.266 17.514 291.824 16.9175 290.321 16.9175Z" stroke="black" stroke-width="0.516112" stroke-linecap="round" stroke-linejoin="round"/>
<path d="M240.163 57.186H188.892C186.664 54.3682 183.827 52.091 180.592 50.5254C177.357 48.9598 173.81 48.1465 170.215 48.1465C166.621 48.1465 163.073 48.9598 159.838 50.5254C156.604 52.091 153.766 54.3682 151.539 57.186H100.268C98.6108 57.1969 97.0249 57.8592 95.8532 59.0295C94.6816 60.1998 94.0185 61.7839 94.0076 63.4389V171.128C94.0094 172.789 94.6684 174.382 95.841 175.559C97.0137 176.737 98.6048 177.404 100.268 177.415H240.163C241.826 177.404 243.417 176.737 244.589 175.559C245.762 174.382 246.421 172.789 246.423 171.128V63.4389C246.412 61.7839 245.749 60.1998 244.577 59.0295C243.406 57.8592 241.82 57.1969 240.163 57.186Z" fill="black"/>
<path d="M242.625 54.2681H102.737C99.4525 54.2681 96.7898 56.9276 96.7898 60.2083V167.89C96.7898 171.171 99.4525 173.83 102.737 173.83H242.625C245.91 173.83 248.572 171.171 248.572 167.89V60.2083C248.572 56.9276 245.91 54.2681 242.625 54.2681Z" fill="white" stroke="black" stroke-width="0.516112" stroke-linecap="round" stroke-linejoin="round"/>
<path d="M196.174 68.6984C196.174 73.3404 194.796 77.8783 192.214 81.7379C189.631 85.5975 185.961 88.6056 181.668 90.3818C177.374 92.1579 172.649 92.6222 168.091 91.7161C163.533 90.81 159.346 88.5741 156.06 85.2912C152.774 82.0082 150.537 77.8258 149.631 73.2727C148.725 68.7197 149.192 64.0006 150.971 59.7123C152.751 55.424 155.763 51.7591 159.628 49.1811C163.493 46.6031 168.037 45.2278 172.684 45.2292C175.773 45.2172 178.833 45.8162 181.689 46.9915C184.545 48.1668 187.139 49.8951 189.323 52.0769C191.507 54.2587 193.236 56.8507 194.412 59.7035C195.588 62.5563 196.187 65.6133 196.174 68.6984Z" fill="white" stroke="black" stroke-width="0.516112" stroke-linecap="round" stroke-linejoin="round"/>
<path d="M182.492 65.023C182.494 63.0835 181.919 61.1872 180.841 59.574C179.763 57.9609 178.23 56.7033 176.437 55.9604C174.643 55.2176 172.669 55.0229 170.765 55.4009C168.86 55.779 167.111 56.7128 165.738 58.0842C164.365 59.4556 163.43 61.203 163.051 63.1053C162.673 65.0075 162.868 66.9792 163.611 68.7708C164.355 70.5623 165.614 72.0933 167.229 73.17C168.844 74.2466 170.743 74.8206 172.684 74.8192C175.286 74.8192 177.78 73.7871 179.62 71.95C181.459 70.1128 182.492 67.6211 182.492 65.023Z" fill="black" stroke="black" stroke-width="0.516112" stroke-linecap="round" stroke-linejoin="round"/>
<path d="M187.194 87.1446C183.058 90.3947 177.948 92.1617 172.685 92.1617C167.422 92.1617 162.311 90.3947 158.175 87.1446C158.903 83.8425 160.738 80.8878 163.377 78.7695C166.016 76.6513 169.299 75.4966 172.685 75.4966C176.07 75.4966 179.354 76.6513 181.992 78.7695C184.631 80.8878 186.466 83.8425 187.194 87.1446Z" fill="black" stroke="black" stroke-width="0.516112" stroke-linecap="round" stroke-linejoin="round"/>
<path d="M212.889 118.298H132.48V130.929H212.889V118.298Z" stroke="black" stroke-width="0.516112" stroke-linecap="round" stroke-linejoin="round"/>
<path d="M212.889 142.99H132.48V155.621H212.889V142.99Z" stroke="black" stroke-width="0.516112" stroke-linecap="round" stroke-linejoin="round"/>
<path d="M159.983 108.849V99.1221H161.34V107.869H163.816V108.835L159.983 108.849Z" fill="black"/>
<path d="M167.169 108.96C166.618 108.991 166.071 108.858 165.597 108.578C165.199 108.319 164.902 107.931 164.755 107.48C164.578 106.933 164.496 106.36 164.511 105.785V102.103C164.5 101.54 164.589 100.98 164.776 100.449C164.93 100.015 165.223 99.6436 165.611 99.3934C166.091 99.129 166.635 99.0039 167.183 99.0321C167.727 99.0021 168.268 99.13 168.741 99.4003C169.13 99.6481 169.424 100.02 169.575 100.456C169.76 100.985 169.847 101.543 169.833 102.103V105.785C169.845 106.35 169.758 106.912 169.575 107.446C169.425 107.893 169.132 108.279 168.741 108.543C168.27 108.836 167.722 108.981 167.169 108.96ZM167.169 107.89C167.458 107.914 167.746 107.835 167.982 107.668C168.178 107.51 168.311 107.289 168.358 107.043C168.427 106.735 168.459 106.42 168.455 106.105V101.846C168.459 101.533 168.427 101.22 168.358 100.915C168.308 100.677 168.175 100.465 167.982 100.317C167.741 100.161 167.455 100.088 167.169 100.109C166.88 100.092 166.593 100.164 166.348 100.317C166.151 100.463 166.015 100.676 165.965 100.915C165.897 101.22 165.864 101.533 165.868 101.846V106.105C165.864 106.42 165.897 106.735 165.965 107.043C166.012 107.291 166.148 107.513 166.348 107.668C166.59 107.827 166.88 107.898 167.169 107.87V107.89Z" fill="black"/>
<path d="M173.477 108.974C172.962 108.999 172.451 108.863 172.017 108.585C171.634 108.303 171.355 107.902 171.224 107.445C171.045 106.868 170.96 106.265 170.973 105.66V102.408C170.962 101.794 171.037 101.181 171.196 100.588C171.322 100.129 171.602 99.7268 171.989 99.4486C172.468 99.1596 173.023 99.0216 173.582 99.0526C174.091 99.0284 174.599 99.1336 175.056 99.3583C175.428 99.5628 175.714 99.8929 175.863 100.289C176.045 100.8 176.13 101.339 176.114 101.88V102.242H174.841V101.943C174.847 101.594 174.819 101.245 174.757 100.901C174.721 100.667 174.6 100.454 174.416 100.303C174.175 100.154 173.892 100.086 173.61 100.109C173.293 100.08 172.978 100.177 172.733 100.38C172.543 100.587 172.426 100.85 172.399 101.13C172.353 101.487 172.329 101.847 172.33 102.207V105.785C172.323 106.174 172.358 106.563 172.434 106.945C172.479 107.215 172.617 107.461 172.824 107.64C173.063 107.807 173.353 107.888 173.644 107.869C173.937 107.888 174.227 107.799 174.458 107.619C174.669 107.422 174.808 107.16 174.855 106.876C174.937 106.474 174.975 106.063 174.966 105.653V104.958H173.728V103.999H176.19V108.807H175.335L175.203 107.696C175.086 108.04 174.879 108.347 174.604 108.585C174.288 108.847 173.888 108.985 173.477 108.974Z" fill="black"/>
<path d="M177.651 108.849V99.1221H178.986V108.849H177.651Z" fill="black"/>
<path d="M180.558 108.849V99.1221H181.484L184.266 105.576V99.1221H185.379V108.849H184.509L181.727 102.214V108.849H180.558Z" fill="black"/>
<path d="M245.484 242.105C246.491 242.369 247.532 242.484 248.572 242.445C248.572 242.445 248.106 241.014 248.065 240.924C247.578 239.917 246.061 238.256 244.823 238.423C244.618 238.456 244.422 238.533 244.248 238.647C244.074 238.761 243.926 238.91 243.814 239.085C243.702 239.26 243.628 239.457 243.597 239.662C243.566 239.868 243.578 240.078 243.634 240.278C243.79 240.698 244.037 241.08 244.357 241.396C244.676 241.711 245.061 241.953 245.484 242.105Z" fill="black"/>
<path d="M246.242 248.449C247.273 248.444 248.298 248.284 249.282 247.976C249.607 249.094 250.004 250.189 250.471 251.255C250.742 251.881 251.035 252.499 251.334 253.117L250.965 252.589C250.235 251.749 248.329 250.547 247.174 251.033C246.989 251.121 246.823 251.246 246.688 251.401C246.553 251.556 246.452 251.737 246.391 251.932C246.329 252.128 246.309 252.334 246.331 252.538C246.354 252.742 246.418 252.939 246.52 253.117C246.783 253.482 247.122 253.784 247.513 254.004C247.905 254.223 248.34 254.355 248.788 254.389C249.791 254.389 250.787 254.236 251.744 253.937L252.099 254.632C252.662 255.764 253.233 256.883 253.761 258.002C253.949 258.398 254.116 258.794 254.283 259.19C254.123 258.953 253.991 258.759 253.963 258.731C253.233 257.89 251.327 256.688 250.179 257.182C249.992 257.268 249.825 257.392 249.689 257.547C249.553 257.701 249.451 257.883 249.389 258.079C249.328 258.275 249.308 258.482 249.331 258.687C249.355 258.891 249.421 259.089 249.525 259.266C249.788 259.63 250.126 259.933 250.518 260.152C250.91 260.372 251.345 260.503 251.793 260.537C252.769 260.544 253.741 260.398 254.673 260.107C254.833 260.517 254.992 260.927 255.132 261.329C255.222 261.607 255.326 261.871 255.396 262.149C255.465 262.427 255.549 262.712 255.625 262.983C255.758 263.518 255.89 264.067 256.001 264.588C256.085 264.956 256.154 265.283 256.224 265.651C256.05 265.255 255.674 264.491 255.639 264.435C255.048 263.49 253.344 262.01 252.161 262.351C251.962 262.407 251.776 262.505 251.616 262.637C251.457 262.77 251.327 262.935 251.236 263.121C251.145 263.308 251.094 263.511 251.087 263.718C251.08 263.925 251.116 264.132 251.195 264.324C251.399 264.724 251.687 265.074 252.04 265.351C252.393 265.628 252.803 265.826 253.24 265.929C254.257 266.079 255.29 266.079 256.307 265.929C256.418 266.505 256.53 267.068 256.62 267.603C256.829 268.784 256.989 269.847 257.107 270.744H257.928C257.782 269.813 257.594 268.708 257.351 267.471C257.232 266.881 257.1 266.255 256.954 265.609C257.54 265.378 258.112 265.111 258.665 264.81C259.419 265.456 260.256 265.995 261.155 266.415C260.933 266.957 260.71 267.492 260.46 267.985C260.008 269.027 259.576 269.952 259.201 270.764H260.084C260.411 270.035 260.78 269.208 261.141 268.298C261.371 267.742 261.607 267.145 261.837 266.526C262.837 266.758 263.867 266.838 264.891 266.763C265.335 266.694 265.759 266.529 266.132 266.279C266.506 266.03 266.821 265.701 267.054 265.317C267.146 265.131 267.197 264.928 267.205 264.72C267.213 264.513 267.177 264.306 267.099 264.113C267.022 263.921 266.905 263.747 266.755 263.602C266.606 263.458 266.428 263.346 266.233 263.275C265.051 262.879 263.242 264.22 262.581 265.123C262.54 265.172 262.178 265.818 261.962 266.193C262.053 265.936 262.15 265.693 262.24 265.436C262.428 264.921 262.602 264.4 262.79 263.838C262.873 263.567 262.957 263.296 263.04 263.011C263.124 262.726 263.186 262.441 263.263 262.149C263.423 261.455 263.555 260.76 263.673 260.065C264.597 260.448 265.576 260.682 266.574 260.76C267.023 260.759 267.466 260.66 267.873 260.469C268.279 260.278 268.638 260 268.925 259.655C269.045 259.486 269.127 259.293 269.167 259.09C269.207 258.886 269.204 258.677 269.157 258.475C269.111 258.273 269.022 258.083 268.897 257.918C268.772 257.752 268.613 257.615 268.431 257.515C267.318 256.946 265.329 258.002 264.536 258.787C264.487 258.835 263.979 259.481 263.715 259.815C263.778 259.391 263.847 258.967 263.903 258.543C264.056 257.307 264.174 256.049 264.292 254.792C264.334 254.41 264.376 254.027 264.411 253.645C265.371 254.022 266.381 254.256 267.409 254.34C267.858 254.337 268.302 254.237 268.709 254.046C269.116 253.856 269.477 253.579 269.767 253.235C269.886 253.066 269.969 252.873 270.009 252.67C270.049 252.467 270.045 252.257 269.999 252.055C269.952 251.853 269.863 251.663 269.738 251.498C269.613 251.333 269.455 251.195 269.273 251.096C268.16 250.519 266.17 251.575 265.378 252.36C265.315 252.423 264.591 253.326 264.418 253.562C264.508 252.721 264.605 251.881 264.738 251.061C264.897 249.947 265.13 248.845 265.433 247.761C266.399 248.141 267.417 248.375 268.452 248.455C268.901 248.455 269.344 248.356 269.751 248.165C270.157 247.974 270.516 247.696 270.803 247.351C270.923 247.181 271.005 246.989 271.045 246.785C271.085 246.582 271.082 246.373 271.035 246.171C270.989 245.969 270.9 245.779 270.775 245.613C270.65 245.448 270.491 245.311 270.309 245.211C269.196 244.641 267.207 245.697 266.414 246.482C266.351 246.545 265.572 247.518 265.447 247.705C265.447 247.643 265.447 247.573 265.496 247.511C265.836 246.433 266.274 245.389 266.803 244.391C267.089 243.835 267.388 243.321 267.694 242.828C268.591 243.303 269.555 243.64 270.553 243.828C270.999 243.877 271.451 243.828 271.876 243.684C272.301 243.54 272.69 243.304 273.015 242.995C273.153 242.839 273.256 242.656 273.318 242.457C273.38 242.259 273.4 242.049 273.375 241.843C273.351 241.636 273.284 241.437 273.177 241.259C273.071 241.08 272.928 240.926 272.758 240.806C271.714 240.111 269.621 240.945 268.744 241.64L267.944 242.439C268.083 242.216 268.229 241.987 268.368 241.779C268.89 240.994 269.419 240.306 269.892 239.694C270.163 239.347 270.413 239.048 270.65 238.763C271.66 238.774 272.667 238.631 273.634 238.34C274.052 238.176 274.428 237.923 274.738 237.599C275.048 237.275 275.284 236.888 275.429 236.464C275.479 236.263 275.487 236.053 275.451 235.849C275.416 235.645 275.337 235.45 275.221 235.278C275.105 235.107 274.953 234.961 274.777 234.852C274.601 234.742 274.403 234.671 274.197 234.644C272.952 234.512 271.478 236.214 271.019 237.228C270.984 237.318 270.525 238.763 270.553 238.763C270.323 239.034 270.073 239.319 269.808 239.639C269.321 240.236 268.772 240.917 268.236 241.723C267.641 242.554 267.095 243.42 266.602 244.315C266.046 245.316 265.58 246.364 265.211 247.448C265.211 247.448 265.211 247.448 265.211 247.483C265.211 247.122 265.211 246.093 265.211 246.017C265.064 244.912 264.139 242.863 262.908 242.633C262.703 242.602 262.494 242.614 262.294 242.668C262.094 242.723 261.908 242.819 261.747 242.95C261.586 243.081 261.455 243.244 261.361 243.429C261.268 243.614 261.214 243.816 261.204 244.023C261.22 244.471 261.335 244.911 261.539 245.31C261.743 245.71 262.032 246.06 262.386 246.336C263.245 246.898 264.183 247.329 265.169 247.615C264.82 248.726 264.546 249.858 264.348 251.005C264.23 251.7 264.132 252.353 264.035 253.034C264.035 252.714 264.035 252.43 264.035 252.395C263.889 251.283 262.964 249.234 261.733 249.004C261.528 248.973 261.318 248.985 261.118 249.039C260.918 249.094 260.732 249.19 260.571 249.321C260.411 249.452 260.279 249.615 260.186 249.8C260.092 249.985 260.039 250.187 260.028 250.394C260.046 250.843 260.162 251.282 260.367 251.682C260.573 252.082 260.863 252.432 261.218 252.707C262.057 253.26 262.973 253.684 263.938 253.965L263.833 254.743C263.687 256.001 263.541 257.251 263.36 258.474C263.298 258.905 263.221 259.322 263.145 259.745C263.145 259.468 263.145 259.231 263.145 259.19C262.999 258.085 262.073 256.035 260.842 255.806C260.637 255.775 260.428 255.787 260.228 255.841C260.028 255.896 259.842 255.992 259.681 256.122C259.52 256.253 259.389 256.417 259.296 256.602C259.202 256.786 259.148 256.989 259.138 257.196C259.156 257.645 259.271 258.084 259.477 258.484C259.682 258.883 259.973 259.233 260.328 259.509C261.139 260.05 262.028 260.464 262.964 260.739C262.873 261.17 262.783 261.6 262.679 262.01C262.595 262.295 262.54 262.566 262.442 262.844C262.345 263.122 262.268 263.393 262.178 263.664C261.99 264.178 261.802 264.713 261.6 265.213C261.468 265.561 261.336 265.908 261.204 266.221C261.267 265.79 261.385 264.949 261.385 264.88C261.372 263.902 261.106 262.945 260.613 262.101C260.623 261.992 260.623 261.883 260.613 261.774C260.586 261.568 260.517 261.37 260.408 261.192C260.3 261.015 260.156 260.862 259.984 260.744C259.813 260.626 259.619 260.546 259.414 260.508C259.21 260.47 259 260.475 258.797 260.524C257.594 260.843 256.829 262.962 256.766 264.074C256.766 264.143 256.808 264.859 256.843 265.31C256.78 265.046 256.724 264.789 256.662 264.518C256.537 263.99 256.391 263.455 256.245 262.893L255.994 262.066C255.911 261.788 255.799 261.503 255.702 261.218C255.459 260.565 255.187 259.919 254.895 259.273C255.87 259.066 256.808 258.712 257.677 258.224C258.052 257.976 258.367 257.649 258.602 257.266C258.836 256.883 258.984 256.454 259.034 256.008C259.039 255.8 259.001 255.594 258.922 255.403C258.842 255.211 258.723 255.038 258.572 254.896C258.421 254.754 258.241 254.645 258.045 254.577C257.849 254.508 257.641 254.482 257.434 254.5C256.189 254.632 255.111 256.584 254.888 257.703C254.888 257.772 254.798 258.571 254.77 259.009C254.589 258.627 254.415 258.238 254.22 257.849C253.671 256.73 253.073 255.619 252.481 254.507L251.946 253.479C252.957 253.273 253.93 252.914 254.833 252.416C255.207 252.166 255.522 251.837 255.756 251.453C255.99 251.069 256.138 250.639 256.189 250.192C256.195 249.985 256.156 249.779 256.077 249.587C255.997 249.396 255.878 249.223 255.727 249.081C255.576 248.939 255.396 248.83 255.2 248.761C255.004 248.693 254.796 248.667 254.589 248.685C253.351 248.817 252.273 250.769 252.043 251.888C252.043 251.971 251.925 253.124 251.911 253.416C251.522 252.666 251.139 251.908 250.791 251.151C250.316 250.129 249.907 249.078 249.567 248.004C250.585 247.797 251.565 247.436 252.474 246.934C252.848 246.685 253.163 246.358 253.398 245.975C253.632 245.593 253.78 245.163 253.831 244.718C253.836 244.511 253.798 244.305 253.719 244.114C253.64 243.922 253.521 243.75 253.371 243.607C253.221 243.464 253.043 243.354 252.848 243.285C252.652 243.215 252.445 243.187 252.238 243.203C250.993 243.342 249.915 245.287 249.692 246.406C249.692 246.496 249.56 247.733 249.553 247.962C249.553 247.9 249.511 247.837 249.49 247.775C249.182 246.688 248.97 245.577 248.857 244.454C248.788 243.828 248.76 243.238 248.739 242.654C249.75 242.56 250.74 242.312 251.675 241.918C252.076 241.707 252.427 241.412 252.702 241.052C252.977 240.692 253.17 240.276 253.267 239.833C253.295 239.628 253.279 239.418 253.22 239.219C253.162 239.02 253.062 238.835 252.928 238.677C252.793 238.519 252.627 238.39 252.44 238.3C252.253 238.209 252.049 238.159 251.842 238.152C250.596 238.152 249.303 240 248.962 241.063C248.962 241.119 248.816 241.723 248.732 242.168C248.732 241.904 248.732 241.633 248.732 241.383C248.732 240.438 248.795 239.576 248.857 238.812C248.892 238.374 248.934 237.985 248.976 237.617C249.823 237.069 250.582 236.397 251.229 235.623C251.487 235.256 251.662 234.837 251.742 234.396C251.823 233.954 251.807 233.501 251.695 233.066C251.626 232.87 251.515 232.691 251.371 232.54C251.227 232.39 251.053 232.271 250.86 232.193C250.667 232.114 250.459 232.077 250.251 232.084C250.042 232.091 249.838 232.141 249.65 232.233C248.538 232.809 248.259 235.012 248.433 236.137C248.433 236.235 248.864 237.694 248.885 237.68C248.837 238.034 248.788 238.374 248.746 238.826C248.67 239.59 248.593 240.452 248.572 241.404C248.534 242.423 248.558 243.444 248.642 244.461C248.728 245.603 248.919 246.736 249.212 247.844C249.212 247.844 249.212 247.844 249.212 247.879C249.017 247.573 248.44 246.726 248.391 246.67C247.661 245.822 245.748 244.627 244.601 245.114C244.414 245.201 244.248 245.325 244.113 245.48C243.977 245.635 243.875 245.816 243.814 246.012C243.752 246.208 243.732 246.415 243.755 246.619C243.778 246.823 243.843 247.02 243.947 247.198C244.214 247.562 244.558 247.862 244.955 248.078C245.352 248.295 245.791 248.421 246.242 248.449Z" fill="black"/>
<path d="M267.673 242.584C267.673 242.584 268.076 241.132 268.083 241.035C268.243 239.93 267.888 237.707 266.762 237.165C266.573 237.08 266.367 237.035 266.16 237.035C265.952 237.034 265.747 237.077 265.557 237.161C265.368 237.245 265.198 237.368 265.059 237.522C264.92 237.676 264.815 237.857 264.751 238.055C264.648 238.492 264.643 238.946 264.735 239.386C264.828 239.825 265.016 240.239 265.287 240.597C265.98 241.374 266.784 242.044 267.673 242.584Z" fill="black"/>
<path d="M263.159 269.187H253.852L254.784 290.704H262.233L263.159 269.187Z" fill="black"/>
<path d="M275.025 291.336H154.537V314.653H275.025V291.336Z" fill="white" stroke="black" stroke-width="0.516112" stroke-linecap="round" stroke-linejoin="round"/>
<path d="M275.025 291.336H154.537V299.118H275.025V291.336Z" fill="black" stroke="black" stroke-width="0.516112" stroke-linecap="round" stroke-linejoin="round"/>
<path d="M278.573 291.336H150.989V295.484H278.573V291.336Z" fill="white" stroke="black" stroke-width="0.516112" stroke-linecap="round" stroke-linejoin="round"/>
<path d="M234.32 283.451L219.274 246.045C219.243 245.895 219.179 245.755 219.087 245.633C218.995 245.511 218.877 245.41 218.742 245.339C218.606 245.267 218.457 245.226 218.304 245.219C218.152 245.212 217.999 245.238 217.858 245.296C217.716 245.354 217.589 245.442 217.485 245.555C217.382 245.667 217.304 245.801 217.258 245.947C217.212 246.092 217.199 246.246 217.219 246.398C217.24 246.549 217.293 246.694 217.375 246.823L232.414 284.229C232.6 284.707 232.69 285.217 232.678 285.73C232.676 286.791 232.254 287.809 231.503 288.56C230.752 289.311 229.734 289.735 228.672 289.739H216.638V291.823H228.672C230.288 291.821 231.838 291.178 232.981 290.036C234.123 288.893 234.765 287.345 234.765 285.73C234.766 284.949 234.615 284.175 234.32 283.451Z" fill="black"/>
<path d="M223.71 209.038L219.731 208.64L212.611 279.763L216.59 280.161L223.71 209.038Z" fill="white" stroke="black" stroke-width="0.518686" stroke-linecap="round" stroke-linejoin="round"/>
<path d="M203.297 287.501L164.435 289.21V291.162H203.297V287.501Z" fill="white" stroke="black" stroke-width="0.516112" stroke-linecap="round" stroke-linejoin="round"/>
<path d="M93.8406 284.493L90.1958 314.569H151.755L133.28 305.697C133.28 305.697 135.13 303.113 135.311 301.445C135.492 299.778 130.442 290.69 129.983 289.87L129.573 287.133C129.573 287.133 128.689 274.189 129.197 271.674C129.705 269.159 130.957 263.254 128.439 256.591C125.921 249.928 119.396 238.492 119.396 238.492L99.92 232.837C99.92 232.837 90.9888 245.155 92.6234 258.224C93.6135 266.943 94.0202 275.719 93.8406 284.493Z" fill="#B2B2B2" stroke="black" stroke-width="0.516112" stroke-linecap="round" stroke-linejoin="round"/>
<path d="M151.754 314.569L133.28 305.697L117.949 314.569H151.754Z" fill="black" stroke="black" stroke-width="0.516112" stroke-linecap="round" stroke-linejoin="round"/>
<path d="M133.28 305.697L108.483 312.909" stroke="black" stroke-width="0.516112" stroke-linecap="round" stroke-linejoin="round"/>
<path d="M112.371 309.769L107.189 314.021" stroke="black" stroke-width="0.516112" stroke-linecap="round" stroke-linejoin="round"/>
<path d="M133.377 193.882C134.197 196.216 134.712 198.647 134.908 201.114C135.325 205.581 134.442 208.02 135.561 209.396C136.681 210.771 137.787 211.14 137.133 212.592C136.48 214.044 133.718 215.016 133.718 215.016C133.718 215.016 131.082 220.936 129.496 222.798C127.91 224.66 121.907 222.798 121.907 222.798L119.862 229.155L105.888 222.402L107.697 215.899L104.914 207.395C104.914 207.395 111.3 188.462 133.377 193.882Z" fill="white" stroke="black" stroke-width="0.516112" stroke-linecap="round" stroke-linejoin="round"/>
<path d="M121.914 222.77L118.895 221.151L120.467 226.271L121.914 222.77Z" fill="black" stroke="black" stroke-width="0.516112" stroke-linecap="round" stroke-linejoin="round"/>
<path d="M127.062 214.585C127.062 214.585 128.62 216.67 130.644 216.593" stroke="black" stroke-width="0.516112" stroke-linecap="round" stroke-linejoin="round"/>
<path d="M133.21 206.373C133.106 207.339 132.661 208.09 132.216 208.041C131.771 207.992 131.478 207.172 131.583 206.207C131.687 205.241 132.125 204.498 132.577 204.539C133.03 204.581 133.322 205.408 133.21 206.373Z" fill="black"/>
<path d="M130.915 202.976C130.915 202.976 132.536 200.746 134.094 202.802" stroke="black" stroke-width="0.516112" stroke-linecap="round" stroke-linejoin="round"/>
<path d="M113.804 181.375C113.804 181.375 102.758 180.486 99.7808 187.253C96.8038 194.02 96.7203 203.365 97.9028 206.644C99.0853 209.923 102.772 214.849 104.24 216.267C105.707 217.684 108.163 218.698 110.284 217.774C112.406 216.85 114.972 212.828 115.619 210.243C116.266 207.658 115.883 205.213 116.523 205.157C118.057 205.27 119.599 205.174 121.107 204.872C124.203 204.303 130.435 201.538 133.829 196.834C137.224 192.13 136.612 186.892 135.325 184.863C134.038 182.834 120.259 177.617 113.804 181.375Z" fill="black" stroke="black" stroke-width="0.516112" stroke-linecap="round" stroke-linejoin="round"/>
<path d="M113.63 179.333C113.63 179.333 113.762 181.751 112.239 183.231C110.715 184.711 103.029 187.837 103.029 187.837C103.029 187.837 100.504 193.895 99.5514 195.695C98.5984 197.494 97.5481 197.89 96.3517 197.258C95.1553 196.626 89.6393 193.659 90.008 192.562C90.3767 191.464 91.587 190.7 91.6218 189.192C91.6565 187.684 90.5645 185.92 91.4339 184.877C92.2969 183.938 93.2267 183.063 94.2163 182.258C94.2163 182.258 92.4773 177.027 93.9589 176.165C95.4405 175.304 98.9323 175.797 99.8365 175.637C100.741 175.477 102.076 171.065 106.222 171.371C107.388 171.428 108.522 171.776 109.52 172.383C110.517 172.989 111.347 173.836 111.933 174.845C112.38 174.748 112.847 174.82 113.244 175.048C113.641 175.275 113.939 175.641 114.082 176.075C114.323 177.18 114.163 178.335 113.63 179.333Z" fill="white" stroke="black" stroke-width="0.516112" stroke-linecap="round" stroke-linejoin="round"/>
<path d="M99.8505 175.637L102.939 176.338" stroke="black" stroke-width="0.516112" stroke-linecap="round" stroke-linejoin="round"/>
<path d="M103.147 174.338C103.147 174.338 103.342 176.123 101.805 178.743C100.268 181.362 95.0509 187.775 93.1033 189.47" stroke="black" stroke-width="0.516112" stroke-linecap="round" stroke-linejoin="round"/>
<path d="M94.2579 182.258C95.026 181.478 95.9796 180.906 97.0296 180.595C98.0795 180.284 99.1913 180.244 100.261 180.479" stroke="black" stroke-width="0.516112" stroke-linecap="round" stroke-linejoin="round"/>
<path d="M111.355 175.686C111.355 175.686 106.737 181.153 103.46 184.718C100.184 188.282 95.8926 190.637 95.4822 193.374" stroke="black" stroke-width="0.516112" stroke-linecap="round" stroke-linejoin="round"/>
<path d="M107.731 180.125C107.731 180.125 111.46 177.096 113.63 179.34" stroke="black" stroke-width="0.516112" stroke-linecap="round" stroke-linejoin="round"/>
<path d="M120.259 208.193C120.259 208.193 117.824 202.385 115.264 203.886C112.705 205.387 113.435 211.785 114.645 213.55C115.856 215.315 118.158 213.786 118.158 213.786" fill="white"/>
<path d="M120.259 208.193C120.259 208.193 117.824 202.385 115.264 203.886C112.705 205.387 113.435 211.785 114.645 213.55C115.856 215.315 118.158 213.786 118.158 213.786" stroke="black" stroke-width="0.516112" stroke-linecap="round" stroke-linejoin="round"/>
<path d="M103.6 220.984C103.6 220.984 122.081 225.882 123.229 227.369C124.377 228.856 124.112 230.148 123.479 231.017C122.822 232.264 122.275 233.565 121.845 234.907C121.845 234.907 122.728 237.687 122.227 238.805C121.827 239.455 121.242 239.97 120.547 240.284C119.851 240.599 119.078 240.698 118.325 240.57C116.934 240.195 100.456 234.539 99.8296 234.164C99.2036 233.789 98.9462 230.899 100.205 229.995C101.464 229.092 100.831 230.121 101.464 229.113C102.097 228.106 100.08 221.36 103.6 220.984Z" fill="#B2B2B2" stroke="black" stroke-width="0.516112" stroke-linecap="round" stroke-linejoin="round"/>
<path d="M160.338 275.259C160.338 275.259 169.492 276.44 170.076 276.343C170.66 276.246 173.818 278.601 176.378 280.178C178.938 281.755 179.919 283.027 181.303 284.409C182.687 285.792 184.551 286.494 183.758 287.063C182.965 287.633 182.583 287.654 181.4 287.258C180.218 286.862 178.84 286.376 178.84 286.376C177.983 286.893 176.974 287.101 175.982 286.966C174.342 286.509 172.732 285.949 171.161 285.292C169.646 285.451 168.114 285.35 166.633 284.993C164.762 284.409 160.922 280.866 160.922 280.866L158.655 281.061L157.959 275.85L160.338 275.259Z" fill="white" stroke="black" stroke-width="0.516112" stroke-linecap="round" stroke-linejoin="round"/>
<path d="M171.544 281.359C172.101 281.671 172.629 282.031 173.123 282.436C174.597 283.52 179.912 284.409 178.833 286.376" stroke="black" stroke-width="0.516112" stroke-linecap="round" stroke-linejoin="round"/>
<path d="M187.118 282.2C187.118 282.2 187.285 283.784 187.034 284.201C186.784 284.618 185.873 284.618 185.372 283.618C185.032 282.766 184.834 281.865 184.788 280.95L187.118 282.2Z" fill="white" stroke="black" stroke-width="0.516112" stroke-miterlimit="10"/>
<path d="M185.476 282.006C185.264 282.643 184.942 283.238 184.523 283.763C184.113 284.027 183.292 283.625 183.278 282.506C183.348 281.594 183.569 280.699 183.932 279.859L185.476 282.006Z" fill="white" stroke="black" stroke-width="0.516112" stroke-miterlimit="10"/>
<path d="M187.034 280.616C187.034 280.616 188.704 282.117 188.537 283.618C188.37 285.118 187.201 284.785 186.874 283.784C186.547 282.784 186.179 281.617 186.179 281.617L187.034 280.616Z" fill="white" stroke="black" stroke-width="0.516112" stroke-miterlimit="10"/>
<path d="M158.209 269.368C158.209 269.368 167.774 267.61 170.417 267.86C173.06 268.11 180.482 271.251 181.358 271.751C182.235 272.251 187.403 275.92 187.528 276.906C187.552 277.959 187.466 279.012 187.271 280.047C187.271 280.047 189.789 280.554 188.912 281.679C188.036 282.805 186.13 282.562 185.01 282.186C183.89 281.811 180.225 279.407 179.348 279.046C178.472 278.685 175.321 279.421 172.928 278.664C170.535 277.907 166.765 274.391 166.765 274.391L158.947 276.656L158.209 269.368Z" fill="white" stroke="black" stroke-width="0.516112" stroke-miterlimit="10"/>
<path d="M179.953 272.459C180.996 272.718 181.93 273.302 182.617 274.127C184.009 275.621 187.271 280.046 187.271 280.046C183.675 279.477 180.454 276.038 180.454 276.038" fill="white"/>
<path d="M179.953 272.459C180.996 272.718 181.93 273.302 182.617 274.127C184.009 275.621 187.271 280.046 187.271 280.046C183.675 279.477 180.454 276.038 180.454 276.038" stroke="black" stroke-width="0.516112" stroke-miterlimit="10"/>
<path d="M103.349 244.857C103.349 244.857 99.7043 251.895 101.715 269.493C103.725 287.091 110.757 297.395 114.798 297.52C118.84 297.645 149.021 288.974 152.047 287.21C155.072 285.445 161.089 283.694 161.479 283.569C161.868 283.444 162.87 279.796 161.987 274.898C161.647 272.736 161.183 270.595 160.595 268.486L148.771 270.626L130.783 273.641C130.843 273.292 130.79 272.933 130.631 272.616C130.472 272.3 130.216 272.043 129.899 271.883C128.725 271.35 127.502 270.929 126.248 270.626C126.248 270.626 122.978 248.393 116.183 242.599" fill="#B2B2B2"/>
<path d="M103.349 244.857C103.349 244.857 99.7043 251.895 101.715 269.493C103.725 287.091 110.757 297.395 114.798 297.52C118.84 297.645 149.021 288.974 152.047 287.21C155.072 285.445 161.089 283.694 161.479 283.569C161.868 283.444 162.87 279.796 161.987 274.898C161.647 272.736 161.183 270.595 160.595 268.486L148.771 270.626L130.783 273.641C130.843 273.292 130.79 272.933 130.631 272.616C130.472 272.3 130.216 272.043 129.899 271.883C128.725 271.35 127.502 270.929 126.248 270.626C126.248 270.626 122.978 248.393 116.183 242.599" stroke="black" stroke-width="0.516112" stroke-linecap="round" stroke-linejoin="round"/>
<path d="M126.255 270.625C126.255 270.625 116.064 277.406 112.037 278.164" stroke="black" stroke-width="0.516112" stroke-linecap="round" stroke-linejoin="round"/>
<path d="M113.442 284.104C112.555 284.74 111.625 285.316 110.66 285.827" stroke="black" stroke-width="0.516112" stroke-linecap="round" stroke-linejoin="round"/>
<path d="M124.989 273.516C121.909 276.917 118.567 280.072 114.993 282.951" stroke="black" stroke-width="0.516112" stroke-linecap="round" stroke-linejoin="round"/>
<path d="M126.143 283.208C125.732 283.72 125.265 284.186 124.752 284.597" stroke="black" stroke-width="0.516112" stroke-linecap="round" stroke-linejoin="round"/>
<path d="M130.025 274.773C129.414 277.226 128.456 279.58 127.18 281.762" stroke="black" stroke-width="0.516112" stroke-linecap="round" stroke-linejoin="round"/>
<path d="M152.979 280.554C152.979 281.248 152.979 281.943 152.923 282.687" stroke="black" stroke-width="0.516112" stroke-linecap="round" stroke-linejoin="round"/>
<path d="M150.155 270.875C150.155 270.875 152.241 272.578 152.84 277.997" stroke="black" stroke-width="0.516112" stroke-linecap="round" stroke-linejoin="round"/>
<path d="M91.6773 314.653H80.3463C80.3463 314.653 73.001 285.403 75.9572 262.844C76.0973 261.796 76.6142 260.835 77.4116 260.139C78.2089 259.444 79.2322 259.062 80.2907 259.064C80.8651 259.064 81.434 259.176 81.9646 259.396C82.4951 259.616 82.9767 259.939 83.3816 260.346C83.7865 260.753 84.1066 261.236 84.3235 261.767C84.5403 262.299 84.6496 262.868 84.645 263.442C84.5894 271.48 85.3267 290.051 91.6773 314.653Z" fill="black" stroke="black" stroke-width="0.516112" stroke-linecap="round" stroke-linejoin="round"/>
<path d="M0.347778 314.653H328.306" stroke="black" stroke-width="0.516112" stroke-linecap="round" stroke-linejoin="round"/>
</g>
<defs>
<clipPath id="clip0_596_8316">
<rect width="332" height="315" fill="white"/>
</clipPath>
</defs>
</svg>
