<svg width="332" height="315" viewBox="0 0 332 315" fill="none" xmlns="http://www.w3.org/2000/svg">
<g clip-path="url(#clip0_584_7904)">
<path d="M321.798 183.339C312.531 212.758 292.561 245.011 263.165 255.508C218.759 271.379 214.775 309.518 134.2 309.259C122.434 309.276 110.7 307.956 99.2057 305.323C93.5859 304.015 88.0514 302.333 82.6359 300.287C34.8913 282.25 8.75202 239.356 5.00802 193.52C0.0961676 133.229 39.2673 102.818 64.7746 84.8816C90.2819 66.9455 119.41 0.381317 198.645 -0.0143843C210.74 -0.127941 222.808 1.22159 234.608 4.00738C261.51 10.4825 289.195 26.0731 305.826 49.8368C307.07 51.6211 308.265 53.4341 309.419 55.3191C331.876 91.8891 334.439 143.222 321.798 183.339Z" fill="#E3F2F2"/>
<path d="M32.9197 58.9668H23.5151V68.8162H32.9197V58.9668Z" stroke="black" stroke-width="0.534454" stroke-linecap="round" stroke-linejoin="round"/>
<path d="M36.6843 63.895H78.0744" stroke="black" stroke-width="0.534454" stroke-linecap="round" stroke-linejoin="round"/>
<path d="M32.9197 72.7588H23.5151V82.6082H32.9197V72.7588Z" stroke="black" stroke-width="0.534454" stroke-linecap="round" stroke-linejoin="round"/>
<path d="M36.6843 77.687H78.0744" stroke="black" stroke-width="0.534454" stroke-linecap="round" stroke-linejoin="round"/>
<path d="M32.9197 86.5508H23.5151V96.4002H32.9197V86.5508Z" stroke="black" stroke-width="0.534454" stroke-linecap="round" stroke-linejoin="round"/>
<path d="M36.6843 91.479H78.0744" stroke="black" stroke-width="0.534454" stroke-linecap="round" stroke-linejoin="round"/>
<path d="M32.9197 100.343H23.5151V110.192H32.9197V100.343Z" stroke="black" stroke-width="0.534454" stroke-linecap="round" stroke-linejoin="round"/>
<path d="M36.6843 105.271H78.0744" stroke="black" stroke-width="0.534454" stroke-linecap="round" stroke-linejoin="round"/>
<path d="M296.463 205.218H289.992V211.995H296.463V205.218Z" stroke="black" stroke-width="0.534454" stroke-linecap="round" stroke-linejoin="round"/>
<path d="M299.053 208.606H327.528" stroke="black" stroke-width="0.534454" stroke-linecap="round" stroke-linejoin="round"/>
<path d="M296.463 214.701H289.992V221.478H296.463V214.701Z" stroke="black" stroke-width="0.534454" stroke-linecap="round" stroke-linejoin="round"/>
<path d="M299.053 218.089H327.528" stroke="black" stroke-width="0.534454" stroke-linecap="round" stroke-linejoin="round"/>
<path d="M296.463 224.19H289.992V230.967H296.463V224.19Z" stroke="black" stroke-width="0.534454" stroke-linecap="round" stroke-linejoin="round"/>
<path d="M299.053 227.579H327.528" stroke="black" stroke-width="0.534454" stroke-linecap="round" stroke-linejoin="round"/>
<path d="M296.463 233.68H289.992V240.457H296.463V233.68Z" stroke="black" stroke-width="0.534454" stroke-linecap="round" stroke-linejoin="round"/>
<path d="M299.053 237.068H327.528" stroke="black" stroke-width="0.534454" stroke-linecap="round" stroke-linejoin="round"/>
<path d="M178.517 30.4331H137.779V60.9741H178.517V30.4331Z" stroke="black" stroke-width="0.534454" stroke-linecap="round" stroke-linejoin="round"/>
<path d="M137.779 30.4331L158.148 45.7L178.523 30.4331" stroke="black" stroke-width="0.534454" stroke-linecap="round" stroke-linejoin="round"/>
<path d="M206.751 21.0728H181.787V39.7858H206.751V21.0728Z" stroke="black" stroke-width="0.534454" stroke-linecap="round" stroke-linejoin="round"/>
<path d="M181.787 21.0728L194.269 30.4257L206.751 21.0728" stroke="black" stroke-width="0.534454" stroke-linecap="round" stroke-linejoin="round"/>
<path d="M47.8682 272.322H22.9037V291.035H47.8682V272.322Z" stroke="black" stroke-width="0.534454" stroke-linecap="round" stroke-linejoin="round"/>
<path d="M22.9037 272.322L35.3859 281.682L47.8682 272.322" stroke="black" stroke-width="0.534454" stroke-linecap="round" stroke-linejoin="round"/>
<path d="M8.22992 314.568H327.157" stroke="black" stroke-width="0.534454" stroke-miterlimit="10"/>
<path d="M7.0552 223.032C9.29473 222.651 13.5059 219.658 13.5127 219.658C13.5196 219.658 10.7649 217.348 10.5931 217.226C8.38793 215.787 3.33181 214.42 1.1335 216.391C0.775941 216.729 0.490054 217.141 0.294367 217.601C0.0986794 218.062 -0.00244141 218.56 -0.00244141 219.064C-0.00244141 219.568 0.0986794 220.066 0.294367 220.527C0.490054 220.987 0.775941 221.399 1.1335 221.737C2.6311 223.219 5.14542 223.356 7.0552 223.032Z" fill="black"/>
<path d="M16.5217 234.996C18.507 234.047 21.6053 230.313 21.8526 230.018C23.8888 231.878 26.0416 233.595 28.2964 235.155C29.6016 236.068 30.9481 236.953 32.3083 237.817C31.6213 237.522 31.0237 237.255 30.9344 237.234C28.4544 236.471 23.2265 236.514 21.5984 239.04C21.3402 239.465 21.1705 239.943 21.1001 240.442C21.0297 240.941 21.0603 241.45 21.1898 241.936C21.3194 242.422 21.545 242.873 21.8521 243.262C22.1592 243.65 22.5409 243.967 22.9724 244.191C24.7722 245.213 27.2385 244.651 28.9902 243.81C30.742 242.968 33.483 239.824 34.1837 238.989L35.7569 239.968C38.285 241.529 40.8062 243.069 43.238 244.659C44.0968 245.22 44.9211 245.803 45.7524 246.385C45.1478 246.126 44.6395 245.903 44.557 245.882C42.0771 245.119 36.8492 245.162 35.2211 247.695C34.9629 248.121 34.7931 248.598 34.7227 249.097C34.6523 249.596 34.6829 250.105 34.8125 250.591C34.942 251.077 35.1677 251.528 35.4748 251.917C35.7819 252.306 36.1635 252.622 36.595 252.846C38.3949 253.861 40.8542 253.299 42.6129 252.458C44.3715 251.616 46.8378 248.781 47.6827 247.788C48.514 248.407 49.3452 249.033 50.1215 249.673C50.6436 250.127 51.1726 250.522 51.6741 251.004L53.1579 252.371C54.0785 253.292 55.0333 254.235 55.9058 255.156C56.5172 255.796 57.0943 256.407 57.6713 257.033C56.8263 256.465 55.1433 255.386 54.999 255.314C52.6496 254.17 47.4423 253.4 45.505 255.623C45.1879 256.003 44.9504 256.447 44.808 256.929C44.6656 257.411 44.6215 257.918 44.6785 258.419C44.7355 258.92 44.8924 259.402 45.1389 259.835C45.3854 260.268 45.7161 260.642 46.1096 260.933C47.7446 262.221 50.2314 262.062 52.1137 261.508C54.1746 260.897 57.6095 257.839 58.0698 257.451C59.0315 258.487 59.9521 259.501 60.8177 260.465C62.7137 262.624 64.3487 264.559 65.7089 266.221L67.3095 265.142C65.86 263.437 64.1082 261.429 62.0679 259.228C61.0993 258.17 60.0482 257.069 58.956 255.947C59.798 254.697 60.571 253.397 61.2711 252.055C63.3869 252.63 67.5981 252.127 68.1408 252.055C68.395 253.494 68.6285 254.846 68.8278 256.148C69.2605 258.875 69.5834 261.328 69.8307 263.429L71.5619 262.264C71.2802 260.357 70.9436 258.199 70.5246 255.839C70.2704 254.4 69.9681 252.868 69.6521 251.306C70.1673 251.098 74.406 249.357 75.8967 247.767C77.2706 246.328 78.5896 244.083 78.2942 241.961C78.2385 241.46 78.0829 240.977 77.8376 240.544C77.5923 240.11 77.2627 239.735 76.8702 239.443C76.4777 239.152 76.031 238.95 75.5592 238.85C75.0873 238.751 74.6008 238.757 74.1312 238.867C71.3215 239.587 69.4941 244.745 69.3224 247.45C69.3224 247.608 69.3911 249.35 69.4598 250.45C69.3292 249.81 69.2056 249.191 69.0613 248.529C68.7797 247.234 68.4637 245.939 68.127 244.558L67.5706 242.543C67.3988 241.867 67.1309 241.177 66.8836 240.479C66.3478 238.889 65.7295 237.306 65.07 235.716C66.1554 235.457 70.0025 234.478 71.555 233.262C73.1076 232.047 74.7495 230.047 74.7563 227.91C74.7747 227.406 74.6918 226.904 74.5129 226.435C74.334 225.967 74.0631 225.544 73.7179 225.192C73.3726 224.841 72.9607 224.57 72.5088 224.396C72.0569 224.222 71.5751 224.149 71.0948 224.183C68.2095 224.478 65.6608 229.255 65.1044 231.903C65.1044 232.068 64.8845 234.018 64.7952 235.09C64.3968 234.14 63.9983 233.191 63.5587 232.248C62.3015 229.514 60.9482 226.795 59.6086 224.068C59.1964 223.233 58.798 222.399 58.3926 221.564C58.7773 221.478 63.3732 220.413 65.1181 219.046C66.6638 217.837 68.3125 215.837 68.3194 213.693C68.3369 213.189 68.2531 212.687 68.0733 212.219C67.8936 211.752 67.6219 211.329 67.276 210.978C66.9301 210.627 66.5177 210.357 66.0654 210.184C65.6132 210.011 65.1313 209.939 64.651 209.974C61.7725 210.269 59.217 215.046 58.6674 217.693C58.6262 217.895 58.3514 220.694 58.3171 221.413C57.4309 219.571 56.5584 217.729 55.7753 215.88C54.7036 213.383 53.7858 210.817 53.0274 208.197C53.206 208.153 58.0079 207.067 59.7941 205.671C61.3398 204.455 62.9885 202.455 62.9954 200.319C63.0129 199.815 62.929 199.313 62.7493 198.845C62.5695 198.377 62.2979 197.954 61.952 197.603C61.6061 197.253 61.1936 196.982 60.7414 196.809C60.2892 196.636 59.8073 196.564 59.3269 196.599C56.4485 196.894 53.893 201.671 53.3434 204.319C53.3022 204.52 53.0068 207.535 52.993 208.089C52.9518 207.938 52.89 207.786 52.8488 207.628C52.1639 204.978 51.7041 202.269 51.4748 199.534C51.3306 198.031 51.2687 196.577 51.2481 195.16C52.1618 195.059 56.3317 194.527 58.0698 193.455C59.8078 192.383 61.5802 190.627 61.8138 188.498C61.8835 187.999 61.8524 187.491 61.7225 187.006C61.5926 186.521 61.3669 186.069 61.0599 185.681C60.7529 185.293 60.3715 184.977 59.9405 184.754C59.5094 184.53 59.0382 184.403 58.5575 184.383C55.6654 184.339 52.6289 188.793 51.7977 191.361C51.7565 191.505 51.4473 192.973 51.2413 194.052C51.2413 193.412 51.2413 192.757 51.2413 192.145C51.2413 189.85 51.4267 187.75 51.5847 185.893C51.6809 184.836 51.7908 183.886 51.9008 183.016C52.7457 182.418 56.1256 179.979 57.1767 178.224C58.2278 176.469 59.0453 174.022 58.3171 172.022C58.1601 171.546 57.9093 171.109 57.5809 170.741C57.2525 170.373 56.8539 170.081 56.4109 169.884C55.9679 169.687 55.4904 169.59 55.0093 169.599C54.5282 169.608 54.0543 169.723 53.6182 169.936C51.0283 171.296 50.2932 176.713 50.6917 179.397C50.6917 179.627 51.6603 183.181 51.7084 183.152L51.7565 183.116C51.6328 183.972 51.516 184.886 51.3993 185.893C51.2 187.75 51.0008 189.85 50.9253 192.153C50.8161 194.634 50.8459 197.121 51.0146 199.599C51.1875 202.376 51.599 205.13 52.2442 207.83C52.2442 207.83 52.2442 207.887 52.2442 207.923C51.7977 207.168 50.4719 205.096 50.3551 204.952C48.6857 202.88 44.296 199.916 41.6168 201.067C41.1772 201.272 40.7838 201.572 40.462 201.947C40.1402 202.322 39.8973 202.764 39.7489 203.243C39.6006 203.723 39.5502 204.23 39.601 204.731C39.6517 205.232 39.8025 205.717 40.0436 206.153C41.0054 208.046 43.3548 209.031 45.2646 209.312C47.4148 209.664 51.9695 208.34 52.3335 208.233C53.0515 210.963 53.9419 213.641 54.999 216.247C55.6104 217.765 56.2699 219.276 56.95 220.787C56.5378 220.147 56.1737 219.578 56.1119 219.499C54.4426 217.434 50.0459 214.463 47.3667 215.621C46.9309 215.832 46.542 216.136 46.2253 216.514C45.9086 216.892 45.6711 217.335 45.528 217.815C45.385 218.295 45.3396 218.801 45.3948 219.301C45.45 219.8 45.6046 220.282 45.8485 220.715C46.8172 222.607 49.1666 223.593 51.0764 223.881C52.9862 224.169 56.9156 223.161 57.9461 222.852C58.214 223.427 58.4682 224.01 58.7361 224.586C60.0208 227.341 61.3191 230.082 62.5076 232.816C62.9267 233.78 63.3114 234.745 63.6892 235.694C63.332 235.126 63.0022 234.651 63.0022 234.586C61.326 232.514 56.9363 229.55 54.2571 230.701C53.8098 230.903 53.4085 231.201 53.0798 231.577C52.7511 231.953 52.5025 232.399 52.3505 232.883C52.1985 233.367 52.1466 233.88 52.1981 234.387C52.2497 234.894 52.4035 235.384 52.6496 235.824C53.6182 237.709 55.9676 238.666 57.8774 238.982C59.7872 239.299 63.332 238.349 64.5616 238.011C64.9257 239.004 65.2898 240.011 65.599 240.997C65.7982 241.673 66.0318 242.306 66.1966 243.004L66.7119 245.026C66.9935 246.328 67.2958 247.666 67.5431 248.939C67.7149 249.832 67.8729 250.673 68.0309 251.529C67.6187 250.565 66.7874 248.695 66.6981 248.551C65.437 246.564 63.7104 244.949 61.6832 243.86C61.5507 243.635 61.4014 243.421 61.2367 243.22C60.9263 242.834 60.542 242.521 60.1087 242.301C59.6753 242.081 59.2026 241.959 58.7213 241.943C58.24 241.927 57.7608 242.016 57.3148 242.207C56.8688 242.397 56.466 242.683 56.1325 243.047C54.1815 245.292 55.3562 250.623 56.6477 252.976C56.7233 253.112 57.7125 254.522 58.3446 255.4C57.898 254.94 57.4652 254.494 56.9706 254.033C56.0569 253.105 55.1089 252.213 54.0991 251.249L52.574 249.896C52.0725 249.429 51.4886 249.004 50.9459 248.551C49.6544 247.537 48.3079 246.572 46.9202 245.63C47.6965 244.781 50.3551 241.745 51.042 239.831C51.729 237.917 52.0175 235.306 50.8978 233.514C50.6471 233.084 50.313 232.714 49.9172 232.428C49.5213 232.142 49.0724 231.946 48.5997 231.853C48.1269 231.76 47.6408 231.772 47.1728 231.889C46.7048 232.005 46.2653 232.223 45.8829 232.529C43.6296 234.442 44.0143 239.903 44.9555 242.428C45.0104 242.587 45.876 244.321 46.3706 245.263C45.5325 244.702 44.7082 244.141 43.8426 243.601C41.3557 242.054 38.7865 240.565 36.2378 239.069L33.9021 237.68C34.1837 237.385 37.4537 233.845 38.1888 231.701C38.8758 229.795 39.1574 227.176 38.0377 225.384C37.787 224.954 37.4529 224.584 37.057 224.298C36.6612 224.012 36.2123 223.816 35.7396 223.723C35.2668 223.63 34.7807 223.643 34.3127 223.759C33.8447 223.875 33.4052 224.093 33.0228 224.399C30.7695 226.313 31.1611 231.766 32.0953 234.291C32.164 234.486 33.4143 236.975 33.7647 237.594C32.0541 236.572 30.3298 235.543 28.7292 234.45C26.5183 232.988 24.4003 231.378 22.3884 229.629C22.5189 229.493 25.9538 225.809 26.7026 223.615C27.3484 221.708 27.6712 219.089 26.5515 217.298C26.3008 216.868 25.9667 216.498 25.5709 216.212C25.175 215.925 24.7261 215.73 24.2534 215.637C23.7806 215.544 23.2945 215.556 22.8265 215.672C22.3585 215.789 21.919 216.007 21.5366 216.312C19.2833 218.226 19.6749 223.687 20.6092 226.212C20.6847 226.406 22.0243 229.09 22.306 229.557L21.9419 229.262C19.9718 227.449 18.1602 225.456 16.5286 223.305C15.608 222.132 14.7974 220.96 14.028 219.794C14.7149 219.176 17.9368 216.319 18.8368 214.427C19.7367 212.535 20.2726 210.038 19.3451 208.132C19.1415 207.676 18.8486 207.27 18.4856 206.94C18.1226 206.609 17.6975 206.363 17.2378 206.216C16.778 206.069 16.2939 206.024 15.8167 206.085C15.3396 206.146 14.8799 206.312 14.4676 206.571C12.0289 208.211 11.8434 213.686 12.5029 216.305C12.5441 216.449 13.0593 217.852 13.4578 218.866C13.1143 218.341 12.7708 217.801 12.4411 217.283C11.2595 215.355 10.284 213.506 9.439 211.866C8.96499 210.931 8.5528 210.074 8.17497 209.269C8.56654 208.283 10.0985 204.297 10.0504 202.225C10.0023 200.153 9.39778 197.635 7.7353 196.39C7.35355 196.083 6.91435 195.863 6.4462 195.745C5.97805 195.627 5.49141 195.613 5.01788 195.705C4.54434 195.796 4.09448 195.991 3.6975 196.277C3.30051 196.562 2.96527 196.932 2.71354 197.362C1.27776 199.995 3.51729 204.945 5.2622 206.945C5.41334 207.117 8.06505 209.542 8.08566 209.492C8.08782 209.472 8.08782 209.453 8.08566 209.434C8.43602 210.218 8.81385 211.053 9.25351 211.959C10.0641 213.621 11.0053 215.492 12.1525 217.456C13.3782 219.583 14.7224 221.632 16.1782 223.593C17.788 225.805 19.5811 227.863 21.5366 229.744L21.6121 229.809C20.8359 229.435 18.6513 228.471 18.4727 228.421C15.9858 227.658 10.7649 227.701 9.13673 230.234C8.87857 230.659 8.70878 231.137 8.63839 231.636C8.568 232.135 8.59858 232.644 8.72814 233.13C8.8577 233.615 9.08335 234.067 9.39044 234.456C9.69753 234.844 10.0792 235.161 10.5107 235.385C12.3037 236.399 14.763 235.824 16.5217 234.996Z" fill="black"/>
<path d="M50.8909 194.815C50.939 194.815 49.833 191.311 49.7368 191.102C48.6445 188.642 45.1616 184.563 42.2831 184.937C41.808 185.014 41.3537 185.195 40.9495 185.467C40.5453 185.74 40.2003 186.098 39.9367 186.52C39.6732 186.941 39.497 187.415 39.4195 187.912C39.3421 188.409 39.3651 188.917 39.4872 189.404C39.9406 191.498 41.9671 193.067 43.7258 193.901C45.7798 194.851 50.884 194.815 50.8909 194.815Z" fill="black"/>
<path d="M255.945 36.0375C257.491 37.6491 262.073 39.4046 262.073 39.4118C262.073 39.419 262.259 35.8936 262.245 35.6706C262.066 33.0806 260.259 28.181 257.56 27.4904C257.108 27.3887 256.641 27.388 256.19 27.4881C255.738 27.5883 255.311 27.7871 254.938 28.0715C254.565 28.356 254.253 28.7198 254.023 29.1391C253.792 29.5584 253.649 30.0238 253.603 30.5049C253.328 32.541 254.619 34.6705 255.945 36.0375Z" fill="black"/>
<path d="M252.366 50.4627C254.18 51.5491 258.693 51.9808 259.05 52.0096C258.811 54.7142 258.744 57.4327 258.851 60.1466C258.899 61.7294 259.002 63.3194 259.119 64.9094C258.961 64.19 258.817 63.5497 258.782 63.4705C257.958 61.0172 254.984 56.794 252.201 56.8731C251.741 56.901 251.291 57.03 250.881 57.2517C250.471 57.4734 250.11 57.7829 249.822 58.1601C249.534 58.5374 249.325 58.9738 249.208 59.4412C249.091 59.9087 249.069 60.3966 249.144 60.8733C249.398 62.9165 251.205 64.6073 252.806 65.5713C254.406 66.5354 258.302 67.0103 259.298 67.0966C259.353 67.7081 259.394 68.3197 259.449 68.9312C259.71 71.8594 259.978 74.7804 260.136 77.651C260.205 78.6655 260.232 79.6655 260.259 80.6656C260.122 80.0324 259.998 79.4928 259.971 79.4137C259.14 76.9604 256.165 72.7371 253.39 72.8235C252.929 72.8504 252.478 72.9787 252.067 73.2C251.657 73.4213 251.295 73.7307 251.006 74.108C250.717 74.4853 250.507 74.9221 250.39 75.39C250.273 75.8579 250.251 76.3464 250.326 76.8237C250.58 78.8597 252.387 80.5504 253.987 81.5145C255.588 82.4786 259.092 82.8887 260.301 83.0182C260.301 84.047 260.301 85.0758 260.266 86.0687C260.225 86.745 260.225 87.3997 260.143 88.0832C260.06 88.7666 260.019 89.4213 259.95 90.0833C259.785 91.3495 259.621 92.6589 259.428 93.8892C259.298 94.7453 259.16 95.5583 259.023 96.3785C258.968 95.3713 258.831 93.4 258.796 93.2345C258.336 90.6804 256.007 86.0399 253.245 85.673C252.786 85.6264 252.323 85.6818 251.885 85.8355C251.447 85.9892 251.046 86.2377 250.706 86.5649C250.366 86.8921 250.096 87.2906 249.914 87.7345C249.731 88.1783 249.64 88.6575 249.646 89.1408C249.598 91.1984 251.13 93.1553 252.579 94.364C254.18 95.6878 258.405 96.803 258.934 96.9397C258.7 98.2995 258.466 99.6161 258.247 100.861C257.718 103.602 257.189 106.034 256.708 108.055L258.405 108.775C258.858 106.616 259.366 104.084 259.861 101.184C260.101 99.8031 260.328 98.3067 260.548 96.8102C261.949 96.7942 263.348 96.6957 264.739 96.5152C265.501 98.5585 268.235 101.71 268.592 102.113C267.686 103.12 266.793 104.077 265.941 104.99C264.155 106.868 262.506 108.509 261.091 109.89L262.925 110.609C264.189 109.314 265.597 107.825 267.115 106.156C268.043 105.149 269.012 104.048 269.994 102.904C270.44 103.213 274.116 105.695 276.129 106.019C277.963 106.307 280.374 106.149 281.782 104.71C282.123 104.384 282.394 103.987 282.579 103.545C282.764 103.102 282.857 102.624 282.854 102.141C282.851 101.658 282.751 101.181 282.56 100.741C282.37 100.301 282.093 99.9079 281.748 99.5873C279.618 97.7167 274.782 99.0981 272.68 100.487C272.556 100.566 271.306 101.609 270.53 102.278C270.928 101.81 271.327 101.364 271.732 100.839C272.543 99.8823 273.319 98.9038 274.164 97.8534L275.345 96.2706C275.751 95.7454 276.115 95.1482 276.506 94.5799C277.393 93.2489 278.224 91.8603 279.034 90.4358C279.831 91.1553 282.717 93.7597 284.496 94.3424C286.275 94.9252 288.673 95.1482 290.266 93.9539C290.644 93.6842 290.964 93.3352 291.205 92.9289C291.447 92.5227 291.605 92.0682 291.67 91.5944C291.734 91.1206 291.704 90.6379 291.581 90.1771C291.457 89.7162 291.244 89.2873 290.953 88.9177C289.112 86.7594 284.139 87.3277 281.858 88.3637C281.721 88.4285 280.161 89.3638 279.323 89.8962C279.797 89.0328 280.285 88.1839 280.738 87.2918C282.064 84.7377 283.328 82.1045 284.599 79.4856C284.991 78.687 285.382 77.8885 285.781 77.0971C286.062 77.3633 289.428 80.5145 291.421 81.162C293.186 81.7447 295.597 81.9678 297.191 80.7735C297.569 80.5038 297.888 80.1547 298.13 79.7485C298.372 79.3422 298.53 78.8877 298.594 78.4139C298.659 77.9401 298.629 77.4575 298.505 76.9966C298.382 76.5358 298.168 76.1069 297.878 75.7373C296.044 73.5789 291.063 74.1473 288.789 75.1833C288.618 75.2624 286.385 76.6222 285.829 76.9819C286.701 75.2265 287.58 73.4854 288.515 71.809C289.771 69.5364 291.164 67.3497 292.685 65.262C292.815 65.3915 296.312 68.6938 298.352 69.3629C300.125 69.9384 302.529 70.1615 304.13 68.9672C304.507 68.6975 304.827 68.3484 305.068 67.9422C305.31 67.5359 305.468 67.0814 305.533 66.6076C305.597 66.1338 305.567 65.6512 305.444 65.1903C305.32 64.7295 305.107 64.3006 304.817 63.931C302.982 61.7726 298.002 62.3482 295.721 63.3842C295.542 63.4633 293.145 64.9166 292.726 65.2116C292.815 65.0893 292.891 64.9598 292.987 64.8375C294.567 62.7905 296.319 60.8956 298.222 59.1754C299.266 58.2113 300.283 57.3479 301.34 56.535C301.938 57.2544 304.672 60.3265 306.438 61.1395C308.203 61.9525 310.512 62.4129 312.222 61.4129C312.632 61.1902 312.993 60.8799 313.281 60.5019C313.569 60.124 313.778 59.6868 313.895 59.2188C314.011 58.7509 314.033 58.2624 313.958 57.7852C313.883 57.308 313.713 56.8526 313.459 56.4486C311.865 54.0672 306.85 54.0888 304.48 54.8586C304.349 54.9018 303.106 55.4774 302.165 55.909C302.639 55.5493 303.12 55.1896 303.58 54.837C305.304 53.5708 306.953 52.5276 308.423 51.6139C309.261 51.0959 310.031 50.6498 310.752 50.2397C311.666 50.5994 315.368 51.9808 317.264 51.8513C319.161 51.7218 321.441 51.0239 322.52 49.3044C322.785 48.9097 322.969 48.461 323.058 47.9873C323.147 47.5137 323.14 47.0257 323.038 46.5549C322.936 46.0842 322.74 45.6412 322.464 45.2547C322.188 44.8682 321.837 44.5468 321.434 44.3114C318.968 42.966 314.53 45.405 312.765 47.1892C312.614 47.3475 310.491 50.067 310.539 50.1246H310.594C309.907 50.5059 309.144 50.916 308.334 51.3908C306.843 52.2686 305.167 53.283 303.408 54.5133C301.499 55.8155 299.664 57.2328 297.912 58.7581C295.946 60.4541 294.13 62.3323 292.485 64.3699C292.469 64.3975 292.45 64.424 292.43 64.449C292.74 63.6576 293.536 61.4273 293.578 61.2474C294.182 58.7221 293.928 53.4845 291.565 51.9448C291.166 51.7006 290.722 51.5471 290.263 51.4943C289.803 51.4416 289.338 51.4908 288.898 51.6388C288.458 51.7867 288.053 52.0301 287.709 52.3531C287.364 52.6761 287.089 53.0714 286.9 53.5132C286.042 55.355 286.646 57.83 287.484 59.5423C288.432 61.492 291.97 64.4634 292.252 64.7008C290.624 66.8139 289.135 69.0397 287.793 71.363C287.003 72.7084 286.248 74.0969 285.513 75.4927C285.76 74.7732 285.973 74.1833 285.993 74.0537C286.591 71.5356 286.337 66.2908 283.981 64.7584C283.582 64.5141 283.138 64.3606 282.679 64.3079C282.219 64.2551 281.754 64.3043 281.314 64.4523C280.874 64.6003 280.469 64.8437 280.124 65.1666C279.78 65.4896 279.505 65.8849 279.316 66.3268C278.457 68.1686 279.062 70.6435 279.9 72.3486C280.738 74.0537 283.72 76.6654 284.51 77.3848C284.235 77.9244 283.946 78.4568 283.672 79.0036C282.346 81.5937 281.034 84.1837 279.666 86.6874C279.186 87.5724 278.684 88.4213 278.183 89.2703C278.402 88.6587 278.581 88.1407 278.602 88.0616C279.199 85.5363 278.945 80.2914 276.589 78.759C276.19 78.5147 275.746 78.3612 275.287 78.3085C274.827 78.2558 274.362 78.305 273.922 78.453C273.482 78.6009 273.077 78.8443 272.733 79.1673C272.388 79.4902 272.113 79.8855 271.924 80.3274C271.066 82.1692 271.67 84.6442 272.508 86.3565C273.346 88.0688 276.039 90.4502 276.974 91.256C276.438 92.1121 275.902 92.9755 275.345 93.7813C274.947 94.3209 274.603 94.8676 274.184 95.3929C273.765 95.9181 273.367 96.4289 272.968 96.9469C272.158 97.9038 271.333 98.9038 270.523 99.8247C269.966 100.465 269.417 101.062 268.874 101.674C269.362 100.796 270.282 99.0693 270.344 98.9182C271.118 96.7792 271.355 94.4679 271.031 92.2057C271.127 91.9733 271.203 91.7325 271.258 91.4862C271.371 91.0157 271.389 90.5255 271.309 90.0475C271.229 89.5695 271.054 89.1146 270.794 88.7125C270.535 88.3105 270.197 87.9703 269.804 87.7143C269.41 87.4583 268.969 87.2923 268.51 87.227C265.762 86.9033 262.444 90.8243 261.42 93.2129C261.359 93.3568 260.871 94.9468 260.576 95.954C260.658 95.3353 260.754 94.7309 260.837 94.0906C261.001 92.8244 261.139 91.5581 261.29 90.1912C261.338 89.5293 261.393 88.8674 261.441 88.1911C261.489 87.5148 261.496 86.8097 261.524 86.1119C261.558 84.4931 261.524 82.8455 261.441 81.1908C262.499 81.349 266.25 81.8383 268.057 81.2987C269.863 80.7591 271.965 79.5504 272.666 77.6367C272.847 77.1927 272.937 76.7138 272.93 76.2311C272.923 75.7484 272.818 75.2727 272.624 74.835C272.43 74.3973 272.149 74.0073 271.802 73.6905C271.454 73.3737 271.046 73.1371 270.605 72.9961C267.926 72.2335 264.086 75.6078 262.733 77.7877C262.65 77.9244 261.846 79.6008 261.42 80.5289C261.372 79.536 261.324 78.5432 261.235 77.5431C260.995 74.6653 260.665 71.7227 260.342 68.8017C260.246 67.9096 260.156 67.0175 260.067 66.1253C260.445 66.1829 264.876 66.8448 266.937 66.262C268.716 65.7224 270.839 64.5137 271.54 62.6C271.721 62.1561 271.811 61.6772 271.803 61.1945C271.796 60.7118 271.692 60.2361 271.497 59.7983C271.303 59.3606 271.023 58.9706 270.675 58.6538C270.327 58.337 269.92 58.1004 269.479 57.9595C266.793 57.1969 262.959 60.5711 261.606 62.7511C261.503 62.9165 260.349 65.3339 260.088 65.9599C259.889 63.9957 259.703 62.0316 259.6 60.0891C259.438 57.4706 259.438 54.8439 259.6 52.2254C259.779 52.2254 264.409 52.988 266.47 52.3693C268.256 51.8297 270.379 50.621 271.079 48.7073C271.259 48.2632 271.348 47.7845 271.341 47.3022C271.333 46.8198 271.228 46.3445 271.034 45.9071C270.84 45.4697 270.56 45.0799 270.213 44.7628C269.866 44.4458 269.459 44.2087 269.018 44.0668C266.332 43.3041 262.492 46.6784 261.146 48.8583C261.036 49.031 259.772 51.6283 259.607 52.1175C259.607 51.9664 259.607 51.8081 259.607 51.657C259.845 49.0343 260.304 46.4388 260.981 43.9013C261.338 42.4624 261.757 41.1745 262.19 39.9011C263.042 40.1313 266.957 41.1386 268.86 40.7932C270.763 40.4479 272.927 39.5054 273.827 37.6852C274.052 37.2628 274.19 36.7956 274.232 36.3139C274.273 35.8322 274.218 35.3467 274.069 34.8889C273.92 34.431 273.681 34.0111 273.367 33.6562C273.053 33.3013 272.672 33.0195 272.247 32.8288C269.664 31.764 265.494 34.6778 263.921 36.6923C263.832 36.8002 263.083 38.0089 262.547 38.9011C262.753 38.3255 262.952 37.7355 263.159 37.1888C263.928 35.1383 264.752 33.3109 265.494 31.7065C265.927 30.7928 266.332 29.9726 266.717 29.2172C267.672 28.9797 271.491 28.0013 273.003 26.7926C274.514 25.5839 276.046 23.6917 276.039 21.6413C276.054 21.1577 275.971 20.6762 275.797 20.2283C275.622 19.7803 275.36 19.3758 275.026 19.0413C274.692 18.7067 274.295 18.4494 273.86 18.2863C273.425 18.1231 272.962 18.0577 272.501 18.0944C269.753 18.3965 267.322 22.9939 266.806 25.5407C266.765 25.7566 266.449 29.2819 266.497 29.2675H266.559C266.167 29.987 265.762 30.7712 265.336 31.6345C264.56 33.2317 263.694 35.0448 262.877 37.0808C261.976 39.2672 261.196 41.506 260.541 43.7862C259.834 46.355 259.345 48.9839 259.078 51.6427C259.081 51.6737 259.081 51.7051 259.078 51.7362C258.92 50.9016 258.391 48.5778 258.35 48.3979C257.525 45.9517 254.551 41.7213 251.769 41.8077C251.308 41.8355 250.858 41.9645 250.448 42.1863C250.038 42.408 249.678 42.7175 249.389 43.0947C249.101 43.4719 248.892 43.9084 248.775 44.3758C248.658 44.8432 248.637 45.3311 248.711 45.8078C248.959 47.8079 250.752 49.4843 252.366 50.4627Z" fill="black"/>
<path d="M301.505 55.9596C301.505 56.0028 303.511 53.1394 303.614 52.9379C304.83 50.6716 305.909 45.5491 304.02 43.4123C303.696 43.0669 303.307 42.7967 302.878 42.6191C302.448 42.4415 301.988 42.3606 301.527 42.3817C301.065 42.4027 300.613 42.5252 300.2 42.7412C299.787 42.9572 299.422 43.2618 299.128 43.6353C297.83 45.175 297.796 47.7075 298.167 49.614C298.586 51.8156 301.498 55.9596 301.505 55.9596Z" fill="black"/>
<path d="M282.936 135.186C283.706 136.87 286.783 139.503 286.783 139.503C286.783 139.503 287.841 136.848 287.889 136.668C288.418 134.625 288.302 130.337 286.399 129.035C286.077 128.828 285.718 128.695 285.343 128.643C284.969 128.592 284.589 128.623 284.227 128.736C283.866 128.849 283.531 129.04 283.244 129.297C282.958 129.554 282.727 129.872 282.565 130.229C281.83 131.747 282.284 133.754 282.936 135.186Z" fill="black"/>
<path d="M276.438 145.28C277.557 146.633 280.924 148.244 281.192 148.374C280.307 150.389 279.55 152.463 278.925 154.583C278.56 155.813 278.238 157.072 277.901 158.331C277.963 157.734 278.018 157.194 278.018 157.122C278.018 154.964 276.816 150.899 274.658 150.172C274.297 150.061 273.916 150.031 273.543 150.084C273.169 150.138 272.81 150.273 272.49 150.482C272.169 150.69 271.895 150.967 271.684 151.294C271.473 151.622 271.33 151.992 271.265 152.381C270.928 154.022 271.876 155.842 272.865 157.036C273.855 158.23 276.719 159.691 277.475 160.058C277.358 160.547 277.235 161.029 277.118 161.497C276.554 163.828 276.005 166.152 275.4 168.418C275.187 169.216 274.954 169.993 274.713 170.778C274.775 170.245 274.816 169.792 274.816 169.727C274.816 167.569 273.614 163.504 271.457 162.777C271.095 162.666 270.715 162.636 270.341 162.689C269.968 162.743 269.609 162.878 269.288 163.086C268.968 163.295 268.693 163.572 268.482 163.899C268.271 164.227 268.129 164.597 268.064 164.986C267.727 166.634 268.675 168.447 269.664 169.641C270.653 170.835 273.236 172.152 274.136 172.598C273.875 173.389 273.607 174.181 273.319 174.936C273.113 175.447 272.941 175.951 272.707 176.454C272.474 176.958 272.261 177.447 272.02 177.936C271.56 178.864 271.093 179.828 270.647 180.721C270.324 181.346 270.008 181.936 269.692 182.526C269.911 181.735 270.31 180.174 270.331 180.044C270.64 177.943 270.049 173.699 268.015 172.641C267.673 172.475 267.302 172.386 266.925 172.38C266.548 172.374 266.174 172.451 265.827 172.606C265.48 172.762 265.169 172.992 264.912 173.282C264.656 173.571 264.461 173.915 264.34 174.289C263.77 175.857 264.443 177.8 265.254 179.145C266.14 180.62 269.101 182.685 269.479 182.936C268.95 183.915 268.421 184.865 267.919 185.757C266.799 187.714 265.762 189.433 264.862 190.879L265.989 191.894C266.889 190.383 267.947 188.555 269.08 186.462C269.623 185.469 270.179 184.397 270.743 183.289C271.826 183.675 272.929 183.996 274.047 184.253C274.102 186.045 275.421 189.253 275.565 189.663C274.61 190.174 273.669 190.663 272.783 191.102C270.921 192.045 269.231 192.843 267.775 193.505L268.991 194.606C270.303 193.966 271.78 193.225 273.381 192.369C274.356 191.851 275.387 191.282 276.438 190.678C276.706 191.045 278.883 193.995 280.36 194.822C281.693 195.541 283.596 196.124 285.052 195.419C285.4 195.266 285.713 195.038 285.97 194.749C286.228 194.46 286.424 194.118 286.547 193.745C286.669 193.371 286.715 192.975 286.681 192.581C286.648 192.188 286.535 191.807 286.351 191.462C285.197 189.419 281.109 189.109 279.137 189.577C279.021 189.577 277.764 190.052 277.015 190.354L278.299 189.635C279.172 189.124 280.024 188.591 280.951 188.023L282.27 187.138C282.717 186.85 283.156 186.491 283.603 186.167C284.626 185.39 285.629 184.555 286.625 183.692C287.051 184.491 288.597 187.289 289.82 188.253C291.043 189.217 292.829 190.059 294.368 189.591C294.734 189.496 295.077 189.32 295.374 189.076C295.671 188.832 295.915 188.525 296.091 188.175C296.267 187.826 296.37 187.441 296.394 187.046C296.418 186.652 296.362 186.257 296.229 185.886C295.384 183.678 291.386 182.728 289.36 182.879C289.236 182.879 287.793 183.167 287.01 183.332C287.601 182.807 288.192 182.289 288.776 181.735C290.459 180.145 292.114 178.476 293.77 176.814L295.302 175.31C295.446 175.591 297.225 178.979 298.593 180.044C299.802 180.994 301.601 181.85 303.14 181.382C303.506 181.286 303.848 181.11 304.144 180.865C304.441 180.621 304.685 180.314 304.86 179.965C305.036 179.615 305.139 179.231 305.164 178.837C305.188 178.443 305.133 178.048 305.002 177.677C304.15 175.476 300.159 174.519 298.132 174.67C297.981 174.67 295.906 175.087 295.384 175.217C296.511 174.109 297.645 173.058 298.819 171.994C300.373 170.599 302.012 169.311 303.724 168.137C303.793 168.267 305.634 171.806 307.029 172.9C308.245 173.85 310.038 174.706 311.583 174.238C311.948 174.141 312.29 173.964 312.585 173.719C312.881 173.475 313.124 173.168 313.299 172.818C313.474 172.469 313.577 172.085 313.601 171.691C313.625 171.298 313.569 170.903 313.438 170.533C312.593 168.332 308.629 167.375 306.568 167.526C306.403 167.526 304.178 167.972 303.779 168.087L304.075 167.871C305.821 166.743 307.661 165.78 309.57 164.993C310.621 164.547 311.631 164.18 312.655 163.849C312.937 164.569 314.235 167.713 315.403 168.842C316.571 169.972 318.206 171.001 319.786 170.699C320.159 170.644 320.518 170.507 320.838 170.298C321.159 170.088 321.433 169.811 321.644 169.483C321.855 169.156 321.998 168.785 322.064 168.396C322.13 168.007 322.116 167.607 322.025 167.224C321.414 164.936 317.546 163.533 315.52 163.446C315.41 163.446 314.283 163.526 313.459 163.597L314.833 163.173C316.488 162.691 318.027 162.353 319.394 162.065C320.177 161.907 320.885 161.784 321.544 161.677C322.163 162.209 324.656 164.331 326.147 164.763C327.638 165.195 329.582 165.317 330.853 164.295C331.161 164.068 331.421 163.775 331.613 163.435C331.806 163.095 331.928 162.717 331.972 162.324C332.015 161.931 331.979 161.534 331.866 161.157C331.752 160.78 331.564 160.432 331.313 160.137C329.767 158.403 325.714 159.015 323.88 159.921C323.722 160 321.373 161.518 321.407 161.547C320.768 161.641 320.081 161.741 319.346 161.878C317.972 162.13 316.413 162.439 314.743 162.885C312.938 163.348 311.161 163.92 309.419 164.598C307.467 165.352 305.583 166.283 303.786 167.382L303.724 167.425C304.171 166.907 305.359 165.411 305.442 165.267C306.555 163.49 307.716 159.381 306.3 157.525C306.056 157.224 305.754 156.98 305.414 156.809C305.074 156.638 304.703 156.544 304.326 156.533C303.949 156.522 303.573 156.595 303.225 156.746C302.876 156.897 302.562 157.123 302.302 157.41C301.155 158.583 300.99 160.648 301.189 162.216C301.409 163.993 303.367 167.252 303.518 167.547C301.72 168.716 299.996 170.006 298.359 171.411C297.402 172.231 296.458 173.078 295.529 173.95L296.271 173.008C297.383 171.231 298.544 167.123 297.122 165.267C296.879 164.965 296.578 164.721 296.238 164.55C295.898 164.38 295.528 164.286 295.151 164.275C294.775 164.264 294.4 164.336 294.052 164.487C293.704 164.639 293.39 164.865 293.131 165.152C291.984 166.324 291.819 168.389 292.011 169.957C292.204 171.526 293.825 174.397 294.265 175.145L293.2 176.152C291.503 177.771 289.82 179.397 288.123 180.936C287.525 181.476 286.914 181.987 286.309 182.505C286.639 182.095 286.907 181.742 286.948 181.685C288.061 179.915 289.222 175.807 287.8 173.95C287.557 173.648 287.255 173.403 286.915 173.231C286.574 173.06 286.203 172.965 285.826 172.955C285.448 172.944 285.073 173.017 284.724 173.168C284.375 173.32 284.061 173.547 283.802 173.835C282.662 175.008 282.497 177.073 282.689 178.641C282.881 180.21 284.352 182.8 284.867 183.678C284.228 184.181 283.589 184.692 282.95 185.152C282.511 185.462 282.105 185.786 281.645 186.066L280.305 186.922C279.433 187.426 278.533 187.958 277.674 188.433C277.077 188.771 276.506 189.081 275.929 189.39C276.527 188.858 277.688 187.786 277.77 187.685C278.918 186.255 279.697 184.541 280.031 182.706C280.165 182.553 280.284 182.387 280.388 182.21C280.597 181.881 280.738 181.51 280.802 181.12C280.865 180.73 280.849 180.331 280.755 179.948C280.661 179.565 280.491 179.207 280.256 178.898C280.021 178.588 279.727 178.334 279.392 178.152C277.331 177.116 273.779 179.217 272.378 180.749C272.295 180.843 271.498 181.929 271.004 182.627C271.23 182.167 271.457 181.735 271.691 181.26C272.151 180.332 272.584 179.397 273.065 178.382L273.704 176.879C273.923 176.382 274.102 175.828 274.301 175.303C274.748 174.066 275.146 172.785 275.517 171.49C276.293 171.907 279.069 173.361 280.587 173.447C282.105 173.533 284.022 173.217 285.087 171.936C285.341 171.644 285.533 171.3 285.652 170.925C285.77 170.55 285.812 170.153 285.775 169.76C285.737 169.367 285.621 168.987 285.434 168.644C285.247 168.301 284.993 168.004 284.688 167.77C282.813 166.418 278.986 167.929 277.379 169.209C277.276 169.296 276.225 170.36 275.655 170.95C275.874 170.173 276.094 169.396 276.287 168.598C276.85 166.295 277.351 163.95 277.867 161.612C278.018 160.892 278.183 160.173 278.347 159.453C278.622 159.604 281.885 161.403 283.582 161.504C285.094 161.597 287.017 161.274 288.082 159.993C288.336 159.701 288.529 159.357 288.647 158.982C288.766 158.607 288.807 158.21 288.77 157.817C288.732 157.424 288.616 157.044 288.429 156.701C288.242 156.358 287.988 156.061 287.683 155.827C285.815 154.475 281.982 155.986 280.374 157.266C280.257 157.367 278.739 158.899 278.375 159.31C278.732 157.734 279.096 156.173 279.522 154.647C280.08 152.585 280.768 150.563 281.583 148.597C281.707 148.669 285.107 150.554 286.852 150.662C288.364 150.755 290.287 150.431 291.352 149.151C291.606 148.859 291.798 148.514 291.916 148.138C292.034 147.763 292.075 147.366 292.037 146.973C291.998 146.58 291.882 146.2 291.694 145.858C291.506 145.515 291.251 145.218 290.947 144.985C289.078 143.633 285.245 145.143 283.644 146.424C283.514 146.525 281.885 148.18 281.583 148.496C281.631 148.388 281.672 148.259 281.721 148.151C282.586 146.2 283.616 144.334 284.798 142.575C285.437 141.589 286.103 140.69 286.77 139.834C287.367 140.251 290.122 142.143 291.682 142.417C293.241 142.69 295.116 142.582 296.312 141.431C296.595 141.17 296.822 140.849 296.979 140.49C297.135 140.13 297.218 139.74 297.221 139.345C297.224 138.95 297.148 138.559 296.997 138.197C296.847 137.835 296.625 137.51 296.346 137.244C294.636 135.69 290.665 136.747 288.934 137.848C288.838 137.913 287.944 138.632 287.299 139.165C287.608 138.783 287.917 138.38 288.212 138.021C289.339 136.661 290.452 135.488 291.441 134.459C292.004 133.877 292.533 133.359 293.028 132.884C293.818 132.977 297.019 133.308 298.524 132.805C300.028 132.301 301.67 131.279 302.199 129.697C302.334 129.328 302.394 128.935 302.375 128.541C302.356 128.147 302.258 127.761 302.088 127.409C301.918 127.057 301.679 126.747 301.387 126.498C301.095 126.248 300.756 126.066 300.392 125.963C298.18 125.409 295.13 128.265 294.072 130.078C293.983 130.236 292.829 132.862 292.87 132.862H292.918C292.43 133.308 291.915 133.798 291.366 134.337C290.349 135.344 289.215 136.496 288.061 137.834C286.8 139.262 285.619 140.766 284.523 142.338C283.289 144.094 282.206 145.963 281.288 147.921V147.992C281.384 147.273 281.59 145.366 281.59 145.215C281.59 143.057 280.395 138.992 278.231 138.265C277.869 138.154 277.489 138.124 277.115 138.177C276.741 138.231 276.382 138.366 276.062 138.575C275.742 138.783 275.467 139.06 275.256 139.387C275.045 139.715 274.902 140.085 274.837 140.474C274.5 142.294 275.448 144.086 276.438 145.28Z" fill="black"/>
<path d="M312.882 163.461C312.882 163.496 315.162 161.856 315.293 161.734C316.818 160.295 318.975 156.698 318.041 154.503C317.881 154.146 317.652 153.828 317.367 153.57C317.083 153.312 316.75 153.12 316.389 153.005C316.029 152.89 315.65 152.856 315.277 152.905C314.903 152.953 314.543 153.084 314.221 153.287C312.847 154.108 312.16 156.05 311.934 157.604C311.714 159.46 312.882 163.453 312.882 163.461Z" fill="black"/>
<path d="M283.252 76.5645H59.0521V301.553H283.252V76.5645Z" fill="black" stroke="black" stroke-width="0.534454" stroke-linecap="round" stroke-linejoin="round"/>
<path d="M286.976 73.5283H62.7755V298.517H286.976V73.5283Z" fill="white" stroke="black" stroke-width="0.534454" stroke-linecap="round" stroke-linejoin="round"/>
<path d="M172.911 84.3926V286.574" stroke="black" stroke-width="0.534454" stroke-linecap="round" stroke-linejoin="round"/>
<path d="M154.782 201.772H81.4886V214.787H154.782V201.772Z" fill="white" stroke="black" stroke-width="0.534454" stroke-linecap="round" stroke-linejoin="round"/>
<path d="M154.782 226.01H81.4886V239.025H154.782V226.01Z" fill="white" stroke="black" stroke-width="0.534454" stroke-linecap="round" stroke-linejoin="round"/>
<path d="M138.459 257.292H97.8043C95.9679 257.292 94.4793 258.851 94.4793 260.775V269.25C94.4793 271.173 95.9679 272.732 97.8043 272.732H138.459C140.296 272.732 141.784 271.173 141.784 269.25V260.775C141.784 258.851 140.296 257.292 138.459 257.292Z" fill="#008080" stroke="black" stroke-width="0.534454" stroke-linecap="round" stroke-linejoin="round"/>
<g opacity="0.2">
<path d="M199.593 115.746H184.974V122.703H199.593V115.746Z" fill="black"/>
<path d="M207.768 107.091H193.149V114.048H207.768V107.091Z" fill="black"/>
<path d="M216.664 115.746H202.045V122.703H216.664V115.746Z" fill="black"/>
<path d="M242.109 91.7954H227.491V98.7526H242.109V91.7954Z" fill="black"/>
<path d="M250.284 83.1475H235.666V90.1046H250.284V83.1475Z" fill="black"/>
<path d="M259.188 91.7954H244.569V98.7526H259.188V91.7954Z" fill="black"/>
<path d="M216.664 137.949H202.045V144.906H216.664V137.949Z" fill="black"/>
<path d="M224.839 129.301H210.22V136.258H224.839V129.301Z" fill="black"/>
<path d="M233.742 137.949H219.123V144.906H233.742V137.949Z" fill="black"/>
<path d="M262.375 203.412H247.756V210.369H262.375V203.412Z" fill="black"/>
<path d="M270.55 194.764H255.931V201.721H270.55V194.764Z" fill="black"/>
<path d="M279.453 203.412H264.835V210.369H279.453V203.412Z" fill="black"/>
<path d="M262.375 275.509H247.756V282.466H262.375V275.509Z" fill="black"/>
<path d="M270.55 266.861H255.931V273.818H270.55V266.861Z" fill="black"/>
<path d="M279.453 275.509H264.835V282.466H279.453V275.509Z" fill="black"/>
<path d="M203.447 219.276H188.828V226.233H203.447V219.276Z" fill="black"/>
<path d="M211.622 210.621H197.003V217.578H211.622V210.621Z" fill="black"/>
<path d="M220.525 219.276H205.906V226.233H220.525V219.276Z" fill="black"/>
<path d="M203.447 244.363H188.828V251.32H203.447V244.363Z" fill="black"/>
<path d="M211.622 235.716H197.003V242.673H211.622V235.716Z" fill="black"/>
<path d="M220.525 244.363H205.906V251.32H220.525V244.363Z" fill="black"/>
<path d="M237.871 244.363H223.252V251.32H237.871V244.363Z" fill="black"/>
<path d="M246.046 235.716H231.427V242.673H246.046V235.716Z" fill="black"/>
<path d="M254.942 244.363H240.323V251.32H254.942V244.363Z" fill="black"/>
</g>
<path d="M137.868 106.192H96.5677V134.941H137.868V106.192Z" fill="#008080" stroke="black" stroke-width="0.534454" stroke-linecap="round" stroke-linejoin="round"/>
<path d="M137.868 106.192L117.218 120.574L96.5677 106.192H137.868Z" fill="black" stroke="black" stroke-width="0.534454" stroke-linecap="round" stroke-linejoin="round"/>
<path d="M102.05 110.163V91.5942H132.352V110.02L117.218 120.574L102.05 110.163Z" fill="white" stroke="black" stroke-width="0.534454" stroke-linecap="round" stroke-linejoin="round"/>
<path d="M107.779 98.0259H126.073" stroke="black" stroke-width="0.534454" stroke-linecap="round" stroke-linejoin="round"/>
<path d="M107.779 102.854H126.073" stroke="black" stroke-width="0.534454" stroke-linecap="round" stroke-linejoin="round"/>
<path d="M107.779 107.681H126.073" stroke="black" stroke-width="0.534454" stroke-linecap="round" stroke-linejoin="round"/>
<path d="M96.5677 134.949L117.273 116.89L137.868 134.949H96.5677Z" fill="#E3F2F2" stroke="black" stroke-width="0.534454" stroke-linecap="round" stroke-linejoin="round"/>
<path d="M218.677 190.498C218.677 190.498 216.417 203.405 216.074 207.225C215.73 211.046 215.387 226.586 217.983 237.126C219.536 243.455 221.683 249.608 224.393 255.494C224.393 255.494 226.124 262.947 227.141 264.948C228.157 266.948 236.861 282.402 236.861 282.402C236.861 282.402 236.339 288.762 235.996 289.855C235.652 290.949 234.429 297.668 234.78 299.669C235.13 301.669 235.645 302.942 235.123 305.489C234.601 308.036 233.907 310.575 235.123 312.763C236.339 314.95 239.293 315.122 240.159 313.849C240.937 312.804 241.507 311.605 241.835 310.325C242.163 309.045 242.243 307.708 242.069 306.395C241.547 302.798 239.808 298.035 240.159 296.035C240.512 294.463 241.036 292.937 241.718 291.488C241.718 291.488 248.32 305.669 248.664 306.762C249.007 307.856 249.708 312.396 250.037 313.849C250.367 315.302 252.298 313.302 252.991 312.41C253.685 311.518 256.289 307.683 255.739 305.136C255.19 302.59 253.678 298.05 253.678 298.05L256.268 301.647C256.319 301.731 256.397 301.793 256.489 301.82C256.58 301.847 256.678 301.838 256.763 301.794C256.848 301.75 256.915 301.675 256.951 301.583C256.986 301.491 256.988 301.388 256.955 301.294C256.468 299.546 255.808 297.23 255.581 296.791C255.231 296.071 255.059 293.697 253.672 291.704C252.284 289.711 248.464 291.517 248.464 291.517L245.51 281.704C245.51 281.704 250.896 263.163 249.852 256.976C248.808 250.789 248.293 246.256 248.636 244.983C248.98 243.709 255.581 224.528 255.581 220.521C255.581 216.514 255.753 206.887 253.672 201.614C252.255 198.12 250.63 194.722 248.808 191.441L218.677 190.498Z" fill="white" stroke="black" stroke-width="0.534454" stroke-miterlimit="10"/>
<path d="M247.908 289.402L245.579 281.675C245.579 281.675 250.965 263.134 249.921 256.947C248.876 250.76 248.361 246.227 248.705 244.954C249.048 243.68 255.038 224.449 255.65 220.492C256.734 214.127 256.072 207.571 253.74 201.585C252.323 198.091 250.699 194.693 248.876 191.412L218.65 190.498C218.65 190.498 216.389 203.405 216.046 207.225C215.702 211.046 215.359 226.586 217.956 237.126C219.517 243.456 221.673 249.609 224.393 255.494C224.393 255.494 226.124 262.947 227.141 264.948C228.157 266.948 236.861 282.402 236.861 282.402C236.861 282.402 236.559 286.056 236.264 288.301C237.464 289.217 238.86 289.812 240.33 290.035L241.704 291.474C241.704 291.474 245.689 293.309 247.908 289.402Z" fill="black" stroke="black" stroke-width="0.534454" stroke-miterlimit="10"/>
<path d="M243.422 274.056C242.591 270.703 241.546 266.552 240.894 264.221C239.678 259.861 235.858 248.767 235.858 248.767L232.733 215.592L226.831 211.592" stroke="white" stroke-width="0.534454" stroke-linecap="round" stroke-linejoin="round"/>
<path d="M244.713 279.308L244.061 276.653" stroke="white" stroke-width="0.534454" stroke-linecap="round" stroke-linejoin="round"/>
<path d="M238.819 207.765C237.143 210.52 235.274 213.887 234.491 216.348" stroke="white" stroke-width="0.534454" stroke-linecap="round" stroke-linejoin="round"/>
<path d="M241.938 202.865C241.938 202.865 241.251 203.887 240.248 205.426" stroke="white" stroke-width="0.534454" stroke-linecap="round" stroke-linejoin="round"/>
<path d="M255.65 296.762C255.3 296.042 255.128 293.668 253.74 291.675C253.534 291.398 253.272 291.171 252.973 291.012C252.674 290.853 252.344 290.765 252.009 290.754C253.191 293.884 252.091 296.388 252.696 298.762C253.383 301.489 253.912 303.848 252.875 305.849C251.837 307.849 249.227 308.942 249.227 308.942H249.179C249.501 310.698 249.866 312.906 250.092 313.842C250.443 315.281 252.352 313.295 253.046 312.403C253.74 311.511 256.344 307.676 255.794 305.129C255.245 302.582 253.733 298.042 253.733 298.042L256.742 302.201C256.778 302.249 256.829 302.283 256.886 302.297C256.943 302.31 257.002 302.303 257.055 302.276C257.107 302.249 257.149 302.204 257.174 302.148C257.198 302.093 257.203 302.03 257.189 301.971C256.68 300.201 255.89 297.265 255.65 296.762Z" fill="black" stroke="black" stroke-width="0.534454" stroke-miterlimit="10"/>
<path d="M242.151 306.791C241.897 307.654 241.567 308.719 241.244 309.669C240.557 311.669 238.29 311.827 236.731 310.036C235.75 308.739 235.2 307.143 235.164 305.489C234.642 308.036 233.948 310.575 235.164 312.762C236.38 314.95 239.334 315.122 240.2 313.849C241.686 311.843 242.383 309.318 242.151 306.791Z" fill="black" stroke="black" stroke-width="0.534454" stroke-miterlimit="10"/>
<path d="M216.087 145.798C216.087 145.798 213.449 146.762 213.559 147.122C213.669 147.482 209.348 170.145 209.348 170.145C209.348 170.145 206.277 178.49 206.6 181.469C206.923 184.447 209.348 188.023 212.061 188.023C212.942 188.043 213.81 187.809 214.572 187.347C215.334 186.885 215.96 186.213 216.383 185.404C216.953 184.57 218.89 180.634 218.89 180.634C218.89 180.634 218.203 188.145 217.976 188.858C217.75 189.57 216.602 191.476 217.179 192.074C218.056 192.852 219.059 193.459 220.14 193.865C225.864 195.101 231.708 195.62 237.548 195.412C245.29 194.937 249.955 192.793 249.955 192.793C250.211 191.9 250.516 191.023 250.869 190.167C251.095 189.807 251.556 189.217 251.556 189.217C251.556 189.217 258.837 188.383 259.291 187.901C259.744 187.419 261.001 185.404 260.885 182.181C260.768 178.958 261.908 151.079 261.345 150.482C260.32 149.72 259.238 149.046 258.109 148.467L244.926 140.748L225.265 143.453L216.087 145.798Z" fill="#008080" stroke="black" stroke-width="0.534454" stroke-linecap="round" stroke-linejoin="round"/>
<path d="M216.225 151.733C216.225 151.733 218.608 156.302 219.199 159.216" stroke="black" stroke-width="0.534454" stroke-miterlimit="10"/>
<path d="M211.127 171.907C211.127 171.907 214.239 172.317 215.428 174.066" stroke="black" stroke-width="0.534454" stroke-linecap="round" stroke-linejoin="round"/>
<path d="M214.5 171.698C214.5 171.698 216.025 172.526 216.355 173.288" stroke="black" stroke-width="0.534454" stroke-linecap="round" stroke-linejoin="round"/>
<path d="M208.098 176.202C208.098 176.202 209.348 173.584 211.285 173.224C213.222 172.864 215.95 174.771 215.95 174.771L217.544 174.174L219.604 178.584L218.917 180.613" stroke="black" stroke-width="0.534454" stroke-linecap="round" stroke-linejoin="round"/>
<path d="M256.144 153.194C256.144 153.194 254.434 157.244 253.891 158.568" stroke="black" stroke-width="0.534454" stroke-linecap="round" stroke-linejoin="round"/>
<path d="M251.569 189.189L244.947 182.642" stroke="black" stroke-width="0.534454" stroke-linecap="round" stroke-linejoin="round"/>
<path d="M248.972 188.224L242.336 184.627" stroke="black" stroke-width="0.534454" stroke-linecap="round" stroke-linejoin="round"/>
<path d="M223.383 194.181L240.914 192.196" stroke="black" stroke-width="0.534454" stroke-linecap="round" stroke-linejoin="round"/>
<path d="M237.961 150.755C237.961 150.755 235.941 171.475 235.824 172.59" stroke="black" stroke-width="0.534454" stroke-linecap="round" stroke-linejoin="round"/>
<path d="M234.752 180.656L234.161 187.476" stroke="black" stroke-width="0.534454" stroke-linecap="round" stroke-linejoin="round"/>
<path d="M246.17 137.287L244.425 141.906L238.675 148.791L233.536 141.69L233.962 132.733L240.42 138.899L246.17 137.287Z" fill="white" stroke="black" stroke-width="0.534454" stroke-miterlimit="10"/>
<path d="M240.942 108.897C240.942 108.897 230.823 112.732 229.428 115.746C228.249 118.597 227.344 121.564 226.728 124.603C226.728 124.97 221.92 126.984 220.972 128.531C220.023 130.078 221.054 134.654 220.972 135.934C220.889 137.215 216.438 138.675 215.998 141.503C215.7 142.929 215.731 144.408 216.087 145.82L223.85 144.539C223.85 144.539 228.906 146.64 231.613 145.546C234.319 144.453 234.574 138.97 234.402 137.143C234.23 135.316 233.962 132.754 233.962 132.754L237.541 122.149L245.648 119.588L250.793 124.624L246.067 137.632C246.067 137.632 244.576 140.791 244.837 141.611C245.098 142.431 247.482 143.258 247.482 143.258L258.123 148.467C258.395 147.616 258.484 146.712 258.384 145.82C258.212 144.381 255.938 141.251 255.938 140.337C255.938 139.424 258.906 135.862 257.512 132.668C256.117 129.474 254.633 127.732 253.85 126.092C253.067 124.452 254.537 121.336 252.978 117.322C251.418 113.307 246.259 109.832 244.864 109.012C243.47 108.192 240.942 108.897 240.942 108.897Z" fill="black" stroke="black" stroke-width="0.534454" stroke-miterlimit="10"/>
<path d="M244.603 116.293C244.603 116.293 236.758 119.948 236.147 121.682C235.535 123.416 233.88 131.459 233.962 132.733C234.044 134.006 239.286 140.589 240.33 140.776C241.374 140.963 246.753 137.697 247.715 136.963C248.677 136.229 251.837 125.243 251.755 123.509C251.672 121.775 245.476 116.394 244.603 116.293Z" fill="white" stroke="black" stroke-width="0.534454" stroke-miterlimit="10"/>
<path d="M236.071 123.106C241.416 121.61 244.61 116.293 244.61 116.293C244.61 116.293 248.547 123.667 252.112 124.79" stroke="black" stroke-width="0.534454" stroke-miterlimit="10"/>
<path d="M244.604 116.293C244.604 116.293 236.779 123.106 234.107 123.667" stroke="black" stroke-width="0.534454" stroke-miterlimit="10"/>
<path d="M244.775 132.646C244.433 132.924 244.04 133.125 243.62 133.235C243.2 133.345 242.763 133.363 242.336 133.287" stroke="black" stroke-width="0.534454" stroke-linecap="round" stroke-linejoin="round"/>
<path d="M239.369 133.92C239.972 134.644 240.789 135.136 241.69 135.318C242.591 135.501 243.525 135.363 244.342 134.927" stroke="black" stroke-width="0.534454" stroke-linecap="round" stroke-linejoin="round"/>
<path d="M242.336 125.157C242.336 125.157 240.159 123.603 238.063 124.603" stroke="black" stroke-width="0.534454" stroke-linecap="round" stroke-linejoin="round"/>
<path d="M246.376 125.703C246.376 125.703 248.815 124.696 249.948 125.883" stroke="black" stroke-width="0.534454" stroke-linecap="round" stroke-linejoin="round"/>
<path d="M240.763 127.905C240.708 128.459 240.33 128.869 239.925 128.826C239.705 128.766 239.516 128.62 239.397 128.417C239.278 128.215 239.238 127.972 239.286 127.74C239.348 127.193 239.719 126.783 240.131 126.826C240.349 126.885 240.537 127.031 240.655 127.232C240.772 127.433 240.811 127.675 240.763 127.905Z" fill="black"/>
<path d="M247.654 128.985C247.672 129.107 247.664 129.232 247.628 129.35C247.593 129.468 247.533 129.576 247.451 129.666C247.37 129.756 247.27 129.825 247.159 129.867C247.048 129.91 246.929 129.925 246.812 129.912C246.694 129.899 246.581 129.858 246.482 129.791C246.382 129.725 246.298 129.636 246.236 129.53C246.175 129.424 246.138 129.305 246.127 129.182C246.117 129.059 246.134 128.934 246.177 128.819C246.232 128.265 246.609 127.855 247.015 127.898C247.234 127.958 247.424 128.104 247.543 128.307C247.662 128.509 247.702 128.752 247.654 128.985Z" fill="black"/>
<path d="M230.665 145.676L233.742 151.374L237.644 147.287L233.536 141.69L230.665 145.676Z" fill="#008080" stroke="black" stroke-width="0.534454" stroke-linecap="round" stroke-linejoin="round"/>
<path d="M240.111 147.503L242.886 151.698L247.482 143.237L244.94 140.726L240.111 147.503Z" fill="#008080" stroke="black" stroke-width="0.534454" stroke-linecap="round" stroke-linejoin="round"/>
<path d="M227.113 175.921H221.081L220.326 161.295H227.869L227.113 175.921Z" fill="white" stroke="black" stroke-width="0.534454" stroke-miterlimit="10"/>
<path d="M228.535 160.043H219.529V162.259H228.535V160.043Z" fill="black" stroke="black" stroke-width="0.534454" stroke-miterlimit="10"/>
<path d="M227.408 159.007H220.786V160.051H227.408V159.007Z" fill="black" stroke="black" stroke-width="0.534454" stroke-miterlimit="10"/>
<path d="M220.037 177.238C220.037 177.274 220.037 177.31 220.037 177.325C219.857 177.869 219.529 178.346 219.093 178.697C218.657 179.049 218.133 179.259 217.585 179.303C217.287 179.335 216.986 179.302 216.701 179.205C216.415 179.108 216.153 178.951 215.929 178.742C215.518 178.274 215.275 177.671 215.242 177.037C215.129 176.45 215.159 175.844 215.33 175.273C215.5 174.702 215.806 174.185 216.218 173.77C216.506 173.411 217.592 172.483 217.674 172.022L218.285 166.986C218.285 166.986 224.276 165.547 224.791 165.626C224.898 165.642 224.999 165.684 225.087 165.749C225.175 165.814 225.248 165.899 225.299 165.999C225.35 166.098 225.377 166.209 225.38 166.322C225.382 166.434 225.36 166.546 225.313 166.648C225.183 167.058 224.276 167.259 224.077 167.324C223.877 167.389 220.951 168.144 220.951 168.144L219.914 169.439C220.418 169.176 220.939 168.947 221.473 168.756C221.672 168.756 224.908 168.281 225.313 168.216C225.431 168.211 225.548 168.237 225.653 168.293C225.758 168.349 225.848 168.432 225.914 168.535C225.979 168.638 226.018 168.756 226.028 168.879C226.037 169.002 226.015 169.126 225.966 169.238C225.705 169.785 225.512 169.914 225.313 169.914C225.114 169.914 221.878 170.533 221.878 170.533L220.058 172.166C220.058 172.166 222.531 171.346 222.806 171.346C223.081 171.346 225.341 171.281 225.409 171.691C225.46 171.899 225.435 172.119 225.338 172.309C225.242 172.498 225.081 172.642 224.887 172.713C224.434 172.85 222.675 173.123 222.675 173.123L220.717 174.209H222.607C222.607 174.209 224.434 174.828 224.819 174.929C225.203 175.029 225.506 175.202 224.949 175.814C224.393 176.425 220.381 175.936 220.381 175.936C220.381 175.936 220.106 176.907 220.037 177.238Z" fill="white" stroke="black" stroke-width="0.534454" stroke-miterlimit="10"/>
<path d="M251.61 174.303L250.319 176.109C250.319 176.109 250.319 186.901 250.724 187.8C251.13 188.699 254.283 191.189 255.98 191.189C257.676 191.189 261.001 187.124 261.159 186.448C261.317 185.771 256.955 172.634 257.038 172.296C257.12 171.958 256.639 171.533 256.069 171.533C255.499 171.533 251.61 174.303 251.61 174.303Z" fill="#008080" stroke="black" stroke-width="0.534454" stroke-linecap="round" stroke-linejoin="round"/>
<path d="M256.096 167.878L256.303 172.439C256.303 172.439 256.062 174.303 254.929 175.065C254.112 175.548 253.194 175.81 252.256 175.828L251.528 174.303L250.401 173.116L256.096 167.878Z" fill="white" stroke="black" stroke-width="0.534454" stroke-miterlimit="10"/>
<path d="M257.402 161.676L249.206 159.885L244.074 174.216L251.006 175.54L257.402 161.676Z" fill="black" stroke="black" stroke-width="0.534454" stroke-miterlimit="10"/>
<path d="M256.282 165.317C256.282 165.317 250.786 165.576 250.724 166.036C250.662 166.497 250.848 167.058 251.033 167.123C251.219 167.187 256.096 167.893 256.096 167.893C256.096 167.893 257.47 167.569 257.374 166.418C257.377 166.269 257.351 166.12 257.296 165.982C257.242 165.845 257.161 165.72 257.058 165.616C256.956 165.513 256.834 165.433 256.7 165.381C256.567 165.33 256.424 165.308 256.282 165.317Z" fill="white" stroke="black" stroke-width="0.534454" stroke-miterlimit="10"/>
<path d="M253.17 167.554C253.17 167.554 248.361 166.979 248.107 167.302C247.853 167.626 247.619 168.065 248.347 168.389C250.152 169.018 251.987 169.551 253.843 169.986C254.177 169.966 254.504 169.87 254.799 169.705C255.094 169.54 255.352 169.309 255.554 169.029C255.644 168.877 255.702 168.707 255.723 168.529C255.745 168.351 255.729 168.171 255.677 168L253.17 167.554Z" fill="white" stroke="black" stroke-width="0.534454" stroke-miterlimit="10"/>
<path d="M250.669 169.217C250.669 169.217 247.008 168.454 246.822 168.835C246.637 169.217 246.582 169.857 246.946 170.116C247.31 170.375 252.194 171.771 252.497 171.9C252.799 172.03 253.534 171.648 253.774 171.138C253.918 170.772 253.94 170.366 253.836 169.986L250.669 169.217Z" fill="white" stroke="black" stroke-width="0.534454" stroke-miterlimit="10"/>
<path d="M250.786 171.454C250.786 171.454 248.038 170.878 247.921 171.202C247.805 171.526 247.736 172.223 248.286 172.411C248.835 172.598 252.009 173.943 252.559 173.562C253.108 173.18 252.923 172.159 252.923 172.159L250.786 171.454Z" fill="white" stroke="black" stroke-width="0.534454" stroke-miterlimit="10"/>
<path d="M267.177 87.3779H292.094C293.212 87.3779 294.285 87.8434 295.076 88.6718C295.867 89.5002 296.312 90.6238 296.312 91.7954V109.48C296.312 110.651 295.867 111.775 295.076 112.603C294.285 113.432 293.212 113.897 292.094 113.897H277.461L270.77 123.768V113.897H267.177C266.623 113.898 266.074 113.785 265.561 113.563C265.048 113.341 264.583 113.016 264.19 112.606C263.798 112.196 263.487 111.708 263.274 111.172C263.062 110.635 262.952 110.06 262.952 109.48V91.7954C262.952 91.2147 263.062 90.6397 263.274 90.1032C263.487 89.5668 263.798 89.0795 264.19 88.6692C264.583 88.2589 265.048 87.9337 265.561 87.7121C266.074 87.4906 266.623 87.377 267.177 87.3779Z" fill="black" stroke="black" stroke-width="0.534454" stroke-linecap="round" stroke-linejoin="round"/>
<path d="M277.935 110.228C277.459 110.206 276.993 110.069 276.575 109.828C276.157 109.587 275.797 109.249 275.524 108.84L270.997 102.041C270.54 101.336 270.367 100.472 270.514 99.6343C270.662 98.7969 271.118 98.0541 271.785 97.5668C272.452 97.0796 273.275 96.887 274.077 97.0308C274.878 97.1747 275.593 97.6434 276.067 98.3355L278.265 101.638L287.196 90.2416C287.454 89.9109 287.771 89.6367 288.131 89.4346C288.49 89.2325 288.883 89.1065 289.289 89.0637C289.695 89.0209 290.105 89.0623 290.495 89.1854C290.886 89.3085 291.249 89.5109 291.565 89.7811C291.881 90.0514 292.142 90.3841 292.335 90.7603C292.528 91.1364 292.649 91.5488 292.69 91.9737C292.73 92.3986 292.691 92.8277 292.573 93.2366C292.456 93.6455 292.263 94.0262 292.004 94.3569L280.45 109.048C280.159 109.417 279.794 109.715 279.38 109.919C278.967 110.123 278.516 110.228 278.059 110.228H277.935Z" fill="#008080"/>
<path d="M289.593 89.7739C290.15 89.7714 290.691 89.9753 291.118 90.3494C291.363 90.5584 291.566 90.8158 291.715 91.1069C291.864 91.3981 291.957 91.7173 291.988 92.0461C292.02 92.375 291.989 92.7071 291.897 93.0233C291.806 93.3396 291.655 93.6338 291.455 93.8892L279.921 108.58C279.694 108.868 279.41 109.1 279.088 109.26C278.766 109.419 278.415 109.501 278.059 109.501H277.977C277.606 109.485 277.243 109.38 276.918 109.192C276.592 109.005 276.313 108.742 276.101 108.422L271.574 101.623C271.381 101.353 271.242 101.044 271.165 100.717C271.089 100.389 271.076 100.048 271.127 99.7146C271.179 99.3814 271.294 99.0623 271.465 98.7765C271.637 98.4907 271.861 98.2439 272.126 98.0509C272.39 97.8579 272.689 97.7225 273.005 97.6529C273.32 97.5833 273.646 97.5808 273.962 97.6456C274.278 97.7104 274.579 97.8411 274.846 98.0301C275.113 98.2191 275.342 98.4624 275.517 98.7455L278.265 102.825L287.786 90.702C288.01 90.4131 288.293 90.1804 288.614 90.021C288.935 89.8617 289.286 89.7797 289.641 89.7811M289.641 88.3422C289.083 88.3404 288.532 88.4685 288.027 88.7174C287.522 88.9663 287.076 89.3296 286.722 89.7811L278.354 100.436L276.678 97.9181C276.08 97.1278 275.217 96.6063 274.264 96.4602C273.311 96.3141 272.341 96.5545 271.552 97.1321C270.763 97.7097 270.214 98.5811 270.018 99.5683C269.821 100.555 269.992 101.584 270.495 102.444L275.023 109.25C275.357 109.749 275.797 110.161 276.308 110.454C276.819 110.747 277.388 110.914 277.97 110.94H278.121C278.679 110.941 279.23 110.812 279.735 110.564C280.239 110.315 280.685 109.952 281.04 109.501L292.513 94.8101C292.969 94.2309 293.259 93.5276 293.347 92.7826C293.436 92.0375 293.321 91.2813 293.015 90.6023C292.709 89.9233 292.224 89.3496 291.619 88.9481C291.013 88.5466 290.31 88.334 289.593 88.335L289.641 88.3422Z" fill="#008080" fill-opacity="0.18"/>
</g>
<defs>
<clipPath id="clip0_584_7904">
<rect width="332" height="315" fill="white"/>
</clipPath>
</defs>
</svg>
