<svg width="332" height="315" viewBox="0 0 332 315" fill="none" xmlns="http://www.w3.org/2000/svg">
<g clip-path="url(#clip0_584_7430)">
<path opacity="0.1" d="M324.275 176.033C314.827 203.644 294.467 233.915 264.498 243.767C219.225 258.664 215.163 294.459 133.016 294.216C121.02 294.232 109.057 292.993 97.3385 290.522C91.609 289.294 85.9666 287.715 80.4454 285.795C31.7691 268.867 5.11973 228.608 1.30267 185.587C-3.70503 129.001 36.2305 100.458 62.2355 83.6239C88.2406 66.7897 117.937 4.3151 198.718 3.94371C211.05 3.83713 223.353 5.10374 235.383 7.71838C262.81 13.7957 291.035 28.4285 307.991 50.7322C309.259 52.4068 310.477 54.1084 311.654 55.8776C334.549 90.2009 337.162 138.38 324.275 176.033Z" fill="#008080"/>
<path opacity="0.1" d="M324.275 176.033C314.827 203.644 294.467 233.915 264.498 243.767C219.225 258.664 215.163 294.459 133.016 294.216C121.02 294.232 109.057 292.993 97.3385 290.522C91.609 289.294 85.9666 287.715 80.4454 285.795C31.7691 268.867 5.11973 228.608 1.30267 185.587C-3.70503 129.001 36.2305 100.458 62.2355 83.6239C88.2406 66.7897 117.937 4.3151 198.718 3.94371C211.05 3.83713 223.353 5.10374 235.383 7.71838C262.81 13.7957 291.035 28.4285 307.991 50.7322C309.259 52.4068 310.477 54.1084 311.654 55.8776C334.549 90.2009 337.162 138.38 324.275 176.033Z" fill="#CCE6E6"/>
<path d="M10.9959 8.74463L5.88318 14.464H97.2685V8.74463" stroke="black" stroke-width="0.471607" stroke-linecap="round" stroke-linejoin="round"/>
<path d="M10.9959 17.0029L5.88318 22.7223H97.2685V17.0029" stroke="black" stroke-width="0.471607" stroke-linecap="round" stroke-linejoin="round"/>
<path d="M10.9959 25.2681L5.88318 30.9875H97.2685V25.2681" stroke="black" stroke-width="0.471607" stroke-linecap="round" stroke-linejoin="round"/>
<path d="M10.9959 33.5264L5.88318 39.2458H97.2685V33.5264" stroke="black" stroke-width="0.471607" stroke-linecap="round" stroke-linejoin="round"/>
<path d="M10.9959 41.7847L5.88318 47.5041H97.2685V41.7847" stroke="black" stroke-width="0.471607" stroke-linecap="round" stroke-linejoin="round"/>
<path d="M10.9959 50.0498L5.88318 55.7692H97.2685V50.0498" stroke="black" stroke-width="0.471607" stroke-linecap="round" stroke-linejoin="round"/>
<path d="M10.9959 58.3086L5.88318 64.028H97.2685V58.3086" stroke="black" stroke-width="0.471607" stroke-linecap="round" stroke-linejoin="round"/>
<path d="M10.9959 66.5732L5.88318 72.2927H97.2685V66.5732" stroke="black" stroke-width="0.471607" stroke-linecap="round" stroke-linejoin="round"/>
<path d="M10.9959 74.8315L5.88318 80.551H97.2685V74.8315" stroke="black" stroke-width="0.471607" stroke-linecap="round" stroke-linejoin="round"/>
<path d="M10.9959 83.0972L5.88318 88.8166H97.2685V83.0972" stroke="black" stroke-width="0.471607" stroke-linecap="round" stroke-linejoin="round"/>
<path d="M10.9959 91.3555L5.88318 97.0749H97.2685V91.3555" stroke="black" stroke-width="0.471607" stroke-linecap="round" stroke-linejoin="round"/>
<path d="M10.9959 99.6138L5.88318 105.333H97.2685V99.6138" stroke="black" stroke-width="0.471607" stroke-linecap="round" stroke-linejoin="round"/>
<path d="M10.9959 107.879L5.88318 113.598H97.2685V107.879" stroke="black" stroke-width="0.471607" stroke-linecap="round" stroke-linejoin="round"/>
<path d="M10.9959 116.137L5.88318 121.857H97.2685V116.137" stroke="black" stroke-width="0.471607" stroke-linecap="round" stroke-linejoin="round"/>
<path d="M10.9959 124.402L5.88318 130.115H97.2685V124.402" stroke="black" stroke-width="0.471607" stroke-linecap="round" stroke-linejoin="round"/>
<path d="M10.9959 132.661L5.88318 138.38H97.2685V132.661" stroke="black" stroke-width="0.471607" stroke-linecap="round" stroke-linejoin="round"/>
<path d="M10.9959 140.919L5.88318 146.638H97.2685V140.919" stroke="black" stroke-width="0.471607" stroke-linecap="round" stroke-linejoin="round"/>
<path d="M101.618 0.337402H5.75006V8.82537H101.618V0.337402Z" stroke="black" stroke-width="0.471607" stroke-linecap="round" stroke-linejoin="round"/>
<path d="M99.4536 9.21729V93.1516" stroke="black" stroke-width="0.471607" stroke-linecap="round" stroke-linejoin="round"/>
<path d="M101.142 93.4146H98.0179V99.3298H101.142V93.4146Z" stroke="black" stroke-width="0.471607" stroke-linecap="round" stroke-linejoin="round"/>
<path d="M40.2086 177.268C40.2195 177.256 40.2255 177.241 40.2255 177.224C40.2255 177.208 40.2195 177.193 40.2086 177.181C40.1928 177.176 40.1756 177.176 40.1602 177.182C40.1447 177.189 40.1321 177.2 40.1246 177.214C38.1634 181.74 36.6144 186.421 35.4951 191.206C34.3506 195.99 33.4855 200.832 32.9037 205.71L32.5465 209.377C32.4905 209.991 32.4204 210.599 32.3714 211.213L32.2734 213.05C32.2173 214.279 32.1403 215.501 32.0983 216.73L32.1333 220.41L32.1753 222.254C32.2103 222.868 32.2524 223.483 32.2944 224.091C32.3924 225.319 32.4695 226.542 32.5885 227.764C32.8267 230.202 33.2119 232.633 33.6041 235.05C33.604 235.058 33.6057 235.065 33.6089 235.072C33.6121 235.079 33.6169 235.086 33.6229 235.091C33.6289 235.096 33.6359 235.1 33.6435 235.102C33.6511 235.104 33.6592 235.105 33.6671 235.104C33.6845 235.104 33.7014 235.098 33.7143 235.087C33.7273 235.075 33.7354 235.06 33.7372 235.043C33.7372 233.814 33.6741 232.592 33.6461 231.377C33.6181 230.161 33.499 228.939 33.52 227.717C33.541 226.494 33.52 225.279 33.478 224.064L33.443 222.234V220.41V216.757L33.548 213.111L33.5831 211.288C33.5831 210.68 33.6531 210.072 33.6881 209.464L33.9193 205.818C34.3536 200.962 35.0691 196.133 36.0624 191.354C37.0202 186.552 38.4075 181.839 40.2086 177.268Z" fill="black"/>
<path d="M40.7689 196.358C40.7722 196.342 40.7698 196.325 40.7622 196.31C40.7546 196.296 40.7422 196.284 40.7269 196.277C40.7187 196.274 40.7098 196.272 40.701 196.273C40.6921 196.273 40.6834 196.275 40.6755 196.279C40.6676 196.283 40.6606 196.288 40.6549 196.295C40.6493 196.301 40.6452 196.309 40.6429 196.317C38.4769 202.404 37.0388 208.709 36.3566 215.11C36.0204 218.304 35.6562 221.504 35.6002 224.712C35.5198 227.925 35.639 231.141 35.9573 234.341C35.9586 234.356 35.9647 234.369 35.9748 234.38C35.9849 234.391 35.9985 234.399 36.0134 234.402C36.0226 234.403 36.0319 234.402 36.0408 234.399C36.0496 234.397 36.0579 234.392 36.065 234.387C36.0722 234.381 36.0781 234.374 36.0825 234.366C36.0868 234.358 36.0895 234.35 36.0904 234.341C36.4756 231.147 36.7067 227.953 36.9379 224.766C37.169 221.579 37.204 218.385 37.4211 215.197C37.6229 212.016 38.0111 208.849 38.5838 205.71C39.1333 202.556 39.8628 199.434 40.7689 196.358Z" fill="black"/>
<path d="M51.7299 203.07C51.7168 203.057 51.6992 203.05 51.6809 203.05C51.6625 203.05 51.6449 203.057 51.6318 203.07C48.8801 204.76 46.4002 206.831 44.2709 209.214C43.2024 210.417 42.2417 211.704 41.3993 213.063L40.811 214.137L40.3487 215.251C40.1936 215.62 40.058 215.997 39.9425 216.379C39.8235 216.757 39.6974 217.142 39.5853 217.52C38.7483 220.572 38.2414 223.699 38.0725 226.852C37.9064 229.99 38.0283 233.135 38.4367 236.252C38.4379 236.266 38.4441 236.28 38.4542 236.291C38.4643 236.302 38.4778 236.31 38.4927 236.312C38.511 236.313 38.5287 236.307 38.5428 236.296C38.5569 236.285 38.5665 236.269 38.5698 236.252L39.4032 226.947C39.6344 223.868 40.0435 220.804 40.6289 217.77C40.7129 217.399 40.825 217.027 40.9231 216.663C41.0128 216.29 41.1251 215.922 41.2592 215.562L41.6795 214.488L42.1837 213.475C42.9447 212.121 43.8258 210.834 44.8171 209.626C46.7713 207.157 49.091 204.977 51.7019 203.157C51.7161 203.148 51.7266 203.134 51.7316 203.118C51.7367 203.102 51.7361 203.085 51.7299 203.07Z" fill="black"/>
<path d="M46.414 215.022C44.9893 216.027 43.8442 217.356 43.0802 218.891C42.2745 220.394 41.6472 221.979 41.2102 223.618C41.0792 224.022 40.9693 224.432 40.8811 224.847L40.5799 226.082C40.4201 226.913 40.3125 227.752 40.2577 228.594C40.2577 229.438 40.2157 230.283 40.2577 231.12C40.3194 231.963 40.434 232.802 40.6009 233.632C40.6043 233.645 40.6113 233.657 40.6212 233.666C40.631 233.676 40.6434 233.683 40.6569 233.686C40.6657 233.688 40.6749 233.688 40.6837 233.686C40.6926 233.684 40.7009 233.681 40.7082 233.676C40.7156 233.671 40.7216 233.664 40.7261 233.656C40.7305 233.649 40.7332 233.64 40.734 233.632C40.9354 232.817 41.0897 231.992 41.1962 231.16C41.3293 230.343 41.4624 229.526 41.5674 228.716C41.6725 227.906 41.7986 227.095 41.8686 226.278C41.9386 225.461 42.0437 224.644 42.2328 223.847C42.5157 222.237 42.9856 220.663 43.6335 219.154C44.2195 217.608 45.1799 216.219 46.4351 215.103C46.441 215.098 46.4458 215.091 46.4491 215.084C46.4523 215.078 46.454 215.07 46.454 215.062C46.454 215.055 46.4523 215.047 46.4491 215.04C46.4458 215.033 46.441 215.027 46.4351 215.022C46.4281 215.021 46.421 215.021 46.414 215.022Z" fill="black"/>
<path d="M31.0267 224.34C30.6625 220.215 29.9552 216.123 29.2898 212.037C28.6244 207.952 27.8891 203.873 27.1046 199.802C26.3202 195.73 25.4657 191.699 24.5553 187.647C24.5506 187.634 24.5417 187.622 24.5298 187.613C24.5178 187.605 24.5035 187.601 24.4887 187.601C24.474 187.601 24.4596 187.605 24.4476 187.613C24.4357 187.622 24.4268 187.634 24.4222 187.647C25.1576 191.699 25.8229 195.804 26.4463 199.889C27.0696 203.975 27.6929 208.067 28.2322 212.159C28.7715 216.251 29.1637 220.37 29.696 224.455L31.2649 236.772C31.2649 236.788 31.2715 236.803 31.2833 236.815C31.2952 236.826 31.3112 236.833 31.3279 236.833C31.3449 236.831 31.361 236.825 31.3737 236.814C31.3864 236.803 31.3949 236.788 31.3979 236.772C31.447 235.732 31.447 234.699 31.475 233.659C31.503 232.619 31.426 231.586 31.4119 230.553C31.3699 228.473 31.1878 226.413 31.0267 224.34Z" fill="black"/>
<path d="M28.4564 224.286C28.2252 222.645 27.9171 221.018 27.5879 219.397L26.9926 216.987C26.7895 216.183 26.6074 215.38 26.3622 214.583C25.5083 211.379 24.4128 208.24 23.0845 205.19L22.5592 204.056L21.9849 202.941C21.6277 202.192 21.1865 201.483 20.7662 200.76C19.9295 199.311 18.8903 197.98 17.6776 196.803C17.6717 196.797 17.6646 196.793 17.6568 196.79C17.649 196.786 17.6405 196.785 17.632 196.785C17.6235 196.785 17.6151 196.786 17.6073 196.79C17.5995 196.793 17.5924 196.797 17.5865 196.803C17.5804 196.809 17.5755 196.816 17.5721 196.823C17.5688 196.831 17.5671 196.839 17.5671 196.847C17.5671 196.855 17.5688 196.864 17.5721 196.871C17.5755 196.879 17.5804 196.886 17.5865 196.891C18.7071 198.113 19.6496 199.476 20.388 200.943C20.7662 201.672 21.1584 202.395 21.4736 203.158L21.9779 204.278L22.4261 205.426C23.611 208.489 24.5637 211.63 25.2767 214.826C25.6689 216.413 25.928 218.033 26.2502 219.634L26.6494 222.058C26.7965 222.862 26.9716 223.658 27.0906 224.469C27.3568 226.082 27.6649 227.696 27.9591 229.31C28.2533 230.924 28.5264 232.551 28.8766 234.165C28.8799 234.181 28.8887 234.195 28.9015 234.205C28.9143 234.214 28.9303 234.22 28.9466 234.219C28.9634 234.219 28.9794 234.213 28.9912 234.202C29.003 234.19 29.0097 234.175 29.0097 234.159C29.0097 232.506 28.97 230.857 28.8906 229.209C28.8626 227.568 28.6315 225.927 28.4564 224.286Z" fill="black"/>
<path d="M24.9124 224.495C24.114 222.328 23.1965 220.208 22.195 218.128C21.1857 216.051 20.0466 214.035 18.7841 212.091C18.7709 212.082 18.755 212.077 18.7386 212.077C18.7222 212.077 18.7063 212.082 18.6931 212.091C18.6822 212.103 18.6763 212.119 18.6763 212.135C18.6763 212.151 18.6822 212.167 18.6931 212.179C19.7921 214.196 20.765 216.275 21.6067 218.405C22.4751 220.511 23.2595 222.659 23.9109 224.833C24.5622 227.007 25.0665 229.229 25.6618 231.417C26.2572 233.605 26.8035 235.806 27.5038 238.014C27.5081 238.027 27.5164 238.039 27.5277 238.047C27.5389 238.056 27.5526 238.061 27.5669 238.061C27.5843 238.061 27.6011 238.055 27.6141 238.044C27.627 238.033 27.6352 238.017 27.6369 238.001C27.6644 235.693 27.4414 233.389 26.9715 231.126C26.4692 228.867 25.7806 226.649 24.9124 224.495Z" fill="black"/>
<path d="M24.7654 231.714C24.3277 230.361 23.6909 229.076 22.8743 227.898C22.1162 226.691 21.1927 225.587 20.1289 224.617C19.5775 224.143 18.9847 223.716 18.3569 223.34C17.7451 222.958 17.0769 222.666 16.3748 222.476C16.3591 222.473 16.3429 222.476 16.3289 222.483C16.3149 222.491 16.3039 222.502 16.2978 222.517C16.2875 222.528 16.2817 222.542 16.2817 222.557C16.2817 222.572 16.2875 222.587 16.2978 222.598C17.5634 223.18 18.6839 224.018 19.5826 225.056C20.499 226.065 21.2694 227.189 21.8728 228.398C22.5241 229.587 22.8603 230.897 23.4276 232.119C23.6728 232.747 23.9249 233.375 24.2121 234.003C24.4564 234.655 24.7442 235.291 25.0735 235.907C25.0793 235.917 25.0874 235.925 25.0971 235.931C25.1069 235.937 25.1181 235.94 25.1296 235.941C25.1478 235.941 25.1655 235.935 25.1796 235.924C25.1937 235.913 25.2033 235.897 25.2066 235.88C25.2277 235.174 25.1996 234.468 25.1225 233.766C25.0875 233.084 24.9334 232.396 24.7654 231.714Z" fill="black"/>
<path d="M25.0245 193.555C22.8854 192.98 20.9501 191.852 19.428 190.293C17.906 188.734 16.855 186.803 16.3888 184.71C14.7639 177.417 19.9888 180.543 15.3102 169.084C10.6317 157.625 11.7103 155.032 13.3282 151.73C14.946 148.428 15.8495 149.475 17.2853 153.817C18.7211 158.159 23.9599 164.925 25.928 177.592C27.896 190.26 25.0245 193.555 25.0245 193.555Z" fill="#008080"/>
<path d="M38.892 181.239C38.892 181.239 34.2065 179.672 34.0314 171.171C33.8563 162.669 37.4492 164.418 37.9885 153.816C38.5278 143.215 39.2492 135.767 41.2313 135.585C43.2133 135.402 48.4311 140.791 50.2311 152.594C52.0311 164.398 47.8918 172.177 44.2919 175.674C40.692 179.172 38.892 181.239 38.892 181.239Z" fill="#008080"/>
<path d="M22.5102 203.799C22.5102 203.799 21.4246 197.553 19.2674 194.602C17.1103 191.651 12.4247 189.045 9.36409 183.319C6.30344 177.593 2.88559 174.817 3.06069 182.974C3.23578 191.131 7.01782 195.291 11.7033 198.073C16.3889 200.855 22.5102 203.799 22.5102 203.799Z" fill="#008080"/>
<path d="M20.528 214.556C20.528 214.556 16.2067 206.574 9.9103 200.673C3.6139 194.771 -1.43582 191.82 0.364153 194.771C2.16412 197.722 4.32829 197.553 7.36793 202.759C10.4076 207.965 9.52509 211.781 13.8464 214.731C18.1678 217.682 20.528 214.556 20.528 214.556Z" fill="#008080"/>
<path d="M19.9888 224.799C19.8067 224.279 19.6246 220.457 13.5103 217.372C7.39597 214.286 1.60385 215.461 2.34625 217.02C3.08865 218.58 6.84967 221.187 10.6247 222.747C14.3997 224.306 19.9888 224.799 19.9888 224.799Z" fill="#008080"/>
<path d="M38.5278 204.143C38.5278 204.143 35.8664 200.848 37.2671 193.906C38.6679 186.965 41.9456 188.7 45.5526 185.054C49.1595 181.408 48.4311 180.888 52.0311 177.072C55.631 173.257 58.8668 171.171 60.3095 172.73C61.7523 174.29 59.6092 179.152 57.431 181.927C55.2528 184.703 51.828 186.094 50.2311 189.565C48.6342 193.035 49.3276 198.593 45.1884 201.192C41.0491 203.792 38.5278 204.143 38.5278 204.143Z" fill="#008080"/>
<path d="M47.5276 206.054C47.5276 206.054 54.0131 198.957 58.6916 193.731C63.3702 188.504 65.1701 184.534 65.3522 188.005C65.5343 191.475 66.9701 194.251 63.1881 198.761C59.406 203.272 47.5276 206.054 47.5276 206.054Z" fill="#008080"/>
<path d="M44.1098 217.507C44.1098 217.507 43.9277 214.731 54.1882 208.31C64.4488 201.888 68.7701 200.672 67.6915 203.279C66.6129 205.885 62.0885 208.485 57.2489 213.171C52.4093 217.858 44.1098 217.507 44.1098 217.507Z" fill="#008080"/>
<path d="M25.4587 192.82C25.4587 192.82 23.0494 180.368 20.556 171.515C18.0627 162.663 16.4168 157.288 16.4168 157.288" stroke="black" stroke-width="0.471607" stroke-linecap="round" stroke-linejoin="round"/>
<path d="M38.4718 181.401C38.4718 181.401 42.8701 167.896 44.2709 159.711C45.6717 151.527 44.0888 145.484 43.3674 141.837" stroke="black" stroke-width="0.471607" stroke-linecap="round" stroke-linejoin="round"/>
<path d="M21.9428 203.536C20.0033 200.324 17.7844 197.277 15.3103 194.427C11.3461 189.916 8.30649 187.485 6.4855 183.143" stroke="black" stroke-width="0.471607" stroke-linecap="round" stroke-linejoin="round"/>
<path d="M38.5278 204.143C38.5278 204.143 39.9705 195.811 43.3884 191.475C46.8062 187.14 53.6489 180.367 56.3524 175.999" stroke="black" stroke-width="0.471607" stroke-linecap="round" stroke-linejoin="round"/>
<path d="M19.5616 224.617C19.5616 224.617 13.5103 220.815 9.18896 218.729" stroke="black" stroke-width="0.471607" stroke-linecap="round" stroke-linejoin="round"/>
<path d="M54.2512 259.589C53.845 249.062 41.7075 242.032 41.7075 242.032H23.1054C23.1054 242.032 10.9679 249.055 10.5617 259.589C10.1555 270.123 24.3171 308.734 24.3171 308.734H40.4958C40.4958 308.734 54.6504 270.123 54.2512 259.589Z" fill="black" stroke="black" stroke-width="0.471607" stroke-linecap="round" stroke-linejoin="round"/>
<path d="M44.1027 231.68H20.3669L23.1054 242.039H41.3643L44.1027 231.68Z" fill="black" stroke="black" stroke-width="0.471607" stroke-linecap="round" stroke-linejoin="round"/>
<path d="M328.988 308.733H3.52994" stroke="black" stroke-width="0.471607" stroke-linecap="round" stroke-linejoin="round"/>
<path d="M204.083 28.4283V260.46C204.083 263.518 202.823 266.452 200.579 268.615C198.336 270.778 195.293 271.993 192.121 271.993H88.1285C84.9559 271.993 81.9132 270.778 79.6698 268.615C77.4264 266.452 76.1661 263.518 76.1661 260.46V28.4216C76.1661 25.3645 77.4257 22.4327 79.6677 20.271C81.9098 18.1093 84.9507 16.8949 88.1215 16.8949H132.757L132.799 17.0232C133.919 20.8857 136.469 23.3909 139.312 23.3909H140.923C143.767 23.3909 146.323 20.8789 147.437 17.0165L147.486 16.8882H192.121C193.692 16.8882 195.248 17.1867 196.7 17.7668C198.152 18.3468 199.471 19.1969 200.582 20.2686C201.693 21.3403 202.574 22.6125 203.174 24.0126C203.775 25.4127 204.084 26.9132 204.083 28.4283Z" fill="white" stroke="black" stroke-width="0.471607" stroke-miterlimit="10"/>
<path d="M159.763 168.463H122.664C120.792 168.463 119.274 169.926 119.274 171.731V178.376C119.274 180.181 120.792 181.644 122.664 181.644H159.763C161.635 181.644 163.153 180.181 163.153 178.376V171.731C163.153 169.926 161.635 168.463 159.763 168.463Z" fill="black" stroke="black" stroke-width="0.471607" stroke-linecap="round" stroke-linejoin="round"/>
<path d="M76.1661 199.808V260.46C76.1661 263.518 77.4264 266.452 79.6698 268.615C81.9132 270.778 84.9559 271.993 88.1285 271.993H192.121C195.293 271.993 198.336 270.778 200.579 268.615C202.823 266.452 204.083 263.518 204.083 260.46V199.808H76.1661Z" fill="#DBDBDB" stroke="black" stroke-width="0.471607" stroke-linecap="round" stroke-linejoin="round"/>
<path d="M115.128 207.128H83.2399C82.3618 207.128 81.65 207.814 81.65 208.661V216.953C81.65 217.799 82.3618 218.486 83.2399 218.486H115.128C116.006 218.486 116.718 217.799 116.718 216.953V208.661C116.718 207.814 116.006 207.128 115.128 207.128Z" fill="white"/>
<path d="M154.37 207.128H122.482C121.604 207.128 120.892 207.814 120.892 208.661V216.953C120.892 217.799 121.604 218.486 122.482 218.486H154.37C155.248 218.486 155.96 217.799 155.96 216.953V208.661C155.96 207.814 155.248 207.128 154.37 207.128Z" fill="white"/>
<path d="M193.619 207.128H161.731C160.853 207.128 160.141 207.814 160.141 208.661V216.953C160.141 217.799 160.853 218.486 161.731 218.486H193.619C194.497 218.486 195.209 217.799 195.209 216.953V208.661C195.209 207.814 194.497 207.128 193.619 207.128Z" fill="white"/>
<path d="M115.128 221.646H83.2399C82.3618 221.646 81.65 222.332 81.65 223.179V231.471C81.65 232.318 82.3618 233.004 83.2399 233.004H115.128C116.006 233.004 116.718 232.318 116.718 231.471V223.179C116.718 222.332 116.006 221.646 115.128 221.646Z" fill="white"/>
<path d="M154.37 221.646H122.482C121.604 221.646 120.892 222.332 120.892 223.179V231.471C120.892 232.318 121.604 233.004 122.482 233.004H154.37C155.248 233.004 155.96 232.318 155.96 231.471V223.179C155.96 222.332 155.248 221.646 154.37 221.646Z" fill="white"/>
<path d="M193.619 221.646H161.731C160.853 221.646 160.141 222.332 160.141 223.179V231.471C160.141 232.318 160.853 233.004 161.731 233.004H193.619C194.497 233.004 195.209 232.318 195.209 231.471V223.179C195.209 222.332 194.497 221.646 193.619 221.646Z" fill="white"/>
<path d="M115.128 236.157H83.2399C82.3618 236.157 81.65 236.843 81.65 237.69V245.982C81.65 246.829 82.3618 247.515 83.2399 247.515H115.128C116.006 247.515 116.718 246.829 116.718 245.982V237.69C116.718 236.843 116.006 236.157 115.128 236.157Z" fill="white"/>
<path d="M154.37 236.157H122.482C121.604 236.157 120.892 236.843 120.892 237.69V245.982C120.892 246.829 121.604 247.515 122.482 247.515H154.37C155.248 247.515 155.96 246.829 155.96 245.982V237.69C155.96 236.843 155.248 236.157 154.37 236.157Z" fill="white"/>
<path d="M193.619 236.157H161.731C160.853 236.157 160.141 236.843 160.141 237.69V245.982C160.141 246.829 160.853 247.515 161.731 247.515H193.619C194.497 247.515 195.209 246.829 195.209 245.982V237.69C195.209 236.843 194.497 236.157 193.619 236.157Z" fill="white"/>
<path d="M154.37 250.675H122.482C121.604 250.675 120.892 251.362 120.892 252.208V260.5C120.892 261.347 121.604 262.033 122.482 262.033H154.37C155.248 262.033 155.96 261.347 155.96 260.5V252.208C155.96 251.362 155.248 250.675 154.37 250.675Z" fill="white"/>
<path d="M190.972 262.033H169.099L164.379 256.739L169.099 250.675H190.972V262.033Z" fill="white"/>
<path d="M141.525 69.4435L141.21 69.2139L140.895 69.4435C140.895 69.4435 124.786 78.2825 117.502 81.6386C117.502 81.6386 121.004 100.546 123.505 109.067C126.005 117.589 135.838 122.174 141.21 125.22C146.589 122.174 156.387 117.603 158.916 109.067C161.444 100.532 164.925 81.6386 164.925 81.6386C157.648 78.2825 141.525 69.4435 141.525 69.4435Z" fill="#008080"/>
<path d="M139.557 105.981L128.869 97.149C128.625 96.9472 128.424 96.701 128.278 96.4244C128.132 96.1477 128.044 95.8461 128.019 95.5366C127.968 94.9117 128.177 94.293 128.6 93.8166C129.022 93.3402 129.624 93.0452 130.272 92.9965C130.92 92.9477 131.562 93.1492 132.056 93.5566L139.06 99.3503L151.064 86.1896C151.494 85.7186 152.099 85.4312 152.748 85.3907C153.397 85.3502 154.036 85.5598 154.524 85.9735C155.013 86.3872 155.311 86.9711 155.353 87.5966C155.395 88.2222 155.178 88.8383 154.748 89.3093L139.557 105.981Z" fill="white"/>
<path d="M99.4817 135.773H84.9418V149.792H99.4817V135.773Z" fill="white" stroke="black" stroke-width="0.471607" stroke-miterlimit="10"/>
<path d="M119.078 135.773H104.538V149.792H119.078V135.773Z" fill="white" stroke="black" stroke-width="0.471607" stroke-miterlimit="10"/>
<path d="M138.682 135.773H124.142V149.792H138.682V135.773Z" fill="white" stroke="black" stroke-width="0.471607" stroke-miterlimit="10"/>
<path d="M158.285 135.773H143.745V149.792H158.285V135.773Z" fill="white" stroke="black" stroke-width="0.471607" stroke-miterlimit="10"/>
<path d="M177.882 135.773H163.342V149.792H177.882V135.773Z" fill="white" stroke="black" stroke-width="0.471607" stroke-miterlimit="10"/>
<path d="M197.485 135.773H182.946V149.792H197.485V135.773Z" fill="white" stroke="black" stroke-width="0.471607" stroke-miterlimit="10"/>
<path d="M204.083 39.2189V28.4148C204.079 25.3583 202.817 22.4282 200.574 20.2682C198.331 18.1082 195.291 16.8949 192.121 16.8949H147.493L147.451 17.0232C146.337 20.8857 143.781 23.3909 140.923 23.3909H139.312C136.469 23.3909 133.905 20.8789 132.799 17.0165L132.757 16.8882H88.1215C84.9507 16.8882 81.9098 18.1026 79.6677 20.2643C77.4257 22.4259 76.1661 25.3577 76.1661 28.4148V39.2189H204.083Z" fill="#DBDBDB" stroke="black" stroke-width="0.471607" stroke-linecap="round" stroke-linejoin="round"/>
<path d="M212.214 83.8462V60.6714H210.036V31.0007C210.037 28.5988 209.547 26.2202 208.595 24.0009C207.642 21.7816 206.245 19.7649 204.484 18.0662C202.722 16.3675 200.631 15.02 198.33 14.1006C196.028 13.1812 193.561 12.708 191.07 12.708H89.1791C86.6857 12.7054 84.2162 13.1765 81.9119 14.0946C79.6075 15.0127 77.5134 16.3598 75.7494 18.0587C73.9853 19.7575 72.5859 21.775 71.6311 23.9957C70.6763 26.2164 70.1848 28.5968 70.1848 31.0007V266.766C70.1848 269.168 70.6756 271.546 71.6292 273.765C72.5828 275.984 73.9804 278.001 75.7424 279.699C77.5043 281.397 79.5959 282.744 81.8978 283.662C84.1997 284.581 86.6668 285.053 89.158 285.052H191.07C193.561 285.053 196.028 284.581 198.329 283.662C200.631 282.743 202.722 281.396 204.483 279.698C206.245 278 207.642 275.984 208.594 273.765C209.547 271.546 210.037 269.168 210.036 266.766V103.597H212.214V89.9032H210.036V83.8259L212.214 83.8462ZM204.083 253.7C204.083 258.552 202.084 263.204 198.526 266.635C194.968 270.065 190.142 271.993 185.11 271.993H95.1393C90.1073 271.993 85.2813 270.065 81.7232 266.635C78.165 263.204 76.166 258.552 76.166 253.7V35.1805C76.1679 30.3302 78.1677 25.6791 81.7256 22.25C85.2836 18.8209 90.1085 16.8946 95.1393 16.8946H132.757L132.799 17.0229C133.919 20.8854 136.469 23.3906 139.312 23.3906H140.923C143.766 23.3906 146.323 20.8786 147.436 17.0162L147.485 16.8879H185.096C190.127 16.8879 194.951 18.8142 198.509 22.2433C202.067 25.6723 204.067 30.3234 204.069 35.1738L204.083 253.7Z" fill="#008080" stroke="black" stroke-width="0.471607" stroke-linecap="round" stroke-linejoin="round"/>
<path d="M189.55 15.2271H90.6989C85.8513 15.2288 81.2024 17.0849 77.7726 20.3878C74.3429 23.6908 72.4124 28.1707 72.405 32.8445V264.896C72.405 269.574 74.3324 274.06 77.7632 277.368C81.1939 280.676 85.8471 282.534 90.6989 282.534H189.55C194.402 282.534 199.055 280.676 202.486 277.368C205.917 274.06 207.844 269.574 207.844 264.896V32.8445C207.837 28.1707 205.906 23.6908 202.476 20.3878C199.047 17.0849 194.398 15.2288 189.55 15.2271ZM204.083 254.328C204.081 259.007 202.152 263.493 198.72 266.8C195.288 270.108 190.635 271.966 185.782 271.966H94.4669C89.6144 271.966 84.9606 270.108 81.5287 266.8C78.0969 263.493 76.1679 259.007 76.1661 254.328V34.5259C76.1661 32.21 76.6393 29.9168 77.5587 27.7772C78.4782 25.6377 79.8258 23.6938 81.5246 22.0565C83.2235 20.4193 85.2402 19.1207 87.4597 18.2351C89.6792 17.3494 92.0579 16.894 94.4599 16.8949H132.757L132.799 17.0232C133.919 20.8857 136.469 23.3909 139.312 23.3909H140.923C143.767 23.3909 146.323 20.8789 147.436 17.0165L147.486 16.8882H185.768C188.173 16.8855 190.555 17.34 192.777 18.2256C194.999 19.1112 197.019 20.4106 198.72 22.0494C200.421 23.6881 201.77 25.6342 202.691 27.7762C203.611 29.9182 204.084 32.2141 204.083 34.5326V254.328Z" fill="black" stroke="black" stroke-width="0.471607" stroke-linecap="round" stroke-linejoin="round"/>
<path d="M141.511 17.766C141.51 17.4271 141.404 17.0961 141.208 16.815C141.012 16.5338 140.733 16.315 140.408 16.1862C140.083 16.0575 139.726 16.0245 139.381 16.0914C139.036 16.1583 138.72 16.3222 138.472 16.5624C138.224 16.8025 138.055 17.1081 137.987 17.4406C137.919 17.7732 137.955 18.1177 138.089 18.4307C138.224 18.7437 138.452 19.0112 138.745 19.1993C139.037 19.3875 139.381 19.4879 139.732 19.4879C139.967 19.4879 140.198 19.4433 140.415 19.3567C140.631 19.2701 140.827 19.1432 140.993 18.9832C141.158 18.8232 141.289 18.6333 141.378 18.4244C141.467 18.2156 141.512 17.9918 141.511 17.766Z" fill="white"/>
<path d="M87.5402 24.3496C87.5402 26.085 85.5161 26.713 85.5021 28.0365V28.1175H87.4702V28.705H84.8508V28.212C84.8508 26.3483 86.8749 25.9905 86.8749 24.3631C86.8749 23.7756 86.6647 23.4582 86.1745 23.4582C85.6842 23.4582 85.4741 23.7959 85.4741 24.3091V24.8155H84.8508V24.3496C84.8508 23.465 85.264 22.8843 86.1885 22.8843C87.113 22.8843 87.5402 23.465 87.5402 24.3496Z" fill="black"/>
<path d="M90.811 24.3362V24.4847C90.8406 24.7289 90.7887 24.9758 90.6628 25.1896C90.5368 25.4033 90.3433 25.5728 90.1106 25.6732C90.3453 25.773 90.5403 25.9433 90.6665 26.1587C90.7927 26.3741 90.8434 26.623 90.811 26.8684V27.314C90.811 28.1919 90.3837 28.7658 89.4592 28.7658C88.5347 28.7658 88.1215 28.1919 88.1215 27.314V26.9156H88.7448V27.3546C88.7448 27.8677 88.962 28.1851 89.4452 28.1851C89.9285 28.1851 90.1456 27.8813 90.1456 27.2938V26.8481C90.1456 26.2809 89.8935 26.0108 89.3892 25.9973H89.032V25.4166H89.4242C89.5271 25.418 89.6291 25.3976 89.7229 25.3567C89.8167 25.3158 89.9 25.2555 89.9668 25.1801C90.0337 25.1047 90.0825 25.016 90.1098 24.9203C90.137 24.8246 90.1421 24.7243 90.1246 24.6265V24.3632C90.1246 23.7689 89.9075 23.4651 89.4242 23.4651C88.9409 23.4651 88.7238 23.7892 88.7238 24.3092V24.5995H88.1005V24.3362C88.1005 23.4583 88.5277 22.8911 89.4382 22.8911C90.3487 22.8911 90.811 23.4583 90.811 24.3362Z" fill="black"/>
<path d="M92.0997 24.7749V25.5717H91.4553V24.7749H92.0997ZM92.0997 27.9148V28.7116H91.4553V27.9148H92.0997Z" fill="black"/>
<path d="M93.4514 25.2952C93.5368 25.1434 93.6649 25.0178 93.821 24.933C93.9771 24.8482 94.1549 24.8076 94.3338 24.8158C95.1043 24.8158 95.4475 25.3627 95.4475 26.1663V27.294C95.4475 28.1718 95.0132 28.7458 94.0957 28.7458C93.1782 28.7458 92.758 28.1718 92.758 27.294V26.9023H93.3813V27.3345C93.3813 27.8477 93.6055 28.165 94.0817 28.165C94.558 28.165 94.7821 27.8477 94.7821 27.3345V26.2338C94.7821 25.7139 94.558 25.4032 94.0817 25.4032C93.9931 25.3958 93.9038 25.4061 93.8195 25.4335C93.7353 25.461 93.6578 25.5049 93.592 25.5627C93.5262 25.6204 93.4735 25.6906 93.4373 25.7689C93.401 25.8473 93.382 25.932 93.3813 26.0177V26.1528H92.765L92.9261 22.9453H95.2794V23.526H93.5214L93.4514 25.2952Z" fill="black"/>
<path d="M98.7672 24.3294V24.4374H98.1439V24.2889C98.1439 23.7689 97.9268 23.4651 97.4435 23.4651C96.9603 23.4651 96.7431 23.7825 96.7431 24.3969V25.6867C96.8148 25.498 96.9474 25.3365 97.1214 25.2259C97.2953 25.1152 97.5016 25.0614 97.7097 25.0722C98.4801 25.0722 98.8233 25.6056 98.8233 26.4227V27.3005C98.8233 28.1784 98.368 28.7523 97.4225 28.7523C96.477 28.7523 96.0218 28.1784 96.0218 27.3005V24.3699C96.0218 23.4583 96.449 22.8911 97.4225 22.8911C98.396 22.8911 98.7672 23.4516 98.7672 24.3294ZM96.7081 26.4902V27.3546C96.7081 27.8677 96.9322 28.1851 97.4085 28.1851C97.8848 28.1851 98.1089 27.8677 98.1089 27.3546V26.4902C98.1089 25.9703 97.8778 25.6597 97.4085 25.6597C96.9392 25.6597 96.7081 25.9703 96.7081 26.4902Z" fill="black"/>
<path d="M164.021 24.5859H162.334V28.651H164.021V24.5859Z" fill="black"/>
<path d="M166.27 23.769H164.582V28.6511H166.27V23.769Z" fill="black"/>
<path d="M168.525 23.188H166.837V28.6508H168.525V23.188Z" fill="black"/>
<path d="M170.773 22.1821H169.085V28.6511H170.773V22.1821Z" fill="black"/>
<path d="M191.651 28.543H181.545V22.5737H191.665L191.651 28.543ZM182.091 27.996H191.091V23.1139H182.091V27.996Z" fill="black"/>
<path d="M188.283 23.708H182.939V27.4084H188.283V23.708Z" fill="black"/>
<path d="M192.583 24.8564H191.308V26.261H192.583V24.8564Z" fill="black"/>
<path d="M177.819 27.24C177.75 27.2414 177.683 27.225 177.623 27.1927C175.564 26.011 174.198 27.105 174.121 27.1522C174.05 27.2199 173.954 27.2578 173.855 27.2578C173.755 27.2578 173.659 27.2199 173.589 27.1522C173.525 27.0789 173.493 26.9845 173.499 26.8888C173.506 26.7932 173.55 26.7037 173.624 26.639C173.694 26.5783 175.438 25.14 177.987 26.5985C178.03 26.6229 178.067 26.6551 178.097 26.6935C178.127 26.7318 178.149 26.7754 178.161 26.8218C178.173 26.8682 178.176 26.9165 178.169 26.9639C178.162 27.0113 178.145 27.057 178.12 27.0982C178.085 27.143 178.039 27.1791 177.987 27.2037C177.935 27.2284 177.877 27.2408 177.819 27.24Z" fill="black"/>
<path d="M178.575 26.0178C178.508 26.0197 178.442 26.0008 178.386 25.9637C175.403 24.2553 173.399 25.9097 173.378 25.9232C173.308 25.9908 173.212 26.0288 173.112 26.0288C173.013 26.0288 172.917 25.9908 172.846 25.9232C172.782 25.8488 172.749 25.7533 172.756 25.6565C172.763 25.5597 172.807 25.4691 172.881 25.4033C172.881 25.4033 175.326 23.3775 178.771 25.4033C178.841 25.4448 178.895 25.5071 178.925 25.5809C178.955 25.6547 178.96 25.7359 178.937 25.8122C178.915 25.8885 178.868 25.9558 178.803 26.0038C178.737 26.0519 178.657 26.0781 178.575 26.0785V26.0178Z" fill="black"/>
<path d="M179.269 24.5997C179.202 24.5985 179.136 24.5798 179.08 24.5457C175.305 22.3849 172.776 24.4174 172.692 24.5052C172.657 24.5397 172.615 24.5671 172.569 24.5858C172.522 24.6045 172.473 24.6142 172.422 24.6142C172.372 24.6142 172.323 24.6045 172.276 24.5858C172.23 24.5671 172.188 24.5397 172.153 24.5052C172.089 24.4318 172.057 24.3375 172.063 24.2418C172.07 24.1462 172.114 24.0567 172.188 23.992C172.223 23.992 175.199 21.5071 179.465 23.9515C179.55 24.0019 179.611 24.0822 179.636 24.1754C179.661 24.2686 179.647 24.3675 179.598 24.4512C179.559 24.4997 179.509 24.5386 179.452 24.5644C179.395 24.5903 179.332 24.6024 179.269 24.5997Z" fill="black"/>
<path d="M176.677 27.8544C176.677 28.0363 176.621 28.2141 176.516 28.3653C176.411 28.5165 176.262 28.6342 176.088 28.7035C175.913 28.7728 175.721 28.7906 175.536 28.7546C175.351 28.7186 175.182 28.6305 175.049 28.5014C174.916 28.3722 174.826 28.208 174.79 28.0294C174.754 27.8508 174.774 27.666 174.847 27.4983C174.92 27.3306 175.043 27.1876 175.201 27.0875C175.358 26.9874 175.543 26.9347 175.732 26.9361C175.857 26.9361 175.98 26.9599 176.095 27.0061C176.21 27.0523 176.315 27.1201 176.403 27.2054C176.491 27.2908 176.56 27.3921 176.607 27.5035C176.654 27.6149 176.678 27.7341 176.677 27.8544Z" fill="black"/>
<path d="M181.034 256.624L184.444 253.336C184.63 253.144 184.731 252.89 184.726 252.628C184.721 252.365 184.611 252.115 184.419 251.929C184.226 251.744 183.967 251.637 183.694 251.633C183.422 251.628 183.159 251.725 182.96 251.904L179.549 255.193L176.138 251.904C175.941 251.714 175.674 251.606 175.395 251.605C175.115 251.605 174.847 251.711 174.65 251.901C174.452 252.091 174.34 252.349 174.34 252.618C174.339 252.887 174.449 253.145 174.646 253.336L178.043 256.624L174.625 259.913C174.43 260.104 174.321 260.361 174.321 260.629C174.321 260.896 174.43 261.154 174.625 261.344C174.823 261.534 175.091 261.641 175.371 261.641C175.651 261.641 175.919 261.534 176.117 261.344L179.528 258.056L182.939 261.344C183.035 261.439 183.151 261.515 183.279 261.566C183.406 261.617 183.543 261.643 183.681 261.641C183.819 261.643 183.956 261.618 184.084 261.567C184.212 261.516 184.327 261.44 184.423 261.344C184.522 261.251 184.6 261.139 184.653 261.016C184.706 260.894 184.734 260.762 184.734 260.629C184.734 260.495 184.706 260.364 184.653 260.241C184.6 260.118 184.522 260.006 184.423 259.913L181.034 256.624Z" fill="black"/>
<path d="M97.3455 216.703V210.052L97.1003 210.146L96.6941 210.261L96.2879 210.369C96.2015 210.389 96.1171 210.416 96.0358 210.45V209.403L96.4 209.262L96.8692 209.052C97.0294 208.977 97.1839 208.892 97.3315 208.796C97.4602 208.711 97.5778 208.611 97.6816 208.499H98.7953V216.703H97.3455Z" fill="black"/>
<path d="M136.581 216.703V215.717L138.682 212.584C138.836 212.355 138.983 212.139 139.116 211.909C139.256 211.698 139.369 211.471 139.452 211.234C139.544 210.994 139.589 210.74 139.585 210.484C139.596 210.248 139.538 210.015 139.417 209.809C139.359 209.728 139.28 209.663 139.188 209.62C139.096 209.578 138.994 209.559 138.892 209.566C138.796 209.56 138.7 209.573 138.61 209.604C138.519 209.636 138.437 209.685 138.367 209.748C138.236 209.879 138.146 210.043 138.107 210.221C138.059 210.443 138.036 210.669 138.037 210.896V211.247H136.637V210.883C136.627 210.445 136.705 210.009 136.868 209.6C137.001 209.246 137.246 208.941 137.568 208.729C137.948 208.513 138.382 208.403 138.822 208.411C139.121 208.387 139.422 208.426 139.705 208.523C139.988 208.621 140.245 208.776 140.461 208.978C140.847 209.418 141.043 209.984 141.007 210.559C141.011 210.87 140.961 211.181 140.86 211.477C140.759 211.751 140.628 212.014 140.468 212.26C140.309 212.512 140.134 212.769 139.942 213.03L138.199 215.582H140.783V216.703H136.581Z" fill="black"/>
<path d="M177.567 216.825C177.119 216.844 176.673 216.746 176.278 216.541C175.958 216.347 175.712 216.058 175.578 215.717C175.424 215.323 175.35 214.903 175.361 214.482V214.198H176.761V214.434C176.764 214.661 176.79 214.888 176.838 215.11C176.869 215.269 176.949 215.415 177.069 215.528C177.208 215.629 177.379 215.679 177.553 215.67C177.64 215.676 177.728 215.666 177.811 215.639C177.894 215.613 177.97 215.57 178.036 215.515C178.157 215.392 178.235 215.236 178.26 215.069C178.298 214.846 178.316 214.62 178.316 214.394C178.331 214.054 178.261 213.716 178.113 213.408C178.029 213.281 177.911 213.179 177.772 213.111C177.633 213.043 177.477 213.013 177.322 213.023H177.076V211.855H177.343C177.49 211.868 177.639 211.848 177.778 211.796C177.916 211.745 178.041 211.663 178.141 211.558C178.309 211.275 178.385 210.951 178.358 210.626C178.37 210.347 178.315 210.07 178.197 209.816C178.133 209.715 178.04 209.634 177.929 209.583C177.819 209.531 177.695 209.511 177.574 209.525C177.45 209.513 177.325 209.537 177.216 209.595C177.107 209.653 177.019 209.742 176.964 209.849C176.855 210.116 176.8 210.4 176.803 210.687V210.991H175.403V210.599C175.39 210.189 175.476 209.783 175.655 209.411C175.819 209.09 176.084 208.828 176.411 208.661C176.781 208.479 177.193 208.39 177.609 208.404C178.03 208.39 178.449 208.476 178.827 208.654C179.151 208.818 179.413 209.076 179.577 209.39C179.758 209.757 179.847 210.159 179.836 210.565C179.837 211.002 179.7 211.428 179.444 211.787C179.263 212.082 178.972 212.299 178.631 212.395C178.855 212.463 179.057 212.584 179.22 212.746C179.403 212.939 179.537 213.17 179.612 213.422C179.717 213.735 179.767 214.064 179.759 214.394C179.765 214.835 179.691 215.274 179.542 215.69C179.413 216.048 179.167 216.356 178.841 216.568C178.451 216.771 178.008 216.86 177.567 216.825Z" fill="black"/>
<path d="M98.0529 231.248V229.222H95.5105V228.027L97.7237 223.03H99.4186V228.108H100.301V229.222H99.4326V231.248H98.0529ZM96.7291 228.122H98.0529V224.556L96.7291 228.122Z" fill="black"/>
<path d="M138.822 231.37C138.361 231.396 137.903 231.291 137.505 231.066C137.191 230.863 136.963 230.559 136.861 230.208C136.729 229.784 136.668 229.342 136.679 228.898H138.079C138.075 229.145 138.094 229.391 138.135 229.634C138.157 229.818 138.238 229.99 138.367 230.127C138.432 230.191 138.511 230.239 138.599 230.268C138.686 230.297 138.779 230.307 138.871 230.296C138.972 230.306 139.073 230.29 139.166 230.25C139.258 230.209 139.337 230.146 139.396 230.067C139.508 229.871 139.573 229.654 139.585 229.432C139.585 229.155 139.627 228.838 139.627 228.473C139.632 228.195 139.614 227.917 139.571 227.642C139.55 227.442 139.472 227.25 139.347 227.089C139.28 227.02 139.198 226.967 139.108 226.933C139.017 226.899 138.919 226.886 138.822 226.893C138.729 226.891 138.636 226.908 138.549 226.942C138.463 226.975 138.384 227.025 138.318 227.089C138.176 227.238 138.075 227.419 138.023 227.615H136.77L136.854 223.044H140.678V224.3H138.079L137.995 226.278C138.116 226.141 138.274 226.038 138.451 225.981C138.675 225.901 138.912 225.858 139.151 225.853C139.537 225.816 139.924 225.911 140.244 226.123C140.539 226.35 140.754 226.659 140.86 227.008C141.001 227.445 141.069 227.901 141.063 228.358C141.067 228.758 141.036 229.158 140.972 229.553C140.925 229.886 140.814 230.207 140.643 230.499C140.477 230.767 140.233 230.983 139.942 231.12C139.596 231.29 139.211 231.376 138.822 231.37Z" fill="black"/>
<path d="M177.616 231.37C177.16 231.388 176.71 231.262 176.334 231.012C176.007 230.764 175.763 230.428 175.634 230.046C175.482 229.611 175.407 229.155 175.41 228.696V225.819C175.403 225.331 175.467 224.845 175.599 224.374C175.712 223.97 175.958 223.613 176.299 223.354C176.692 223.085 177.169 222.954 177.651 222.983C178.071 222.965 178.489 223.046 178.869 223.219C179.174 223.363 179.421 223.601 179.57 223.895C179.726 224.249 179.8 224.631 179.787 225.016C179.787 225.016 179.787 225.056 179.787 225.083C179.79 225.106 179.79 225.128 179.787 225.151H178.386C178.402 224.87 178.356 224.59 178.253 224.327C178.194 224.23 178.107 224.153 178.002 224.105C177.897 224.057 177.78 224.04 177.665 224.057C177.584 224.053 177.503 224.066 177.427 224.094C177.351 224.122 177.282 224.164 177.224 224.219C177.09 224.368 177.005 224.551 176.978 224.746C176.915 225.073 176.887 225.405 176.894 225.738V226.717C177.004 226.555 177.16 226.426 177.343 226.346C177.633 226.234 177.948 226.191 178.259 226.219C178.571 226.247 178.871 226.346 179.136 226.508C179.411 226.724 179.611 227.016 179.71 227.345C179.828 227.745 179.884 228.159 179.878 228.574C179.884 229.059 179.814 229.542 179.668 230.006C179.545 230.4 179.301 230.748 178.967 231.005C178.574 231.272 178.096 231.401 177.616 231.37ZM177.616 230.283C177.702 230.288 177.789 230.275 177.869 230.243C177.949 230.212 178.02 230.163 178.078 230.1C178.196 229.953 178.273 229.778 178.302 229.594C178.347 229.344 178.368 229.091 178.365 228.838C178.365 228.54 178.365 228.27 178.33 228.041C178.316 227.841 178.248 227.648 178.134 227.48C178.07 227.409 177.988 227.353 177.897 227.317C177.806 227.282 177.707 227.269 177.609 227.278C177.496 227.276 177.384 227.297 177.28 227.338C177.182 227.381 177.093 227.438 177.013 227.507C176.947 227.568 176.888 227.636 176.838 227.71V229C176.839 229.213 176.862 229.426 176.908 229.634C176.945 229.81 177.03 229.973 177.153 230.107C177.215 230.166 177.288 230.211 177.369 230.24C177.45 230.269 177.537 230.281 177.623 230.276L177.616 230.283Z" fill="black"/>
<path d="M96.477 245.793L98.2 238.663H95.8957V237.589H99.6007V238.446L97.8848 245.793H96.477Z" fill="black"/>
<path d="M138.759 245.901C138.302 245.922 137.849 245.814 137.456 245.59C137.128 245.381 136.881 245.072 136.756 244.712C136.608 244.293 136.537 243.852 136.546 243.409C136.542 243.182 136.563 242.956 136.609 242.734C136.651 242.544 136.719 242.36 136.812 242.187C136.895 242.029 137.003 241.886 137.134 241.761C137.257 241.635 137.402 241.53 137.561 241.451C137.299 241.274 137.081 241.044 136.924 240.776C136.741 240.429 136.65 240.044 136.658 239.655C136.649 239.259 136.725 238.866 136.882 238.5C137.023 238.182 137.269 237.919 137.582 237.75C137.943 237.564 138.349 237.473 138.759 237.487C139.168 237.471 139.575 237.562 139.935 237.75C140.247 237.921 140.493 238.184 140.636 238.5C140.797 238.864 140.871 239.259 140.853 239.655C140.864 240.045 140.775 240.433 140.594 240.782C140.444 241.052 140.231 241.283 139.97 241.458C140.132 241.537 140.279 241.642 140.405 241.768C140.533 241.893 140.639 242.036 140.72 242.194C140.813 242.366 140.881 242.55 140.923 242.741C140.971 242.963 140.995 243.189 140.993 243.416C141.009 243.859 140.937 244.301 140.783 244.719C140.655 245.078 140.409 245.386 140.083 245.597C139.682 245.822 139.222 245.928 138.759 245.901ZM138.759 244.841C138.856 244.848 138.953 244.834 139.043 244.798C139.133 244.763 139.213 244.708 139.277 244.638C139.402 244.491 139.482 244.313 139.508 244.125C139.542 243.915 139.559 243.703 139.557 243.49C139.567 243.264 139.55 243.037 139.508 242.815C139.474 242.626 139.392 242.447 139.27 242.295C139.206 242.226 139.127 242.172 139.039 242.137C138.95 242.102 138.854 242.086 138.759 242.092C138.665 242.086 138.572 242.102 138.485 242.137C138.399 242.172 138.322 242.226 138.262 242.295C138.138 242.444 138.053 242.62 138.016 242.808C137.973 243.031 137.952 243.257 137.953 243.483C137.951 243.698 137.97 243.913 138.009 244.125C138.038 244.314 138.12 244.492 138.248 244.638C138.309 244.712 138.387 244.772 138.475 244.813C138.564 244.854 138.661 244.875 138.759 244.874V244.841ZM138.759 240.917C138.837 240.919 138.914 240.904 138.986 240.874C139.057 240.844 139.121 240.798 139.172 240.742C139.287 240.611 139.362 240.452 139.389 240.283C139.434 240.06 139.455 239.834 139.452 239.607C139.464 239.345 139.411 239.083 139.298 238.844C139.248 238.75 139.17 238.673 139.074 238.621C138.978 238.569 138.868 238.546 138.759 238.554C138.649 238.547 138.54 238.571 138.445 238.622C138.349 238.674 138.271 238.751 138.22 238.844C138.093 239.075 138.033 239.333 138.044 239.594C138.041 239.821 138.064 240.047 138.114 240.269C138.143 240.442 138.22 240.603 138.339 240.735C138.391 240.792 138.456 240.838 138.528 240.87C138.601 240.901 138.679 240.917 138.759 240.917Z" fill="black"/>
<path d="M138.759 260.156C138.327 260.175 137.898 260.071 137.526 259.859C137.199 259.654 136.943 259.36 136.791 259.015C136.618 258.624 136.535 258.203 136.546 257.779V254.139C136.536 253.709 136.617 253.282 136.784 252.883C136.919 252.538 137.164 252.243 137.484 252.039C137.87 251.84 138.3 251.736 138.738 251.736C139.175 251.736 139.606 251.84 139.991 252.039C140.309 252.245 140.553 252.54 140.692 252.883C140.856 253.283 140.937 253.71 140.93 254.139V257.779C140.939 258.204 140.853 258.625 140.678 259.015C140.525 259.36 140.269 259.654 139.942 259.859C139.585 260.063 139.174 260.166 138.759 260.156ZM138.759 258.954C138.849 258.96 138.939 258.946 139.023 258.913C139.107 258.88 139.182 258.83 139.242 258.765C139.351 258.626 139.423 258.464 139.452 258.292C139.488 258.116 139.507 257.938 139.508 257.759V254.16C139.505 253.972 139.489 253.785 139.459 253.599C139.432 253.428 139.363 253.266 139.256 253.126C139.194 253.06 139.117 253.008 139.031 252.975C138.944 252.942 138.851 252.929 138.759 252.937C138.667 252.929 138.575 252.942 138.49 252.975C138.405 253.008 138.329 253.06 138.269 253.126C138.16 253.265 138.088 253.427 138.058 253.599C138.031 253.785 138.017 253.972 138.016 254.16V257.759C138.014 257.938 138.033 258.117 138.072 258.292C138.104 258.464 138.179 258.627 138.29 258.765C138.347 258.829 138.42 258.879 138.501 258.912C138.583 258.945 138.671 258.959 138.759 258.954Z" fill="black"/>
<path d="M177.469 245.901C177.05 245.917 176.634 245.833 176.257 245.658C175.947 245.505 175.7 245.255 175.557 244.949C175.4 244.59 175.326 244.203 175.34 243.815V243.707H176.74C176.726 243.986 176.773 244.264 176.88 244.524C176.942 244.621 177.032 244.699 177.139 244.749C177.246 244.798 177.365 244.816 177.483 244.801C177.564 244.805 177.645 244.793 177.721 244.765C177.797 244.737 177.866 244.694 177.924 244.638C178.05 244.482 178.13 244.295 178.155 244.098C178.212 243.775 178.237 243.447 178.232 243.119V242.133C178.127 242.295 177.973 242.422 177.791 242.498C177.57 242.59 177.331 242.638 177.09 242.64C176.703 242.665 176.318 242.558 176.005 242.336C175.728 242.107 175.528 241.804 175.431 241.465C175.307 241.064 175.248 240.647 175.255 240.229C175.245 239.748 175.318 239.269 175.473 238.811C175.598 238.427 175.842 238.09 176.173 237.845C176.555 237.599 177.009 237.476 177.469 237.494C177.923 237.472 178.373 237.593 178.75 237.839C179.077 238.073 179.322 238.398 179.451 238.77C179.604 239.205 179.68 239.662 179.675 240.121V243.025C179.682 243.515 179.616 244.004 179.479 244.476C179.366 244.882 179.12 245.242 178.778 245.503C178.402 245.777 177.94 245.917 177.469 245.901ZM177.469 241.58C177.638 241.589 177.804 241.538 177.938 241.438C178.048 241.352 178.143 241.249 178.218 241.134V239.858C178.22 239.642 178.199 239.427 178.155 239.216C178.124 239.045 178.046 238.884 177.931 238.75C177.871 238.688 177.798 238.64 177.717 238.609C177.636 238.577 177.549 238.563 177.462 238.568C177.376 238.563 177.291 238.577 177.212 238.608C177.133 238.64 177.063 238.688 177.006 238.75C176.883 238.896 176.803 239.071 176.775 239.257C176.73 239.509 176.709 239.764 176.712 240.02C176.711 240.284 176.725 240.547 176.754 240.81C176.762 241.01 176.828 241.204 176.943 241.37C177.007 241.445 177.089 241.504 177.182 241.54C177.275 241.577 177.376 241.59 177.476 241.58H177.469Z" fill="black"/>
<path d="M129.164 178.997V170.792H132.736V171.846H130.719V174.203H132.308V175.249H130.719V177.95H132.757V178.983L129.164 178.997Z" fill="#008080"/>
<path d="M133.66 178.997V170.792H134.746L136.812 175.472V170.792H138.121V178.997H137.092L134.991 174.094V178.997H133.66Z" fill="#008080"/>
<path d="M140.223 178.997V171.893H138.871V170.792H143.115V171.893H141.777V178.997H140.223Z" fill="#008080"/>
<path d="M143.907 178.997V170.792H147.479V171.846H145.461V174.203H147.044V175.249H145.461V177.95H147.5V178.983L143.907 178.997Z" fill="#008080"/>
<path d="M148.403 178.997V170.793H150.441C150.935 170.779 151.427 170.845 151.898 170.989C152.272 171.105 152.591 171.344 152.801 171.664C153.026 172.06 153.132 172.509 153.11 172.96C153.112 173.26 153.079 173.559 153.012 173.852C152.959 174.096 152.852 174.327 152.696 174.527C152.53 174.723 152.313 174.872 152.066 174.959L153.257 179.011H151.702L150.672 175.249H149.972V179.011L148.403 178.997ZM149.958 174.27H150.441C150.681 174.275 150.92 174.231 151.142 174.142C151.315 174.056 151.449 173.912 151.52 173.737C151.605 173.507 151.646 173.265 151.639 173.021C151.664 172.696 151.581 172.372 151.401 172.096C151.288 171.979 151.148 171.89 150.992 171.835C150.836 171.781 150.668 171.764 150.504 171.785H149.937L149.958 174.27Z" fill="#008080"/>
<path d="M108.173 60.7188L106.689 53.6084H107.879L108.853 58.639L109.763 53.6084H110.982L109.497 60.7188H108.173Z" fill="black"/>
<path d="M111.738 60.7188V53.6084H114.834V54.52H113.09V56.5458H114.491V57.4506H113.09V59.8545H114.855V60.7459L111.738 60.7188Z" fill="black"/>
<path d="M115.632 60.7188V53.6083H117.404C117.832 53.5992 118.258 53.6586 118.665 53.7839C118.989 53.8828 119.267 54.0884 119.449 54.3646C119.643 54.7077 119.735 55.0955 119.716 55.4855C119.719 55.7466 119.691 56.0072 119.631 56.2621C119.585 56.4724 119.492 56.6706 119.358 56.8428C119.214 57.0135 119.026 57.144 118.812 57.2209L119.842 60.7188H118.511L117.614 57.464H116.998V60.7188H115.632ZM116.984 56.6672H117.404C117.618 56.6776 117.831 56.6406 118.028 56.5592C118.181 56.488 118.299 56.362 118.357 56.2081C118.431 56.009 118.464 55.7981 118.455 55.5868C118.476 55.3051 118.405 55.0241 118.252 54.7833C118.153 54.6835 118.031 54.6077 117.896 54.562C117.761 54.5162 117.616 54.5018 117.474 54.5199H116.984V56.6672Z" fill="black"/>
<path d="M120.759 60.7188V53.6084H122.09V60.7188H120.759Z" fill="black"/>
<path d="M123.231 60.7188V53.6084H126.264V54.5065H124.576V56.5795H125.977V57.4844H124.576V60.7188H123.231Z" fill="black"/>
<path d="M126.999 60.7188V53.6084H128.316V60.7188H126.999Z" fill="black"/>
<path d="M131.454 60.82C131.006 60.8425 130.562 60.7342 130.179 60.5094C129.875 60.3079 129.65 60.0127 129.542 59.6721C129.412 59.2771 129.35 58.8641 129.36 58.4498V55.9109C129.349 55.4832 129.41 55.0567 129.542 54.6482C129.645 54.3086 129.871 54.0162 130.179 53.8243C130.566 53.61 131.009 53.5091 131.454 53.534C131.869 53.5132 132.282 53.5994 132.652 53.7838C132.936 53.9457 133.152 54.1992 133.261 54.4996C133.39 54.8434 133.452 55.2076 133.443 55.5733V56.1742H132.154V55.5598C132.166 55.3776 132.166 55.1949 132.154 55.0128C132.141 54.8674 132.08 54.73 131.979 54.6211C131.913 54.5673 131.836 54.527 131.753 54.5027C131.669 54.4783 131.582 54.4704 131.496 54.4793C131.313 54.4655 131.132 54.5213 130.992 54.6347C130.88 54.7482 130.806 54.8918 130.781 55.0466C130.752 55.2388 130.738 55.4329 130.739 55.6273V58.7199C130.735 58.9332 130.756 59.1462 130.803 59.3547C130.834 59.502 130.915 59.6351 131.034 59.7328C131.167 59.8269 131.331 59.8723 131.496 59.8611C131.582 59.8694 131.669 59.8598 131.751 59.833C131.834 59.8063 131.909 59.7629 131.972 59.7058C132.076 59.5933 132.137 59.4507 132.147 59.3007C132.177 59.1107 132.191 58.9188 132.189 58.7267V58.0514H133.478V58.6254C133.484 59.0053 133.427 59.3836 133.31 59.7463C133.199 60.0581 132.985 60.3262 132.701 60.5094C132.326 60.7305 131.892 60.8387 131.454 60.82Z" fill="black"/>
<path d="M134.01 60.7188L135.481 53.6084H136.924L138.395 60.7188H137.148L136.861 59.078H135.572L135.278 60.7188H134.01ZM135.712 58.2542H136.721L136.216 55.2695L135.712 58.2542Z" fill="black"/>
<path d="M139.522 60.7188V54.5673H138.346V53.6084H142.023V54.5673H140.867V60.7188H139.522Z" fill="black"/>
<path d="M142.737 60.7188V53.6084H144.068V60.7188H142.737Z" fill="black"/>
<path d="M147.226 60.8202C146.791 60.8416 146.359 60.7432 145.98 60.5366C145.67 60.3465 145.435 60.061 145.314 59.7263C145.179 59.3324 145.115 58.919 145.125 58.5041V55.8031C145.116 55.3828 145.185 54.9644 145.328 54.5674C145.443 54.2427 145.668 53.9645 145.966 53.7773C146.348 53.5788 146.779 53.4854 147.212 53.5072C147.65 53.4846 148.086 53.578 148.473 53.7773C148.779 53.9602 149.013 54.2357 149.138 54.5606C149.278 54.9606 149.342 55.3814 149.327 55.8031V58.5041C149.335 58.9243 149.267 59.3425 149.124 59.7398C148.999 60.0702 148.765 60.3523 148.459 60.5434C148.082 60.7434 147.656 60.8393 147.226 60.8202ZM147.226 59.8614C147.405 59.8772 147.583 59.8264 147.724 59.7196C147.836 59.6171 147.91 59.4818 147.934 59.3347C147.971 59.1592 147.99 58.9804 147.99 58.8012V55.5262C147.991 55.3448 147.972 55.1637 147.934 54.986C147.907 54.8437 147.833 54.7135 147.724 54.6146C147.584 54.5046 147.407 54.447 147.226 54.4526C147.054 54.4414 146.883 54.4892 146.743 54.5876C146.631 54.6856 146.555 54.8159 146.526 54.959C146.484 55.1362 146.466 55.3176 146.47 55.4992V58.7742C146.468 58.9532 146.484 59.1319 146.519 59.3077C146.545 59.4557 146.621 59.5911 146.736 59.6926C146.872 59.805 147.047 59.863 147.226 59.8546V59.8614Z" fill="black"/>
<path d="M150.336 60.7188V53.6084H151.275L153.068 57.6599V53.6084H154.174V60.7188H153.285L151.485 56.4782V60.7256L150.336 60.7188Z" fill="black"/>
<path d="M159.49 60.8203C159.045 60.8419 158.603 60.7336 158.222 60.5097C157.918 60.3082 157.693 60.013 157.585 59.6724C157.452 59.2779 157.388 58.8649 157.396 58.4502V55.9112C157.387 55.4832 157.451 55.0566 157.585 54.6485C157.688 54.309 157.914 54.0166 158.222 53.8247C158.607 53.6109 159.047 53.51 159.49 53.5343C159.905 53.5119 160.319 53.5982 160.688 53.7842C160.975 53.9449 161.193 54.1985 161.304 54.4999C161.433 54.8438 161.495 55.2079 161.486 55.5736V56.1746H160.197V55.5601C160.197 55.3773 160.186 55.1946 160.162 55.0131C160.149 54.8678 160.088 54.7304 159.987 54.6215C159.921 54.5677 159.844 54.5274 159.761 54.503C159.678 54.4787 159.59 54.4707 159.504 54.4797C159.321 54.4659 159.14 54.5216 159 54.635C158.885 54.7466 158.811 54.8912 158.79 55.0469C158.76 55.2391 158.746 55.4333 158.748 55.6276V58.7203C158.743 58.9335 158.764 59.1465 158.811 59.355C158.842 59.5024 158.923 59.6355 159.042 59.7332C159.175 59.8272 159.339 59.8727 159.504 59.8615C159.59 59.8697 159.677 59.8602 159.76 59.8334C159.842 59.8066 159.917 59.7632 159.98 59.7062C160.08 59.5912 160.141 59.45 160.155 59.301C160.185 59.111 160.199 58.9191 160.197 58.727V58.0518H161.486V58.6258C161.494 59.0062 161.434 59.3852 161.311 59.7467C161.205 60.0592 160.993 60.3281 160.709 60.5097C160.342 60.7253 159.919 60.8333 159.49 60.8203Z" fill="black"/>
<path d="M164.428 60.8201C163.993 60.8407 163.561 60.7424 163.181 60.5365C162.871 60.3463 162.636 60.0608 162.516 59.7262C162.375 59.3262 162.309 58.9057 162.32 58.4837V55.8029C162.309 55.3831 162.375 54.9647 162.516 54.5672C162.639 54.241 162.874 53.9648 163.181 53.7839C163.573 53.6063 164.001 53.5142 164.435 53.5142C164.868 53.5142 165.296 53.6063 165.688 53.7839C165.996 53.9648 166.23 54.241 166.354 54.5672C166.501 54.9633 166.57 55.3824 166.557 55.8029V58.504C166.568 58.9244 166.499 59.3432 166.354 59.7397C166.231 60.0716 165.997 60.3544 165.688 60.5432C165.304 60.7482 164.867 60.8442 164.428 60.8201ZM164.428 59.8612C164.606 59.877 164.784 59.8263 164.925 59.7194C165.035 59.6143 165.11 59.4805 165.142 59.3345C165.177 59.1587 165.193 58.98 165.191 58.8011V55.5261C165.194 55.3449 165.178 55.1638 165.142 54.9859C165.108 54.8444 165.033 54.7154 164.925 54.6145C164.778 54.5258 164.608 54.4788 164.435 54.4788C164.261 54.4788 164.091 54.5258 163.944 54.6145C163.832 54.7124 163.756 54.8427 163.727 54.9859C163.689 55.1636 163.67 55.3446 163.671 55.5261V58.8011C163.672 58.9799 163.689 59.1583 163.72 59.3345C163.746 59.4825 163.823 59.6179 163.937 59.7194C164.077 59.8222 164.252 59.8704 164.428 59.8545V59.8612Z" fill="black"/>
<path d="M167.537 60.7188V53.6084H169.274C169.753 53.5887 170.231 53.6693 170.675 53.8447C170.991 53.9994 171.24 54.2581 171.375 54.574C171.528 54.9735 171.6 55.3976 171.586 55.8232V58.4229C171.599 58.8595 171.527 59.2945 171.375 59.7059C171.248 60.0352 170.998 60.3071 170.675 60.469C170.249 60.6554 169.783 60.7411 169.316 60.7188H167.537ZM168.882 59.814H169.295C169.529 59.8358 169.763 59.7811 169.961 59.6587C170.102 59.543 170.19 59.3778 170.206 59.1995C170.236 58.953 170.25 58.7049 170.248 58.4567V55.7557C170.252 55.5291 170.231 55.3027 170.185 55.0804C170.171 55.0027 170.141 54.9284 170.096 54.8623C170.052 54.7961 169.994 54.7394 169.926 54.6955C169.723 54.6009 169.499 54.559 169.274 54.574H168.882V59.814Z" fill="black"/>
<path d="M172.622 60.7188V53.6084H175.718V54.52H173.967V56.5458H175.368V57.4506H173.967V59.8545H175.739V60.7459L172.622 60.7188Z" fill="black"/>
<path d="M272.454 4.77393V38.01" stroke="black" stroke-width="0.471607" stroke-linecap="round" stroke-linejoin="round" stroke-dasharray="2.36 2.36"/>
<path d="M272.447 94.7451V122.741C272.451 124.943 272.006 127.125 271.136 129.161C270.266 131.197 268.988 133.047 267.375 134.607C265.763 136.166 263.847 137.404 261.738 138.25C259.63 139.096 257.369 139.532 255.085 139.535H218.511" stroke="black" stroke-width="0.471607" stroke-linecap="round" stroke-linejoin="round" stroke-dasharray="2.36 2.36"/>
<path d="M219.793 135.294L212.235 139.501L219.793 143.714V135.294Z" fill="black"/>
<path d="M311.209 52.9003L249.058 40.5674L239.9 83.4653L302.052 95.7983L311.209 52.9003Z" fill="black"/>
<path d="M307.998 48.914L245.847 36.5811L236.689 79.479L298.841 91.8119L307.998 48.914Z" fill="white" stroke="black" stroke-width="0.471607" stroke-miterlimit="10"/>
<path d="M245.847 36.5718L272.342 64.1897L307.998 48.9087" stroke="black" stroke-width="0.471607" stroke-linecap="round" stroke-linejoin="round"/>
<path d="M262.67 278.07C262.67 278.07 250.525 262.431 235.369 251.627C220.213 240.823 207.214 236.366 203.642 237.4C200.07 238.433 196.939 241.755 196.939 241.755L154.587 282.756C154.587 282.756 140.615 293.392 139.074 294.324C137.533 295.255 130.319 299.591 125.9 300.928C121.481 302.265 114.246 302.055 114.211 303.352C114.176 304.648 115.149 305.648 117.306 306.525C121.316 308.047 125.554 308.936 129.857 309.159C133.139 309.213 136.404 309.635 139.585 310.415C141.091 310.78 145.412 312.691 146.47 311.09C147.528 309.49 148.991 300.286 149.356 299.32C149.72 298.355 163.146 289.003 172.545 284.566C181.944 280.13 193.451 272.83 196.764 269.353C200.077 265.875 204.952 260.5 204.952 260.5C204.952 260.5 220.017 274.241 225.206 280.724C230.396 287.206 238.731 295.235 253.845 302.001C268.959 308.767 274.52 303.25 275.557 297.754C276.593 292.257 262.67 278.07 262.67 278.07Z" fill="white" stroke="black" stroke-width="0.471607" stroke-linecap="round" stroke-linejoin="round"/>
<path d="M235.369 251.627C220.206 240.823 207.214 236.366 203.642 237.4C200.07 238.433 196.939 241.755 196.939 241.755L155.085 282.27C155.995 284.721 158.061 287.882 162.789 289.955C165.946 287.991 169.207 286.188 172.559 284.553C181.958 280.109 193.465 272.81 196.778 269.332C200.091 265.855 204.966 260.48 204.966 260.48C204.966 260.48 220.031 274.221 225.22 280.704C230.41 287.186 244.474 305.33 260.589 309.416C290.25 316.945 289.242 302.366 290.251 296.869C291.259 291.373 262.684 278.05 262.684 278.05C262.684 278.05 250.525 262.431 235.369 251.627Z" fill="black" stroke="black" stroke-width="0.471607" stroke-linecap="round" stroke-linejoin="round"/>
<path d="M114.211 303.352C114.169 304.648 115.149 305.648 117.306 306.526C121.316 308.047 125.554 308.937 129.857 309.159C133.139 309.213 136.404 309.635 139.585 310.415C141.091 310.78 145.412 312.691 146.47 311.09C147.38 309.74 148.571 302.724 149.145 300.178C144.53 300.32 139.284 298.382 139.284 298.382C139.284 298.382 139.655 297.254 139.074 294.331C137.526 295.262 130.319 299.598 125.9 300.935C121.481 302.272 114.246 302.056 114.211 303.352Z" fill="white" stroke="black" stroke-width="0.471607" stroke-linecap="round" stroke-linejoin="round"/>
<path d="M314.764 218.06C310.751 214.603 301.73 206.324 295.426 195.966C289.123 185.607 290.846 182.298 286.118 174.148C281.391 165.998 274.52 161.994 265.205 163.79C257.648 165.248 253.768 169.624 252.598 171.218C252.325 171.575 252.052 171.893 251.758 172.257C250.399 173.79 246.099 179.476 242.884 192.792C239.011 208.809 239.158 216.676 245.027 220.403C250.896 224.131 255.056 222.476 256.772 224.272C258.488 226.069 259.063 228.277 257.634 228.277C257.235 228.29 256.838 228.223 256.468 228.08C256.098 227.937 255.763 227.721 255.484 227.446C255.484 227.446 258.775 232.281 261.927 230.897C265.079 229.512 268.658 224.549 266.368 217.918C264.077 211.287 257.921 204.528 256.912 203.285C255.904 202.043 253.908 187.68 253.908 187.68C253.908 187.68 254.055 182.845 259.637 184.507C265.219 186.168 272.811 189.2 275.248 194.034C277.686 198.869 286.707 209.775 294.579 213.083C302.451 216.392 305.61 219.438 308.474 227.588C311.339 235.738 311.339 238.351 311.339 238.351C311.339 238.351 317.208 235.731 318.343 229.796C319.477 223.86 318.77 221.511 314.764 218.06ZM245.587 218.33C242.87 215.433 244.586 210.187 244.586 210.187C243.724 217.614 252.605 221.787 252.605 221.787C252.605 221.787 248.312 221.24 245.587 218.33Z" fill="black" stroke="black" stroke-width="0.471607" stroke-linecap="round" stroke-linejoin="round"/>
<path d="M263.3 279.313C263.3 279.313 244.285 276.065 239.571 277.692C234.858 279.32 222.573 298.787 220.381 301.056C218.189 303.325 215.835 304.304 213.818 304.304C211.801 304.304 204.559 303.008 200.35 303.818C196.141 304.628 190.923 307.228 191.434 309.659C191.946 312.09 194.292 313.231 202.038 314.386C209.784 315.54 218.028 312.765 220.213 311.624C222.398 310.483 224.926 308.869 225.599 308.545C226.271 308.221 232.329 306.917 235.698 304.81C238.199 303.152 240.562 301.307 242.765 299.294C242.765 299.294 257.074 305.621 262.46 308.383C267.845 311.144 276.264 312.927 280.978 312.927C285.691 312.927 295.959 311.624 298.487 310.489C301.015 309.355 305.722 304.973 305.722 299.949C305.722 294.925 306.282 287.895 304.566 287.591C302.85 287.288 301.344 287.943 299.664 287.781C297.983 287.618 288.717 282.588 286.356 281.609C283.996 280.63 263.3 279.313 263.3 279.313Z" fill="black" stroke="black" stroke-width="0.471607" stroke-linecap="round" stroke-linejoin="round"/>
<path d="M233.849 283.499C235.637 281.466 237.547 279.536 239.571 277.719C241.672 276.092 257.284 277.834 257.284 277.834" stroke="white" stroke-width="0.471607" stroke-linecap="round" stroke-linejoin="round"/>
<path d="M230.865 286.801C230.865 286.801 231.566 285.984 232.63 284.836" stroke="white" stroke-width="0.471607" stroke-linecap="round" stroke-linejoin="round"/>
<path d="M219.87 301.596C217.831 303.507 215.667 304.351 213.818 304.351C211.794 304.351 204.559 303.055 200.35 303.865C196.141 304.675 190.923 307.275 191.434 309.706C191.946 312.137 194.292 313.278 202.038 314.433C209.784 315.587 218.028 312.812 220.213 311.671C222.398 310.53 224.793 308.97 225.543 308.619C224.117 307.926 222.868 306.937 221.887 305.722C220.906 304.508 220.217 303.099 219.87 301.596Z" fill="white" stroke="black" stroke-width="0.471607" stroke-linecap="round" stroke-linejoin="round"/>
<path d="M214.323 307.741C213.51 306.465 214.414 305.04 215.261 304.169C214.788 304.274 214.304 304.328 213.818 304.331C211.794 304.331 204.559 303.034 200.35 303.845C196.141 304.655 190.923 307.255 191.434 309.686C191.946 312.116 194.292 313.258 202.038 314.412C209.784 315.567 218.028 312.792 220.213 311.651C220.549 311.482 220.913 311.293 221.235 311.104C219.106 310.8 215.499 309.577 214.323 307.741Z" fill="white" stroke="black" stroke-width="0.471607" stroke-linecap="round" stroke-linejoin="round"/>
<path d="M266.213 212.26C266.213 212.26 253.032 212.395 251.604 217.23C250.175 222.064 251.457 245.813 251.316 253.693C251.176 261.574 251.176 266.672 252.178 268.61C253.179 270.548 259.049 274.133 259.483 274.268C259.917 274.404 259.336 278.685 259.336 278.685C259.336 278.685 269.505 279.927 275.234 280.069C280.963 280.211 286.118 282.277 291.413 286.281C296.708 290.286 300.154 292.906 300.154 292.906L303.446 289.455C303.446 289.455 304.734 301.191 306.17 306.579C307.606 311.968 312.473 312.238 313.874 312.238C315.275 312.238 320.031 312.103 320.031 312.103C320.031 312.103 315.45 303.953 313.44 298.429C311.43 292.906 310.148 288.213 310.148 288.213C310.148 288.213 311.15 286.693 311.15 283.384C311.15 280.076 310.449 278.138 310.582 274.822C310.715 271.507 316.886 257.009 314.301 240.857C311.717 224.705 312.585 220.14 306.282 216.966C299.979 213.793 286.23 211.855 282.364 211.564C278.498 211.274 266.213 212.26 266.213 212.26Z" fill="#008080" stroke="black" stroke-width="0.471607" stroke-linecap="round" stroke-linejoin="round"/>
<path d="M256.899 203.286C256.524 202.512 256.265 201.692 256.128 200.848C253.123 196.006 250.406 191.01 249.692 188.633C248.606 185.034 249.439 178.187 250.007 174.587C248.067 177.559 245.181 183.19 242.87 192.819C238.997 208.836 239.144 216.703 245.013 220.43C250.882 224.158 255.043 222.504 256.758 224.3C258.474 226.096 259.049 228.304 257.62 228.304C257.221 228.317 256.824 228.25 256.454 228.107C256.084 227.964 255.749 227.748 255.47 227.473C255.47 227.473 258.762 232.308 261.913 230.924C265.065 229.54 268.644 224.577 266.354 217.946C264.063 211.315 257.886 204.528 256.899 203.286ZM245.587 218.33C242.87 215.434 244.586 210.187 244.586 210.187C243.724 217.615 252.605 221.788 252.605 221.788C252.605 221.788 248.312 221.241 245.587 218.33Z" fill="black" stroke="black" stroke-width="0.471607" stroke-linecap="round" stroke-linejoin="round"/>
<path d="M284.416 276.085L288.507 276.652" stroke="black" stroke-width="0.471607" stroke-linecap="round" stroke-linejoin="round"/>
<path d="M261.178 254.848C261.178 254.848 258.299 271.513 259.518 272.189C260.344 272.641 273.14 274.498 281.454 275.666" stroke="black" stroke-width="0.471607" stroke-linecap="round" stroke-linejoin="round"/>
<path d="M260.744 273.026L259.336 278.672" stroke="black" stroke-width="0.471607" stroke-linecap="round" stroke-linejoin="round"/>
<path d="M291.651 283.553C291.651 283.553 300.294 286.416 304.566 287.605C308.839 288.793 309.469 288.361 309.469 288.361" stroke="black" stroke-width="0.471607" stroke-linecap="round" stroke-linejoin="round"/>
<path d="M277.16 224.712L283.618 228.25L283.793 223.03" stroke="black" stroke-width="0.471607" stroke-linecap="round" stroke-linejoin="round"/>
<path d="M268.343 224.043L267.117 224.968" stroke="black" stroke-width="0.471607" stroke-linecap="round" stroke-linejoin="round"/>
<path d="M260.218 235.32L260.134 232.119" stroke="black" stroke-width="0.471607" stroke-linecap="round" stroke-linejoin="round"/>
<path d="M257.186 180.645C257.186 180.645 249.713 186.931 249.713 188.633C249.713 190.334 252.157 197.803 253.109 200.821C254.273 204.038 256.125 206.982 258.544 209.464C260.716 211.693 264.932 214.313 265.884 214.313C266.648 214.234 267.387 214.004 268.056 213.638C268.056 213.638 268.602 224.381 270.5 228.183C272.398 231.984 273.357 231.849 273.764 230.931C274.17 230.012 279.199 214.164 279.199 214.164L281.643 202.894L276.481 190.064C276.481 190.064 269.281 183.906 264.386 182.333C259.49 180.759 257.186 180.645 257.186 180.645Z" fill="white" stroke="black" stroke-width="0.471607" stroke-linecap="round" stroke-linejoin="round"/>
<path d="M261.388 203.306C261.388 203.306 261.388 205.67 261.801 205.798C262.214 205.926 263.972 206.473 264.519 205.123" stroke="black" stroke-width="0.471607" stroke-linecap="round" stroke-linejoin="round"/>
<path d="M262.873 208.411C262.873 208.411 266.949 208.938 268.308 206.183" stroke="black" stroke-width="0.471607" stroke-linecap="round" stroke-linejoin="round"/>
<path d="M268.034 213.657C268.034 213.657 272.517 210.281 274.968 207.107C274.968 207.107 272.251 213.266 271.431 214.839C270.965 215.729 270.558 216.647 270.213 217.587L268.034 213.657Z" fill="black" stroke="black" stroke-width="0.471607" stroke-linecap="round" stroke-linejoin="round"/>
<path d="M265.59 197.283C265.59 197.283 269.26 198.329 270.752 196.101" stroke="black" stroke-width="0.471607" stroke-linecap="round" stroke-linejoin="round"/>
<path d="M263.958 194.136C263.958 194.136 268.035 191.908 270.892 192.826" stroke="black" stroke-width="0.471607" stroke-linecap="round" stroke-linejoin="round"/>
<path d="M254.307 198.856C254.939 199.231 255.681 199.396 256.419 199.324C257.157 199.252 257.85 198.947 258.39 198.458" stroke="black" stroke-width="0.471607" stroke-linecap="round" stroke-linejoin="round"/>
<path d="M258.117 195.581C258.117 195.581 256.079 194.264 253.088 195.71" stroke="black" stroke-width="0.471607" stroke-linecap="round" stroke-linejoin="round"/>
<path d="M296.288 228.966C296.288 228.966 294.712 234.213 295.286 237.805C295.86 241.397 295.006 252.978 295.006 253.545C295.006 254.112 291.854 255.476 291.994 256.442C292.175 257.374 292.409 258.296 292.695 259.204L288.107 257.408L281.951 265.281C285.951 268.774 290.374 271.787 295.125 274.255C303.432 278.671 309.133 277.294 309.133 277.294C309.133 277.294 312.424 257.826 312.859 249.122C313.293 240.418 315.289 228.966 312.158 220.822C309.7 214.455 298.851 213.638 296.407 224.55" fill="#008080"/>
<path d="M296.288 228.966C296.288 228.966 294.712 234.213 295.286 237.805C295.86 241.397 295.006 252.978 295.006 253.545C295.006 254.112 291.854 255.476 291.994 256.442C292.175 257.374 292.409 258.296 292.695 259.204L288.107 257.408L281.951 265.281C285.951 268.774 290.374 271.787 295.125 274.255C303.432 278.671 309.133 277.294 309.133 277.294C309.133 277.294 312.424 257.826 312.859 249.122C313.293 240.418 315.289 228.966 312.158 220.822C309.7 214.455 298.851 213.638 296.407 224.55" stroke="black" stroke-width="0.471607" stroke-linecap="round" stroke-linejoin="round"/>
<path d="M303.915 250.79L305.309 250.229" stroke="black" stroke-width="0.471607" stroke-linecap="round" stroke-linejoin="round"/>
<path d="M296.715 253.68L302.171 251.492" stroke="black" stroke-width="0.471607" stroke-linecap="round" stroke-linejoin="round"/>
<path d="M293.71 259.48C293.71 259.48 305.736 256.584 305.617 257.549C305.498 258.515 301.464 258.9 301.464 258.9" stroke="black" stroke-width="0.471607" stroke-linecap="round" stroke-linejoin="round"/>
<path d="M295.006 260.034C295.006 260.034 303.88 261 305.456 264.592" stroke="black" stroke-width="0.471607" stroke-linecap="round" stroke-linejoin="round"/>
<path d="M303.943 268.151C304.454 268.469 305.011 268.712 305.596 268.873" stroke="black" stroke-width="0.471607" stroke-linecap="round" stroke-linejoin="round"/>
<path d="M294.306 261.277C294.306 261.277 299.033 265.031 302.507 267.266" stroke="black" stroke-width="0.471607" stroke-linecap="round" stroke-linejoin="round"/>
<path d="M238.829 235.827C238.829 235.827 235.6 242.478 236.819 243.572C238.037 244.666 245.377 251.479 246.078 251.817C246.778 252.154 248.781 258.049 249.832 260.318C250.882 262.587 251.492 267.894 253.495 268.651C255.498 269.407 259.798 265.457 259.868 263.438C259.938 261.419 259.868 260.656 257.949 258.036C256.03 255.416 251.646 247.009 251.646 247.009L239.676 234.476L238.829 235.827Z" fill="white" stroke="black" stroke-width="0.471607" stroke-linecap="round" stroke-linejoin="round"/>
<path d="M233.247 227.575L246.778 248.784L257.165 250.135L247.037 230.856L233.247 227.575Z" fill="black" stroke="black" stroke-width="0.471607" stroke-linecap="round" stroke-linejoin="round"/>
<path d="M288.121 257.407C288.121 257.407 272.657 246.9 268.644 244.294C266.645 243.03 264.731 241.646 262.915 240.148C262.915 240.148 262.488 237.528 261.514 236.42C260.54 235.313 259.511 235.07 257.648 235.178C255.785 235.286 254.209 235.597 253.06 235.178C251.912 234.759 249.769 231.315 249.482 232.835C249.194 234.354 249.341 235.455 250.77 236.562C252.199 237.67 254.209 238.082 254.783 238.352C255.358 238.622 253.873 238.858 253.873 238.858C251.568 239.641 249.106 239.899 246.68 239.614C244.284 239.315 241.94 238.706 239.711 237.805C238.71 237.528 238.85 238.905 239.998 239.736C241.147 240.566 241.854 240.978 241.854 240.978C241.854 240.978 238.275 240.425 238.71 241.532C239.144 242.64 240.713 243.605 241.714 244.294C242.716 244.983 243.717 246.225 244.579 246.637C245.44 247.049 245.58 248.987 247.016 249.817C248.452 250.648 248.025 250.554 251.681 250.878C255.514 251.174 259.367 251.143 263.195 250.783L281.958 265.281L288.121 257.407Z" fill="white" stroke="black" stroke-width="0.471607" stroke-linecap="round" stroke-linejoin="round"/>
<path d="M241.861 240.979C241.861 240.979 245.447 242.633 246.015 242.633H253.754" stroke="black" stroke-width="0.471607" stroke-linecap="round" stroke-linejoin="round"/>
<path d="M241.077 243.99C241.912 244.087 242.73 244.284 243.514 244.578C244.019 244.902 247.296 245.53 248.305 245.692C249.813 245.793 251.325 245.82 252.836 245.773" stroke="black" stroke-width="0.471607" stroke-linecap="round" stroke-linejoin="round"/>
<path d="M244.579 246.637C244.579 246.637 248.578 248.528 249.334 248.663C250.959 248.704 252.584 248.65 254.202 248.501" stroke="black" stroke-width="0.471607" stroke-linecap="round" stroke-linejoin="round"/>
<path d="M291.56 203.286C286.386 197.936 281.647 192.211 277.385 186.161C277.385 186.161 275.809 207.837 279.241 217.088C282.672 226.339 295.286 222.49 299.72 220.127C304.153 217.763 305.736 215.987 308.46 216.399C302.271 212.739 296.592 208.332 291.56 203.286Z" fill="black" stroke="black" stroke-width="0.471607" stroke-linecap="round" stroke-linejoin="round"/>
<path d="M259.287 179.544C254.286 173.818 257.186 180.644 257.186 180.644C257.186 180.644 266.76 189.457 276.481 190.098C276.46 190.078 264.302 185.27 259.287 179.544Z" fill="black" stroke="black" stroke-width="0.471607" stroke-linecap="round" stroke-linejoin="round"/>
</g>
<defs>
<clipPath id="clip0_584_7430">
<rect width="332" height="315" fill="white"/>
</clipPath>
</defs>
</svg>
