<svg width="21" height="21" viewBox="0 0 21 21" fill="none" xmlns="http://www.w3.org/2000/svg">
<g clip-path="url(#clip0_2500_4157)">
<path fill-rule="evenodd" clip-rule="evenodd" d="M2.6916 4.91488C2.75788 4.75503 2.87006 4.61842 3.01397 4.52232C3.15788 4.42622 3.32706 4.37496 3.5001 4.375H12.2501C13.0544 4.375 13.8509 4.53343 14.594 4.84124C15.3372 5.14905 16.0124 5.60021 16.5811 6.16897C17.1499 6.73773 17.6011 7.41294 17.9089 8.15606C18.2167 8.89918 18.3751 9.69565 18.3751 10.5C18.3751 11.3043 18.2167 12.1008 17.9089 12.8439C17.6011 13.5871 17.1499 14.2623 16.5811 14.831C16.0124 15.3998 15.3372 15.851 14.594 16.1588C13.8509 16.4666 13.0544 16.625 12.2501 16.625H4.3751C4.14304 16.625 3.92048 16.5328 3.75638 16.3687C3.59229 16.2046 3.5001 15.9821 3.5001 15.75C3.5001 15.5179 3.59229 15.2954 3.75638 15.1313C3.92048 14.9672 4.14304 14.875 4.3751 14.875H12.2501C13.4104 14.875 14.5232 14.4141 15.3437 13.5936C16.1642 12.7731 16.6251 11.6603 16.6251 10.5C16.6251 9.33968 16.1642 8.22688 15.3437 7.40641C14.5232 6.58594 13.4104 6.125 12.2501 6.125H5.61235L7.18123 7.69388C7.34061 7.8589 7.42881 8.07993 7.42682 8.30935C7.42482 8.53877 7.3328 8.75823 7.17057 8.92047C7.00834 9.0827 6.78887 9.17472 6.55945 9.17671C6.33003 9.17871 6.109 9.09051 5.94398 8.93112L2.88148 5.86862C2.75904 5.74626 2.67564 5.59033 2.64184 5.42056C2.60804 5.25078 2.62536 5.0748 2.6916 4.91488Z" fill="black"/>
</g>
<defs>
<clipPath id="clip0_2500_4157">
<rect width="21" height="21" fill="white"/>
</clipPath>
</defs>
</svg>
