<svg width="39" height="40" viewBox="0 0 39 40" fill="none" xmlns="http://www.w3.org/2000/svg">
<path d="M28.2432 40H11.8075C10.8383 40 10.0498 39.2114 10.0498 38.2423V37.4544C5.94545 35.562 1.58901 29.9476 1.58901 26.4438C1.58901 25.4747 2.37755 24.6861 3.34671 24.6861H6.00607C6.32972 24.6861 6.59197 24.9484 6.59197 25.272C6.59197 25.5957 6.32972 25.8579 6.00607 25.8579H3.34671C3.02361 25.8579 2.76081 26.1207 2.76081 26.4438C2.76081 27.844 3.7434 29.9666 5.3251 31.983C6.94624 34.0498 8.9669 35.7241 10.7528 36.4846H22.8435C23.1672 36.4846 23.4294 36.7468 23.4294 37.0705C23.4294 37.3941 23.1672 37.6564 22.8435 37.6564H11.2216V38.2423C11.2216 38.5654 11.4844 38.8282 11.8075 38.8282H28.2432C28.5663 38.8282 28.8291 38.5654 28.8291 38.2423V37.6564H25.1873C24.8636 37.6564 24.6014 37.3941 24.6014 37.0705C24.6014 36.7468 24.8636 36.4846 25.1873 36.4846H29.2979C31.0838 35.7241 33.1045 34.0498 34.7256 31.983C36.3072 29.9665 37.2898 27.844 37.2898 26.4438C37.2898 26.1207 37.027 25.8579 36.7039 25.8579H30.0199L28.5387 27.3392C28.4288 27.4491 28.2798 27.5108 28.1243 27.5108C27.9689 27.5108 27.82 27.4491 27.71 27.3392L25.0417 24.6709C24.8129 24.442 24.8129 24.071 25.0417 23.8423C25.2706 23.6135 25.6415 23.6135 25.8703 23.8423L28.1243 26.0963L29.8684 24.3522C29.9791 24.2416 30.04 24.0945 30.04 23.938C30.04 23.7814 29.9791 23.6343 29.8684 23.5237L26.7858 20.441L20.4845 26.7423L23.5671 29.8249C23.7956 30.0535 24.1673 30.0534 24.3957 29.8249L24.81 29.4106L22.5559 27.1566C22.3271 26.9277 22.3271 26.5568 22.5559 26.328C22.7848 26.0992 23.1557 26.0992 23.3844 26.328L25.6385 28.582L26.0694 28.1511C26.2984 27.9222 26.6693 27.9224 26.898 28.1511C27.1268 28.3799 27.1268 28.7509 26.898 28.9797L25.2242 30.6535C24.8922 30.9855 24.4508 31.1683 23.9813 31.1683C23.5117 31.1683 23.0704 30.9855 22.7384 30.6535L19.5854 27.5004C19.0247 27.7693 18.3471 27.7264 17.8132 27.3494L15.7011 25.8578C15.6977 25.8578 15.6943 25.8578 15.6908 25.8578H15.3227C14.3536 25.8578 13.565 26.6464 13.565 27.6155V30.8539C13.565 31.3321 13.3665 31.7957 13.0205 32.1258C12.6694 32.4606 12.2097 32.6328 11.723 32.6095C10.7847 32.5654 10.0496 31.7796 10.0496 30.8208V25.8578H8.34951C8.02586 25.8578 7.76361 25.5956 7.76361 25.2719C7.76361 24.9483 8.02586 24.686 8.34951 24.686H14.042L13.5352 24.328C12.9603 23.9221 12.6835 23.215 12.8299 22.5266L13.5838 18.9823C13.9084 17.4559 13.4434 15.8857 12.3399 14.7823L0.55314 2.99557C0.215037 2.65738 0.0275489 2.18921 0.0388763 1.71104C0.0502818 1.22607 0.254644 0.778755 0.614152 0.451667C1.30895 -0.180714 2.38419 -0.144935 3.06235 0.533146L14.8259 12.2967C15.9293 13.4002 17.4997 13.8653 19.0259 13.5405C19.3422 13.4731 19.6536 13.6752 19.7209 13.9917C19.7882 14.3082 19.5862 14.6193 19.2698 14.6866C17.3538 15.0944 15.3825 14.5104 13.9973 13.1253L2.23374 1.36176C2.00289 1.13076 1.6301 1.11131 1.40285 1.31825C1.28255 1.4277 1.21419 1.57706 1.21036 1.73862C1.20654 1.9004 1.26739 2.05258 1.38176 2.16695L13.1687 13.9538C14.5539 15.339 15.1377 17.31 14.7301 19.2262L13.9763 22.7705C13.9274 23 14.0198 23.2356 14.2113 23.371L18.4894 26.3923C18.7232 26.5573 19.0395 26.5304 19.2418 26.328L26.3716 19.1981C26.5739 18.9959 26.6009 18.6795 26.4359 18.4458L23.4146 14.1678C23.2793 13.9763 23.0436 13.8838 22.8141 13.9328L21.7115 14.1672C21.3952 14.2343 21.0839 14.0325 21.0165 13.716C20.9492 13.3995 21.1513 13.0884 21.4677 13.021L22.5702 12.7866C23.2584 12.6399 23.9655 12.917 24.3716 13.4918L27.393 17.7698C27.7699 18.3036 27.8128 18.9812 27.544 19.542L30.6971 22.695C31.2346 23.2326 31.3505 24.0344 31.0448 24.686H36.7039C37.6731 24.686 38.4616 25.4746 38.4616 26.4437C38.4616 29.9475 34.1052 35.5619 30.0009 37.4544V38.2422C30.0009 39.2115 29.2124 40 28.2432 40ZM11.2216 25.8579V30.8209C11.2216 31.1473 11.4713 31.4247 11.7784 31.4391C11.9405 31.4472 12.0947 31.3896 12.2118 31.278C12.3289 31.1663 12.3934 31.0157 12.3934 30.8539V27.6155C12.3934 26.9566 12.6121 26.3477 12.9807 25.8578H11.2216V25.8579Z" fill="#008080"/>
</svg>
