<svg width="20" height="20" viewBox="0 0 20 20" fill="none" xmlns="http://www.w3.org/2000/svg">
<path fill-rule="evenodd" clip-rule="evenodd" d="M4.65 4.64995C4.82577 4.47438 5.06406 4.37577 5.3125 4.37577C5.56094 4.37577 5.79921 4.47438 5.975 4.64995L10 8.67495L14.025 4.64995C14.1109 4.55783 14.2144 4.48396 14.3294 4.43272C14.4444 4.38148 14.5685 4.35393 14.6944 4.35171C14.8202 4.34948 14.9452 4.37265 15.062 4.4198C15.1787 4.46695 15.2847 4.53712 15.3737 4.62615C15.4629 4.71517 15.533 4.82122 15.5801 4.93795C15.6272 5.05468 15.6505 5.17972 15.6482 5.3056C15.646 5.43148 15.6185 5.55562 15.5672 5.67062C15.516 5.78562 15.4421 5.88912 15.35 5.97495L11.325 9.99995L15.35 14.0249C15.4421 14.1108 15.516 14.2143 15.5672 14.3293C15.6185 14.4443 15.646 14.5684 15.6482 14.6943C15.6505 14.8202 15.6272 14.9452 15.5801 15.0619C15.533 15.1787 15.4629 15.2847 15.3737 15.3737C15.2847 15.4628 15.1787 15.5329 15.062 15.5801C14.9452 15.6272 14.8202 15.6504 14.6944 15.6482C14.5685 15.6459 14.4444 15.6184 14.3294 15.5672C14.2144 15.5159 14.1109 15.4421 14.025 15.3499L10 11.3249L5.975 15.3499C5.79727 15.5156 5.56221 15.6057 5.31934 15.6014C5.07646 15.5971 4.84474 15.4987 4.67296 15.3269C4.5012 15.1552 4.40281 14.9234 4.39852 14.6806C4.39424 14.4377 4.4844 14.2027 4.65 14.0249L8.675 9.99995L4.65 5.97495C4.47444 5.79917 4.37582 5.56088 4.37582 5.31245C4.37582 5.06401 4.47444 4.82573 4.65 4.64995Z" fill="#DA1414"/>
</svg>
