<svg width="11" height="11" viewBox="0 0 11 11" fill="none" xmlns="http://www.w3.org/2000/svg">
<g clip-path="url(#clip0_2492_3416)">
<path d="M0.916748 4.12499C0.916748 3.26057 0.916748 2.82882 1.18533 2.56024C1.45391 2.29166 1.88566 2.29166 2.75008 2.29166H8.25008C9.1145 2.29166 9.54625 2.29166 9.81483 2.56024C10.0834 2.82882 10.0834 3.26057 10.0834 4.12499C10.0834 4.34086 10.0834 4.44903 10.0165 4.51641C9.94912 4.58332 9.8405 4.58332 9.62508 4.58332H1.37508C1.15921 4.58332 1.05104 4.58332 0.983665 4.51641C0.916748 4.44903 0.916748 4.34041 0.916748 4.12499ZM0.916748 8.24999C0.916748 9.11441 0.916748 9.54616 1.18533 9.81474C1.45391 10.0833 1.88566 10.0833 2.75008 10.0833H8.25008C9.1145 10.0833 9.54625 10.0833 9.81483 9.81474C10.0834 9.54616 10.0834 9.11441 10.0834 8.24999V5.95832C10.0834 5.74245 10.0834 5.63428 10.0165 5.56691C9.94912 5.49999 9.8405 5.49999 9.62508 5.49999H1.37508C1.15921 5.49999 1.05104 5.49999 0.983665 5.56691C0.916748 5.63428 0.916748 5.74291 0.916748 5.95832V8.24999Z" fill="#008080"/>
<path d="M3.2085 1.375V2.75M7.79183 1.375V2.75" stroke="#008080" stroke-width="2" stroke-linecap="round"/>
</g>
<defs>
<clipPath id="clip0_2492_3416">
<rect width="11" height="11" fill="white"/>
</clipPath>
</defs>
</svg>
