<svg width="20" height="20" viewBox="0 0 20 20" fill="none" xmlns="http://www.w3.org/2000/svg">
<path d="M9.375 18.7505V17.3278C6.2707 17.1489 4.38477 15.5497 4.375 13.1255H7.1875C7.25664 14.1544 8.11953 14.9399 9.375 15.0786V11.2505L8.3293 10.977C5.94648 10.4231 4.67148 9.04775 4.67148 6.98955C4.67148 4.56338 6.40937 2.97236 9.375 2.73486V1.25049H10.625V2.73486C13.648 2.98096 15.2734 4.59971 15.3125 6.87549H12.5C12.4703 5.93564 11.8816 5.18057 10.625 5.07861V8.67236L11.8289 8.95674C14.3598 9.51064 15.625 10.8208 15.625 12.9692C15.625 15.4825 13.9164 17.1052 10.625 17.3177V18.7505H9.375ZM9.375 8.43799V5.07861C8.29726 5.13799 7.52851 5.8001 7.52851 6.73994C7.52851 7.61103 8.16875 8.18056 9.375 8.43799ZM10.625 11.4849V15.0786C12.1152 15.0185 12.8273 14.3395 12.8273 13.2907C12.8273 12.3306 12.1152 11.6841 10.625 11.4849Z" fill="#008080"/>
</svg>
