<svg width="17" height="19" viewBox="0 0 17 19" fill="none" xmlns="http://www.w3.org/2000/svg">
<path d="M14.5594 1.74488C14.3133 1.4987 14.0212 1.30343 13.6996 1.17023C13.3781 1.03703 13.0334 0.968516 12.6854 0.968597C12.3373 0.968679 11.9927 1.03736 11.6712 1.17071C11.3497 1.30406 11.0577 1.49946 10.8118 1.74575L2.49313 10.0758C1.99747 10.5726 1.719 11.2456 1.71875 11.9474V14.75C1.71875 15.1123 2.01275 15.4062 2.375 15.4062H5.19512C5.89775 15.4062 6.5715 15.1263 7.06763 14.6301L15.3801 6.31238C15.876 5.81535 16.1544 5.14195 16.1544 4.43988C16.1544 3.73781 15.876 3.0644 15.3801 2.56738L14.5594 1.74488ZM1.5 16.7188C1.32595 16.7188 1.15903 16.7879 1.03596 16.911C0.91289 17.034 0.84375 17.201 0.84375 17.375C0.84375 17.549 0.91289 17.716 1.03596 17.839C1.15903 17.9621 1.32595 18.0312 1.5 18.0312H15.5C15.674 18.0312 15.841 17.9621 15.964 17.839C16.0871 17.716 16.1562 17.549 16.1562 17.375C16.1562 17.201 16.0871 17.034 15.964 16.911C15.841 16.7879 15.674 16.7188 15.5 16.7188H1.5Z" fill="#9EA1AE"/>
</svg>
