<svg width="21" height="21" viewBox="0 0 21 21" fill="none" xmlns="http://www.w3.org/2000/svg">
<path d="M10.5001 20.1073C10.2446 20.1073 10.0008 20.0594 9.76891 19.9635C9.53699 19.8677 9.32552 19.7319 9.13449 19.5562L1.44386 11.8656C1.26817 11.674 1.13241 11.4622 1.03657 11.2302C0.940739 10.9983 0.892822 10.7549 0.892822 10.5C0.892822 10.2451 0.940739 9.99751 1.03657 9.75729C1.13241 9.51707 1.26817 9.30943 1.44386 9.13437L9.13449 1.44375C9.32615 1.25208 9.53795 1.11217 9.76986 1.024C10.0018 0.935832 10.2452 0.892068 10.5001 0.892707C10.755 0.893346 11.0026 0.937429 11.2428 1.02496C11.483 1.11248 11.6907 1.25208 11.8657 1.44375L19.5564 9.13437C19.748 9.31007 19.8879 9.51771 19.9761 9.75729C20.0643 9.99687 20.108 10.2444 20.1074 10.5C20.1068 10.7556 20.063 10.9993 19.9761 11.2312C19.8892 11.4631 19.7493 11.6746 19.5564 11.8656L11.8657 19.5562C11.69 19.7319 11.4824 19.8677 11.2428 19.9635C11.0032 20.0594 10.7557 20.1073 10.5001 20.1073ZM9.54178 11.4583H11.4584V5.70833H9.54178V11.4583ZM10.5001 14.3333C10.7716 14.3333 10.9994 14.2413 11.1834 14.0573C11.3674 13.8733 11.4591 13.6459 11.4584 13.375C11.4578 13.1041 11.3658 12.8767 11.1824 12.6927C10.9991 12.5087 10.7716 12.4167 10.5001 12.4167C10.2286 12.4167 10.0011 12.5087 9.81778 12.6927C9.63442 12.8767 9.54242 13.1041 9.54178 13.375C9.54114 13.6459 9.63314 13.8737 9.81778 14.0583C10.0024 14.2429 10.2299 14.3346 10.5001 14.3333Z" fill="#BF2424"/>
</svg>
