<svg width="29" height="40" viewBox="0 0 29 40" fill="none" xmlns="http://www.w3.org/2000/svg">
<path d="M14.5005 40C13.3337 40 12.1677 39.6644 11.1543 38.994C8.2541 37.0756 6.17734 34.9906 4.80527 32.6201C3.46797 30.3096 2.75764 27.6712 2.64334 24.5781C-0.76393 20.1193 -0.799634 13.9043 2.57826 9.39555C3.52274 8.13497 4.67409 7.0776 6.00053 6.25281L9.33194 4.18128C9.84102 1.79528 11.9654 0 14.5011 0C15.8352 0 17.1095 0.498841 18.0891 1.40464L23.3233 6.24438C23.561 6.46407 23.5754 6.83478 23.3557 7.07244C23.136 7.31003 22.7652 7.32456 22.5277 7.10487L17.2935 2.26514C16.5311 1.56012 15.5394 1.1719 14.5011 1.1719C12.2331 1.1719 10.388 3.01703 10.388 5.28506C10.388 6.0425 10.5953 6.78252 10.9878 7.42511C11.1564 7.70129 11.0692 8.06192 10.793 8.2306C10.5167 8.3992 10.1562 8.31201 9.98758 8.03583C9.5421 7.30628 9.28202 6.4797 9.2271 5.62663L6.61945 7.24807C5.41716 7.99567 4.37307 8.9546 3.51625 10.0983C3.51469 10.1003 3.51321 10.1023 3.51172 10.1043C3.51078 10.1056 3.50961 10.1071 3.50867 10.1084C3.50813 10.1092 3.50774 10.1096 3.50719 10.1103C0.807358 13.7239 0.522351 18.5512 2.6299 22.4124C2.67522 20.2566 3.2782 17.7576 6.78501 15.3116C7.81738 14.5915 11.1146 12.4122 13.4317 10.8906C12.8593 10.519 12.2571 10.1287 11.6237 9.71892C11.352 9.54313 11.2743 9.18039 11.45 8.90866C11.6257 8.63686 11.9886 8.55912 12.2603 8.73499C17.3017 11.9966 20.3724 14.0249 22.2171 15.3116C25.724 17.7576 26.327 20.2565 26.3723 22.4123C28.4819 18.5467 28.1939 13.7128 25.4859 10.0982C25.0683 9.54095 24.6163 9.03609 24.1423 8.5978C23.9047 8.3781 23.8902 8.00739 24.1099 7.76973C24.3296 7.53207 24.7003 7.51753 24.938 7.73731C25.4639 8.22372 25.9638 8.78155 26.4239 9.39547C29.7982 13.8994 29.7644 20.1211 26.3585 24.5784C26.2116 28.4949 25.0962 31.7364 22.9614 34.4638C22.762 34.7186 22.3938 34.7636 22.1389 34.5641C21.8841 34.3646 21.8392 33.9963 22.0387 33.7416C24.1978 30.983 25.2034 27.7838 25.2034 23.6733V22.7003C25.2034 20.6866 24.7605 18.5141 21.5469 16.2727C20.0939 15.2592 17.8695 13.7789 14.5047 11.5881C11.7676 13.3832 8.42333 15.5977 7.45549 16.2727C4.2419 18.5142 3.79892 20.6866 3.79892 22.7003V23.6733C3.79892 26.9492 4.45995 29.6836 5.81975 32.033C7.09892 34.2431 9.05545 36.2003 11.801 38.0165C13.4172 39.0857 15.5151 39.0997 17.1456 38.0524L17.2075 38.0126C18.5858 37.1007 19.6431 36.2738 20.5288 35.4143C20.7611 35.1889 21.132 35.1944 21.3573 35.4266C21.5827 35.6589 21.5772 36.0298 21.345 36.2551C20.4058 37.1666 19.2946 38.0369 17.848 38.9939L17.7796 39.038C16.7805 39.6797 15.6401 39.9999 14.5005 40ZM14.5011 36.4208C13.5288 36.4208 12.6889 36.1722 11.858 35.6387C11.5857 35.4639 11.5068 35.1014 11.6816 34.829C11.8566 34.5567 12.219 34.4778 12.4913 34.6526C13.1334 35.065 13.7532 35.2489 14.5011 35.2489C15.2488 35.2489 15.8687 35.065 16.5107 34.6527C16.7831 34.4779 17.1455 34.5569 17.3204 34.8291C17.4953 35.1014 17.4163 35.4639 17.144 35.6388C16.3132 36.1722 15.4733 36.4208 14.5011 36.4208ZM16.7403 33.4682H12.2608C11.3282 33.4682 10.4225 33.0732 9.77625 32.3844C9.55484 32.1484 9.56656 31.7776 9.80258 31.5562C10.0386 31.3348 10.4094 31.3465 10.6308 31.5825C11.0564 32.0361 11.6505 32.2963 12.2608 32.2963H16.7402C17.351 32.2963 17.9455 32.0361 18.3712 31.5825C18.5926 31.3466 18.9634 31.3349 19.1994 31.5562C19.4354 31.7776 19.4472 32.1485 19.2257 32.3845C18.5796 33.0732 17.6736 33.4682 16.7403 33.4682ZM14.5011 30.5413C12.7794 30.5413 11.9754 29.3003 11.9421 29.2474C11.7693 28.9739 11.8509 28.6119 12.1244 28.439C12.3964 28.267 12.7559 28.3469 12.9299 28.6168C12.9571 28.6574 13.4495 29.3693 14.5011 29.3693C15.567 29.3693 16.0648 28.6288 16.0695 28.6213C16.2424 28.3477 16.6044 28.2661 16.8779 28.439C17.1514 28.6119 17.2331 28.9738 17.0602 29.2474C17.0267 29.3004 16.2226 30.5413 14.5011 30.5413ZM19.9337 26.9448C17.5932 26.9448 15.6892 25.0407 15.6892 22.7003C15.6892 20.36 17.5933 18.4559 19.9337 18.4559C22.2741 18.4559 24.1782 20.3599 24.1782 22.7003C24.1782 25.0408 22.2741 26.9448 19.9337 26.9448ZM19.9337 19.6278C18.2394 19.6278 16.8611 21.0062 16.8611 22.7003C16.8611 24.3946 18.2395 25.7729 19.9337 25.7729C21.6279 25.7729 23.0063 24.3945 23.0063 22.7003C23.0063 21.0062 21.628 19.6278 19.9337 19.6278ZM9.06834 26.9448C6.7279 26.9448 4.82386 25.0407 4.82386 22.7003C4.82386 20.36 6.7279 18.4559 9.06834 18.4559C11.4088 18.4559 13.3128 20.3599 13.3128 22.7003C13.3128 25.0408 11.4088 26.9448 9.06834 26.9448ZM9.06834 19.6278C7.37408 19.6278 5.99577 21.0062 5.99577 22.7003C5.99577 24.3946 7.37408 25.7729 9.06834 25.7729C10.7626 25.7729 12.1409 24.3945 12.1409 22.7003C12.1409 21.0062 10.7626 19.6278 9.06834 19.6278ZM19.9337 24.601C19.6101 24.601 19.3477 24.3387 19.3477 24.0151V23.7982C19.3477 23.4746 19.6101 23.2122 19.9337 23.2122C20.2573 23.2122 20.5196 23.4746 20.5196 23.7982V24.0151C20.5196 24.3387 20.2574 24.601 19.9337 24.601ZM9.06834 24.601C8.74474 24.601 8.48239 24.3387 8.48239 24.0151V23.7982C8.48239 23.4746 8.74474 23.2122 9.06834 23.2122C9.39195 23.2122 9.6543 23.4746 9.6543 23.7982V24.0151C9.6543 24.3387 9.39195 24.601 9.06834 24.601ZM10.0196 22.7375C9.81711 22.7375 9.62023 22.6325 9.51171 22.4445C9.34984 22.1642 9.44585 21.8059 9.7261 21.6441L9.91383 21.5356C10.194 21.3738 10.5524 21.4697 10.7143 21.75C10.8762 22.0302 10.7802 22.3886 10.4999 22.5504L10.3122 22.6589C10.2199 22.7121 10.1191 22.7375 10.0196 22.7375ZM20.885 22.7375C20.6825 22.7375 20.4855 22.6325 20.377 22.4445C20.2152 22.1642 20.3112 21.8059 20.5914 21.6441L20.7793 21.5356C21.0594 21.3739 21.4179 21.4698 21.5797 21.7501C21.7415 22.0303 21.6455 22.3887 21.3652 22.5505L21.1774 22.6589C21.0852 22.7121 20.9844 22.7375 20.885 22.7375ZM18.9824 22.7375C18.883 22.7375 18.7823 22.7122 18.69 22.6589L18.5022 22.5505C18.2219 22.3887 18.1259 22.0303 18.2877 21.7501C18.4495 21.4698 18.8078 21.3737 19.0881 21.5356L19.2759 21.6441C19.5562 21.8059 19.6522 22.1642 19.4904 22.4445C19.3819 22.6325 19.1849 22.7375 18.9824 22.7375ZM8.11707 22.7375C8.01769 22.7375 7.91691 22.7122 7.82464 22.6589L7.63682 22.5505C7.35658 22.3887 7.26056 22.0303 7.42236 21.7501C7.58417 21.4698 7.94246 21.3737 8.22278 21.5356L8.41059 21.6441C8.69083 21.8059 8.78685 22.1642 8.62505 22.4445C8.51653 22.6325 8.31958 22.7375 8.11707 22.7375Z" fill="#008080"/>
</svg>
