<svg width="18" height="13" viewBox="0 0 18 13" fill="none" xmlns="http://www.w3.org/2000/svg">
<path fill-rule="evenodd" clip-rule="evenodd" d="M0.25 1.71484C0.25 1.30063 0.585786 0.964844 1 0.964844H17C17.4142 0.964844 17.75 1.30063 17.75 1.71484C17.75 2.12906 17.4142 2.46484 17 2.46484H1C0.585786 2.46484 0.25 2.12906 0.25 1.71484ZM0.25 6.71484C0.25 6.30063 0.585786 5.96484 1 5.96484H12C12.4142 5.96484 12.75 6.30063 12.75 6.71484C12.75 7.12906 12.4142 7.46484 12 7.46484H1C0.585786 7.46484 0.25 7.12906 0.25 6.71484ZM0.25 11.7148C0.25 11.3006 0.585786 10.9648 1 10.9648H6C6.41421 10.9648 6.75 11.3006 6.75 11.7148C6.75 12.1291 6.41421 12.4648 6 12.4648H1C0.585786 12.4648 0.25 12.1291 0.25 11.7148Z" fill="#008080"/>
</svg>
