<svg width="40" height="40" viewBox="0 0 40 40" fill="none" xmlns="http://www.w3.org/2000/svg">
<g clip-path="url(#clip0_680_2677)">
<path d="M27.6747 40C27.4695 40 27.2743 39.8917 27.1677 39.7076C27.0346 39.4779 27.0728 39.1874 27.2605 38.9996C30.4208 35.8393 31.8927 32.0867 31.8927 27.1898C31.8927 26.8661 32.1551 26.6039 32.4787 26.6039C32.8023 26.6039 33.0646 26.8661 33.0646 27.1898C33.0646 31.5128 31.9206 35.1174 29.578 38.1424C32.0972 37.0722 33.977 35.4231 35.0749 33.3002C36.4185 30.7021 36.6068 27.3993 35.6194 23.7489L31.9963 10.3544C31.9556 10.2039 31.9766 10.0434 32.0545 9.90834C32.1325 9.77326 32.2611 9.67498 32.4118 9.63498C32.7245 9.55201 33.047 9.73803 33.1299 10.0508C33.1334 10.0642 33.1364 10.0776 33.1391 10.0911L36.7506 23.4429C37.8159 27.381 37.5963 30.9757 36.1159 33.8384C34.5821 36.8042 31.7162 38.9278 27.8278 39.9795C27.7769 39.9934 27.7256 40 27.6747 40ZM12.3253 40C12.2745 40 12.2231 39.9934 12.1722 39.9796C8.28389 38.9278 5.41796 36.8042 3.88421 33.8385C2.40374 30.9757 2.18421 27.381 3.24944 23.443L6.85655 10.1075C6.85975 10.0876 6.86397 10.0676 6.86928 10.0479C8.46561 4.13187 13.8651 0 20 0C22.6339 0 25.1892 0.754217 27.3896 2.18109C29.5325 3.5707 31.2371 5.52468 32.319 7.8317C32.4564 8.12467 32.3302 8.47365 32.0373 8.611C31.7442 8.74873 31.3954 8.6224 31.258 8.32936C30.2692 6.22077 28.711 4.43468 26.752 3.16445C24.742 1.86086 22.4071 1.17187 20 1.17187C14.4134 1.17187 9.49428 4.9203 8.01631 10.2955C8.01311 10.3152 8.00889 10.3349 8.00365 10.3544L4.38061 23.7489C3.39319 27.3993 3.58148 30.7021 4.92507 33.3002C6.02296 35.4232 7.90279 37.0722 10.422 38.1424C8.07936 35.1173 6.93538 31.5128 6.93538 27.1898C6.93538 26.8661 7.19772 26.6039 7.52131 26.6039C7.8449 26.6039 8.10725 26.8661 8.10725 27.1898C8.10725 32.0867 9.5792 35.8393 12.7395 38.9996C12.9272 39.1873 12.9653 39.4778 12.8323 39.7076C12.7257 39.8917 12.5305 40 12.3253 40ZM24.1592 39.9999C24.0092 39.9999 23.8592 39.9427 23.7449 39.8284C23.516 39.5994 23.516 39.2285 23.7449 38.9997C25.5307 37.214 26.7772 35.2393 27.5239 32.9757C26.0027 32.3556 24.1471 31.9379 22.1274 31.7631C21.805 31.7353 21.5662 31.4513 21.5941 31.1289C21.622 30.8066 21.9059 30.5675 22.2284 30.5957C24.3127 30.776 26.2425 31.2055 27.8498 31.8438C28.2042 30.4122 28.3771 28.8682 28.3771 27.19V12.6412C28.3771 11.2311 28.0992 9.86436 27.5693 8.60334C26.9383 11.6153 24.8742 14.1674 21.9646 15.3807L11.6229 19.6932V24.2455C11.6229 24.5692 11.3606 24.8314 11.037 24.8314C10.7134 24.8314 10.4511 24.5692 10.4511 24.2455V19.3161C10.4509 19.3074 10.4509 19.2985 10.4511 19.2897V12.6411C10.4511 9.54631 11.6547 6.63827 13.8402 4.45273C14.069 4.22398 14.44 4.22398 14.6688 4.45273C14.8976 4.68163 14.8976 5.05257 14.6688 5.2814C12.7047 7.24553 11.6229 9.85928 11.6229 12.6411V18.4234L14.4665 17.2376C16.6656 16.3172 18.5131 14.7964 19.8101 12.839C21.1025 10.8887 21.7855 8.60256 21.7855 6.22788C21.7855 5.90421 22.0478 5.64194 22.3714 5.64194C22.695 5.64194 22.9574 5.90421 22.9574 6.22788C22.9574 8.83365 22.2069 11.3435 20.7871 13.4863C20.3953 14.0775 19.9582 14.6322 19.4798 15.1472L21.5135 14.2991C24.5478 13.0337 26.5323 10.1051 26.5983 6.81311C26.2294 6.26913 25.8061 5.75632 25.3313 5.28147C25.1024 5.05257 25.1024 4.68163 25.3313 4.4528C25.5601 4.22405 25.9311 4.22405 26.1599 4.4528C28.3454 6.63835 29.549 9.54631 29.549 12.6412V27.1898C29.549 32.3462 27.9215 36.4803 24.5735 39.8283C24.4591 39.9427 24.3091 39.9999 24.1592 39.9999ZM15.8408 39.9999C15.6909 39.9999 15.5409 39.9427 15.4265 39.8284C12.0786 36.4804 10.451 32.3463 10.451 27.1899C10.451 26.8662 10.7133 26.6039 11.0369 26.6039C11.3605 26.6039 11.6229 26.8662 11.6229 27.1899C11.6229 28.8681 11.7958 30.412 12.1502 31.8436C14.3325 30.9763 17.0872 30.5017 19.9848 30.5H19.9851C20.3086 30.5 20.5709 30.762 20.5711 31.0856C20.5712 31.4092 20.309 31.6717 19.9854 31.6719C17.1832 31.6735 14.537 32.1347 12.476 32.9756C13.2226 35.2393 14.4693 37.214 16.255 38.9997C16.4839 39.2286 16.4839 39.5995 16.255 39.8284C16.1407 39.9427 15.9908 39.9999 15.8408 39.9999Z" fill="#008080"/>
</g>
<defs>
<clipPath id="clip0_680_2677">
<rect width="40" height="40" fill="white"/>
</clipPath>
</defs>
</svg>
