<svg width="41" height="36" viewBox="0 0 41 36" fill="none" xmlns="http://www.w3.org/2000/svg">
<path d="M34.0618 35.8818C33.6117 35.8818 33.1616 35.7105 32.819 35.3679L21.0975 23.6464C20.8761 23.425 20.7543 23.1307 20.7543 22.8178C20.7543 22.5048 20.8761 22.2105 21.0975 21.9892L16.6804 17.5721C16.5828 17.4745 16.4897 17.3736 16.4007 17.2696C10.5549 16.6371 5.43137 12.949 2.96387 7.59504C2.13114 7.16652 1.36028 6.61191 0.675982 5.94129C0.44481 5.71481 0.44106 5.34387 0.667623 5.1127C0.894185 4.88152 1.2652 4.87785 1.49614 5.10434C2.27778 5.87027 3.18879 6.4634 4.18098 6.86434L9.05942 1.9877C10.2655 0.78207 11.8689 0.118164 13.5742 0.118164H20.5305C20.8542 0.118164 21.1165 0.380508 21.1165 0.704101C21.1165 1.0277 20.8542 1.29004 20.5305 1.29004H13.5742C12.1818 1.29004 10.8727 1.83215 9.88794 2.81652L5.44278 7.25996C6.05333 7.39902 6.68458 7.47051 7.32715 7.47051H7.332C9.56254 7.46926 11.6528 6.82418 13.2175 5.6541C13.4255 5.49855 13.7113 5.49848 13.9193 5.6541C16.2931 7.42918 20.1554 7.42918 22.5292 5.6541C22.7372 5.49855 23.0229 5.49855 23.2309 5.6541C24.7974 6.82543 26.8893 7.47051 29.1212 7.47051C29.7638 7.47051 30.3951 7.39902 31.0057 7.25996L26.5605 2.81652C25.5758 1.83215 24.2667 1.29004 22.8743 1.29004C22.5506 1.29004 22.2883 1.0277 22.2883 0.704101C22.2883 0.380508 22.5506 0.118164 22.8743 0.118164C24.5796 0.118164 26.183 0.782148 27.389 1.9877L32.2675 6.86434C33.2597 6.46348 34.1707 5.87027 34.9522 5.10441C35.1833 4.87793 35.5543 4.88152 35.7808 5.11277C36.0073 5.34387 36.0036 5.71488 35.7725 5.94137C35.0882 6.61199 34.3175 7.16652 33.4847 7.59504C32.0771 10.6508 29.8129 13.1878 26.927 14.9396C26.6505 15.1075 26.2901 15.0193 26.1221 14.7427C25.9542 14.4661 26.0423 14.1057 26.319 13.9378C28.6329 12.5332 30.5172 10.5863 31.832 8.25559C30.9639 8.51043 30.0528 8.64238 29.1212 8.64238C26.7978 8.64238 24.5986 8.00496 22.8772 6.8402C21.5822 7.68832 19.9477 8.15137 18.2242 8.15137C16.5007 8.15137 14.8663 7.68832 13.5711 6.8402C11.8516 8.00371 9.65434 8.64113 7.33254 8.64238C7.3309 8.64238 7.32872 8.64238 7.32708 8.64238C6.39598 8.64238 5.48567 8.51059 4.61786 8.25605C6.92301 12.3304 10.9576 15.1782 15.5699 15.9707C14.7267 14.1617 14.8411 12.0629 15.7605 11.1433C16.9747 9.9291 20.2451 10.1189 22.1894 12.0632L26.6065 16.4802C27.0635 16.0234 27.807 16.0234 28.2637 16.4802L30.2386 18.455C30.4674 18.6839 30.4674 19.0549 30.2386 19.2836C30.0097 19.5124 29.6387 19.5125 29.4099 19.2836L27.4351 17.3089L21.9261 22.8179L27.0185 27.9102L32.5275 22.4012L30.9725 20.8461C30.7436 20.6173 30.7436 20.2463 30.9725 20.0175C31.2015 19.7886 31.5724 19.7887 31.8011 20.0175L39.9852 28.2016C40.3172 28.5336 40.5 28.975 40.5 29.4446C40.5 29.9141 40.3172 30.3555 39.9851 30.6875L35.3049 35.3679C34.9622 35.7105 34.5121 35.8818 34.0618 35.8818ZM29.5043 30.3961L33.6475 34.5393C33.8761 34.7678 34.2478 34.7675 34.4762 34.5393L39.1565 29.8589C39.2672 29.7482 39.3281 29.6011 39.3281 29.4446C39.3281 29.2882 39.2672 29.1411 39.1565 29.0303L35.0133 24.8871L29.5043 30.3961ZM27.8471 28.7387L28.6757 29.5674L34.1847 24.0583L33.3561 23.2297L27.8471 28.7387ZM18.0408 11.5444C17.3997 11.5444 16.8645 11.6965 16.5892 11.9719C15.8636 12.6975 15.9933 15.2279 17.509 16.7435L21.926 21.1605L25.7778 17.3088L21.3607 12.8918C20.4204 11.9513 19.089 11.5444 18.0408 11.5444Z" fill="#008080"/>
</svg>
