<svg width="41" height="36" viewBox="0 0 41 36" fill="none" xmlns="http://www.w3.org/2000/svg">
<path d="M7.67105 35.8392H1.33617C1.01237 35.8392 0.75 35.5768 0.75 35.253C0.75 34.9292 1.01237 34.6669 1.33617 34.6669H7.67105C11.5181 34.6669 14.4334 34.2122 16.5835 33.2768C18.3949 32.4887 19.712 31.3622 20.6682 29.7695H13.6963C11.4538 29.7695 9.70499 27.8648 9.4742 25.2629H1.33617C1.01237 25.2629 0.75 25.0006 0.75 24.6768C0.75 24.353 1.01237 24.0906 1.33617 24.0906H10.0345C12.8782 24.0906 15.3688 23.089 17.237 21.1938L21.5614 16.7973L19.0104 14.2291C18.8739 14.0916 18.8141 13.8955 18.8507 13.7053C18.8873 13.515 19.0156 13.3551 19.1934 13.2781C19.7409 13.041 20.2595 12.8186 20.7535 12.6066C23.0159 11.6362 24.803 10.8695 26.4506 9.93924C26.7325 9.78034 27.0902 9.8796 27.2493 10.1615C27.4084 10.4434 27.309 10.801 27.027 10.9602C25.3239 11.9218 23.511 12.6995 21.2158 13.6841C20.9665 13.791 20.711 13.9007 20.4487 14.0134L26.8684 20.4767C29.6143 14.1658 31.1151 11.2076 36.1084 6.21423L39.2844 3.03827C39.4853 2.83733 39.5918 2.55925 39.5764 2.27523C39.5608 1.98746 39.4269 1.72814 39.1992 1.54494C38.8091 1.23122 38.2103 1.27874 37.8359 1.65318L34.66 4.82914C32.4943 6.99478 30.7791 8.48381 29.0984 9.65725C28.8328 9.84271 28.4674 9.77769 28.2822 9.51227C28.0969 9.24685 28.1618 8.88139 28.4272 8.69608C30.0494 7.56352 31.7159 6.11528 33.8309 4.00022L37.0067 0.824024C37.8116 0.0193273 39.07 -0.0634403 39.9337 0.631369C40.4172 1.0202 40.7136 1.59629 40.7468 2.21185C40.7801 2.8278 40.5492 3.43116 40.1133 3.86712L36.9371 7.04316C31.8912 12.0892 30.5093 15.017 27.5997 21.7361C27.5224 21.9146 27.3616 22.0431 27.1705 22.0793C26.9796 22.115 26.7828 22.0543 26.6458 21.9163L24.0397 19.2925C23.3497 19.9917 21.6783 21.6821 19.7047 23.6557C19.5549 23.8054 19.41 23.9504 19.2697 24.0906H23.9004C24.6375 24.0906 25.2373 24.6897 25.2376 25.426C25.2379 26.5127 24.9494 27.5352 24.4253 28.3051C23.8437 29.1592 23.017 29.6543 22.019 29.7517C19.8189 34.014 15.4986 35.8392 7.67105 35.8392ZM10.6528 25.2477C10.8462 26.9515 11.9068 28.5971 13.6962 28.5971H21.6352C21.643 28.5969 21.6509 28.5969 21.6588 28.5971C22.4237 28.5939 23.0283 28.2736 23.4563 27.6452C23.8436 27.0763 24.0656 26.2676 24.0653 25.4262C24.0653 25.3362 23.9913 25.2628 23.9004 25.2628H18.0966C16.6249 26.7327 15.9372 27.4165 15.9283 27.4253C15.6988 27.6537 15.3276 27.6526 15.0994 27.423C14.8711 27.1933 14.8722 26.8222 15.1018 26.594C15.1128 26.5831 16.1658 25.536 18.4612 23.2411L17.6457 22.4255C15.7676 24.1291 13.3227 25.1158 10.6528 25.2477ZM18.48 21.6019L19.2902 22.412C21.0869 20.6129 22.5783 19.1044 23.2136 18.4606L22.3876 17.629L18.48 21.6019Z" fill="#008080"/>
</svg>
