<svg width="20" height="21" viewBox="0 0 20 21" fill="none" xmlns="http://www.w3.org/2000/svg">
<path d="M6.64157 10.1579C7.52229 10.1579 8.36695 9.80805 8.98971 9.18528C9.61248 8.56251 9.96235 7.71786 9.96235 6.83714C9.96235 5.95641 9.61248 5.11176 8.98971 4.48899C8.36695 3.86622 7.52229 3.51636 6.64157 3.51636C5.76084 3.51636 4.91619 3.86622 4.29342 4.48899C3.67066 5.11176 3.32079 5.95641 3.32079 6.83714C3.32079 7.71786 3.67066 8.56251 4.29342 9.18528C4.91619 9.80805 5.76084 10.1579 6.64157 10.1579ZM14.1133 10.1579C14.7739 10.1579 15.4074 9.89551 15.8744 9.42844C16.3415 8.96136 16.6039 8.32787 16.6039 7.66733C16.6039 7.00679 16.3415 6.3733 15.8744 5.90622C15.4074 5.43915 14.7739 5.17675 14.1133 5.17675C13.4528 5.17675 12.8193 5.43915 12.3522 5.90622C11.8851 6.3733 11.6227 7.00679 11.6227 7.66733C11.6227 8.32787 11.8851 8.96136 12.3522 9.42844C12.8193 9.89551 13.4528 10.1579 14.1133 10.1579ZM3.73589 11.8183C2.59022 11.8183 1.6604 12.7481 1.6604 13.8938C1.6604 13.8938 1.6604 17.6297 6.64157 17.6297C10.59 17.6297 11.4085 15.2819 11.5779 14.3089C11.6227 14.0548 11.6227 13.8938 11.6227 13.8938C11.6227 12.7481 10.6929 11.8183 9.54725 11.8183H3.73589ZM13.2765 14.4749C13.2732 14.5413 13.2665 14.6199 13.2566 14.7107C13.1649 15.3953 12.9271 16.0522 12.5592 16.6368C12.9992 16.738 13.5123 16.7995 14.1117 16.7995C18.2626 16.7995 18.2626 13.8938 18.2626 13.8938C18.2626 12.7481 17.3328 11.8183 16.1871 11.8183H12.6522C13.0507 12.4127 13.2815 13.125 13.2815 13.8938V14.3089L13.2765 14.4749Z" fill="#008080"/>
</svg>
