<svg width="78" height="14" viewBox="0 0 78 14" fill="none" xmlns="http://www.w3.org/2000/svg">
<path d="M36.1942 13C35.8302 13.076 35.4702 13.106 35.1142 13.09C34.7622 13.074 34.4462 12.998 34.1662 12.862C33.8902 12.726 33.6802 12.514 33.5362 12.226C33.4202 11.986 33.3562 11.744 33.3442 11.5C33.3362 11.252 33.3322 10.97 33.3322 10.654V4.72H34.2082V10.618C34.2082 10.89 34.2102 11.118 34.2142 11.302C34.2222 11.482 34.2642 11.642 34.3402 11.782C34.4842 12.05 34.7122 12.21 35.0242 12.262C35.3402 12.314 35.7302 12.302 36.1942 12.226V13ZM31.9462 7.276V6.52H36.1942V7.276H31.9462ZM39.9425 13.18C39.2985 13.18 38.7485 13.034 38.2925 12.742C37.8365 12.45 37.4865 12.046 37.2425 11.53C36.9985 11.014 36.8765 10.422 36.8765 9.754C36.8765 9.074 37.0005 8.478 37.2485 7.966C37.4965 7.454 37.8485 7.056 38.3045 6.772C38.7645 6.484 39.3105 6.34 39.9425 6.34C40.5905 6.34 41.1425 6.486 41.5985 6.778C42.0585 7.066 42.4085 7.468 42.6485 7.984C42.8925 8.496 43.0145 9.086 43.0145 9.754C43.0145 10.434 42.8925 11.032 42.6485 11.548C42.4045 12.06 42.0525 12.46 41.5925 12.748C41.1325 13.036 40.5825 13.18 39.9425 13.18ZM39.9425 12.334C40.6625 12.334 41.1985 12.096 41.5505 11.62C41.9025 11.14 42.0785 10.518 42.0785 9.754C42.0785 8.97 41.9005 8.346 41.5445 7.882C41.1925 7.418 40.6585 7.186 39.9425 7.186C39.4585 7.186 39.0585 7.296 38.7425 7.516C38.4305 7.732 38.1965 8.034 38.0405 8.422C37.8885 8.806 37.8125 9.25 37.8125 9.754C37.8125 10.534 37.9925 11.16 38.3525 11.632C38.7125 12.1 39.2425 12.334 39.9425 12.334Z" fill="#7E7E7E"/>
<line x1="77.8921" y1="7.0585" x2="44.5098" y2="7.0585" stroke="#7E7E7E" stroke-width="0.5"/>
<line x1="30.8145" y1="7.0585" x2="4.95911e-05" y2="7.0585" stroke="#7E7E7E" stroke-width="0.5"/>
</svg>
