<svg width="41" height="40" viewBox="0 0 41 40" fill="none" xmlns="http://www.w3.org/2000/svg">
<path d="M28.1608 39.3996C25.0477 39.3996 21.9693 38.8302 19.0112 37.7072C16.1866 36.6349 13.2481 36.0911 10.2776 36.0911C7.30715 36.0911 4.36865 36.6348 1.54398 37.7072C1.36375 37.7757 1.16171 37.7511 1.00319 37.6417C0.844751 37.5323 0.750061 37.352 0.750061 37.1594V22.0113C0.750061 21.7679 0.900533 21.5499 1.12804 21.4635C6.48979 19.428 12.2102 19.2214 17.671 20.8662C17.9808 20.9595 18.1564 21.2864 18.0631 21.5962C17.9697 21.9061 17.6428 22.0814 17.333 21.9882C12.2501 20.4573 6.93012 20.6075 1.92188 22.419V36.3245C4.63514 35.3917 7.442 34.9192 10.2775 34.9192C13.3906 34.9192 16.469 35.4886 19.4271 36.6116C22.2519 37.684 25.1904 38.2277 28.1607 38.2277C30.9991 38.2277 33.8078 37.7314 36.5164 36.7517V22.8462C33.8566 23.7606 31.1056 24.2328 28.3263 24.2509C25.2713 24.2715 22.2439 23.7416 19.33 22.6777C19.026 22.5668 18.8695 22.2304 18.9805 21.9264C19.0915 21.6225 19.4275 21.4659 19.7319 21.5768C22.5141 22.5926 25.4027 23.0977 28.3186 23.079C31.2353 23.0599 34.1206 22.5164 36.8944 21.4634C37.0747 21.395 37.2767 21.4196 37.4351 21.5289C37.5936 21.6383 37.6883 21.8186 37.6883 22.0112V37.1593C37.6883 37.4027 37.5378 37.6208 37.3103 37.7072C34.3523 38.8302 31.2739 39.3996 28.1608 39.3996ZM25.7397 35.2989C25.4299 35.2989 25.1137 35.2885 24.7918 35.2674C22.7555 35.1341 20.81 34.4838 19.0112 33.8009C17.2213 33.1214 15.3705 32.4188 13.5296 32.1697L13.0286 32.1023C11.0771 31.8404 9.39157 31.6142 8.16327 31.1348C6.67081 30.5524 5.94533 29.6111 5.94533 28.2571C5.94533 27.248 6.35635 26.3297 7.13387 25.6013C8.48109 24.3394 10.8544 23.7202 13.6464 23.9033C15.6826 24.0366 17.6282 24.6869 19.4271 25.3698C21.2169 26.0493 23.0676 26.7519 24.9088 27.001C25.2294 27.0444 25.4542 27.3395 25.4109 27.6602C25.3675 27.9809 25.0732 28.2059 24.7517 28.1623C22.7773 27.8952 20.8628 27.1683 19.0112 26.4654C17.2974 25.8148 15.4521 25.1958 13.5699 25.0726C11.1004 24.911 9.04657 25.4154 7.93506 26.4565C7.39239 26.9648 7.11723 27.5706 7.11723 28.257C7.11723 30.0433 9.19766 30.4057 13.1845 30.9407L13.6867 31.0083C15.6608 31.2754 17.5754 32.0023 19.4272 32.7052C21.1408 33.3558 22.9861 33.9747 24.8685 34.098C27.3381 34.2597 29.3917 33.7551 30.5033 32.714C31.0459 32.2057 31.3211 31.5999 31.3211 30.9134C31.3211 29.5819 30.236 28.9671 27.0209 28.4771C26.7009 28.4283 26.4812 28.1294 26.5299 27.8095C26.5787 27.4895 26.8784 27.2702 27.1974 27.3185C29.8769 27.7269 32.493 28.3409 32.493 30.9134C32.493 31.9226 32.082 32.841 31.3044 33.5694C30.1126 34.6858 28.1171 35.2989 25.7397 35.2989ZM19.5264 19.5656C19.5248 19.5656 19.5233 19.5656 19.5216 19.5656C19.1994 19.563 18.9398 19.3007 18.9404 18.9788C18.9404 18.9776 18.9404 18.9763 18.9404 18.9751L18.9885 12.8814C19.0147 12.3523 18.8529 12.0648 18.2865 11.7483L16.079 10.5146C13.5391 9.09507 12.5856 5.88766 13.9535 3.36456C14.6314 2.11422 15.7565 1.20764 17.1216 0.811849C18.4872 0.41606 19.9222 0.579969 21.163 1.27342C22.3972 1.96328 23.164 3.27011 23.164 4.68412V5.07679L31.2082 9.57258C31.4906 9.73048 31.5917 10.0874 31.4338 10.3699C31.2759 10.6524 30.919 10.7535 30.6365 10.5956L23.164 6.41931V10.4468C28.7019 13.5419 36.5744 17.9417 36.963 18.1589C37.809 18.6317 38.8823 18.328 39.3551 17.482C39.828 16.6359 39.5243 15.5628 38.6782 15.0899L32.6064 11.6965C32.3239 11.5386 32.2229 11.1816 32.3807 10.8991C32.5386 10.6166 32.8954 10.5156 33.1781 10.6735L39.2499 14.0668C40.6601 14.855 41.1662 16.6434 40.378 18.0536C39.5898 19.4637 37.8014 19.9698 36.3912 19.1817C35.9989 18.9624 27.9705 14.4754 22.4253 11.3764H21.6864C20.8843 11.3764 20.1602 12.0665 20.1602 12.9054L20.1122 18.9842C20.1097 19.3063 19.8478 19.5656 19.5264 19.5656ZM18.5968 1.77304C18.2132 1.77304 17.8271 1.82742 17.4479 1.93742C16.3863 2.24524 15.5111 2.95041 14.9838 3.92317C13.92 5.8854 14.6678 8.38334 16.6508 9.49157L18.8583 10.7253C19.1373 10.8813 19.3709 11.0547 19.5598 11.2468C19.8505 10.8748 20.2361 10.5803 20.6793 10.4006C18.7432 9.31844 17.3783 8.55569 17.2222 8.46842C16.5391 8.08669 16.0455 7.46168 15.8324 6.70869C15.6194 5.95571 15.7123 5.16476 16.0941 4.48169C16.8823 3.07151 18.6708 2.5654 20.0809 3.35362L20.6441 3.6684C20.9265 3.82629 21.0275 4.18325 20.8697 4.46576C20.7119 4.74826 20.3549 4.84936 20.0723 4.69139L19.5092 4.37669C18.6632 3.90379 17.5901 4.20739 17.1171 5.0535C16.888 5.46336 16.8322 5.9379 16.9601 6.3897C17.088 6.84151 17.3841 7.21652 17.794 7.44559C17.9694 7.54363 19.6696 8.49381 21.9922 9.79189V4.68412C21.9922 3.69425 21.4554 2.77931 20.5913 2.29641C19.9708 1.94961 19.2876 1.77304 18.5968 1.77304Z" fill="#008080"/>
</svg>
