<svg width="18" height="20" viewBox="0 0 18 20" fill="none" xmlns="http://www.w3.org/2000/svg">
<path d="M5.35179 18.2418C6.19288 19.311 7.51418 20 9 20C10.4858 20 11.8071 19.311 12.6482 18.2418C10.2264 18.57 7.77357 18.57 5.35179 18.2418Z" fill="#9EA1AE"/>
<path fill-rule="evenodd" clip-rule="evenodd" d="M15.7491 7.7041V7C15.7491 3.13401 12.7274 0 9 0C5.27256 0 2.25087 3.13401 2.25087 7V7.7041C2.25087 8.54909 2.00972 9.37517 1.5578 10.0782L0.450359 11.8012C-0.561177 13.3749 0.211046 15.5139 1.97036 16.0116C6.57274 17.3134 11.4273 17.3134 16.0296 16.0116C17.789 15.5139 18.5612 13.3749 17.5496 11.8012L16.4422 10.0782C15.9903 9.37517 15.7491 8.54909 15.7491 7.7041ZM9 3.25C9.41421 3.25 9.75 3.58579 9.75 4V8C9.75 8.41421 9.41421 8.75 9 8.75C8.58579 8.75 8.25 8.41421 8.25 8V4C8.25 3.58579 8.58579 3.25 9 3.25Z" fill="#9EA1AE"/>
</svg>
